<svg xmlns="http://www.w3.org/2000/svg" xmlns:xlink="http://www.w3.org/1999/xlink" width="500" zoomAndPan="magnify" viewBox="0 0 375 374.999991" height="500" preserveAspectRatio="xMidYMid meet" version="1.0"><defs><g/><clipPath id="108c23ada8"><path d="M 169 92 L 216.5 92 L 216.5 124 L 169 124 Z M 169 92 " clip-rule="nonzero"/></clipPath><clipPath id="b556956df9"><path d="M 176 161 L 185 161 L 185 169.238281 L 176 169.238281 Z M 176 161 " clip-rule="nonzero"/></clipPath><clipPath id="e053fa102e"><path d="M 139.25 146 L 148 146 L 148 155 L 139.25 155 Z M 139.25 146 " clip-rule="nonzero"/></clipPath></defs><g clip-path="url(#108c23ada8)"><path fill="#020b0a" d="M 207.773438 105.996094 L 206.136719 105.996094 C 206.175781 105.71875 206.175781 105.445312 206.175781 105.128906 C 206.175781 97.890625 200.371094 92 193.242188 92 C 189.035156 92 185.296875 94.015625 182.960938 97.179688 C 181.128906 95.835938 178.90625 95.042969 176.492188 95.042969 C 174.039062 95.042969 171.738281 95.875 169.910156 97.257812 C 173.140625 97.929688 176.101562 99.671875 178.324219 102.203125 C 180.386719 100.9375 182.726562 100.265625 185.140625 100.265625 C 191.957031 100.265625 197.605469 105.5625 198.269531 112.324219 L 198.890625 112.324219 C 204.8125 112.324219 209.644531 117.226562 209.644531 123.199219 C 209.644531 123.316406 209.644531 123.4375 209.644531 123.554688 C 213.539062 122.683594 216.5 119.125 216.5 114.894531 C 216.5 109.992188 212.566406 105.996094 207.773438 105.996094 Z M 207.773438 105.996094 " fill-opacity="1" fill-rule="nonzero"/></g><path fill="#020b0a" d="M 156.664062 149.257812 L 148.132812 149.257812 C 148.25 149.730469 148.328125 150.207031 148.328125 150.722656 C 148.328125 151.195312 148.25 151.710938 148.132812 152.144531 L 158.066406 152.144531 C 158.84375 152.144531 159.507812 151.511719 159.507812 150.722656 L 159.507812 134.113281 L 156.664062 134.113281 Z M 156.664062 149.257812 " fill-opacity="1" fill-rule="nonzero"/><path fill="#020b0a" d="M 180.894531 160.011719 C 181.402344 160.011719 181.867188 160.09375 182.335938 160.210938 L 182.335938 134.113281 L 179.492188 134.113281 L 179.492188 160.210938 C 179.960938 160.09375 180.425781 160.011719 180.894531 160.011719 Z M 180.894531 160.011719 " fill-opacity="1" fill-rule="nonzero"/><path fill="#020b0a" d="M 193.125 149.257812 L 193.125 134.113281 L 190.28125 134.113281 L 190.28125 150.722656 C 190.28125 151.511719 190.945312 152.144531 191.722656 152.144531 L 201.660156 152.144531 C 201.542969 151.710938 201.464844 151.195312 201.464844 150.722656 C 201.464844 150.207031 201.542969 149.730469 201.660156 149.257812 Z M 193.125 149.257812 " fill-opacity="1" fill-rule="nonzero"/><path fill="#020b0a" d="M 168.894531 148.78125 C 169.363281 148.78125 169.832031 148.863281 170.296875 149.019531 L 170.296875 134.113281 L 167.453125 134.113281 L 167.453125 149.019531 C 167.921875 148.863281 168.390625 148.78125 168.894531 148.78125 Z M 168.894531 148.78125 " fill-opacity="1" fill-rule="nonzero"/><path fill="#020b0a" d="M 180.308594 118.53125 C 180.660156 118.414062 180.972656 118.214844 181.246094 117.980469 C 181.519531 117.742188 181.710938 117.464844 181.867188 117.109375 C 182.023438 116.792969 182.101562 116.398438 182.101562 115.960938 C 182.101562 115.527344 182.023438 115.132812 181.867188 114.777344 C 181.710938 114.460938 181.519531 114.183594 181.246094 113.90625 C 180.972656 113.667969 180.660156 113.511719 180.308594 113.351562 C 179.921875 113.234375 179.53125 113.152344 179.140625 113.152344 L 177.3125 113.152344 L 177.3125 118.730469 L 179.140625 118.730469 C 179.53125 118.730469 179.921875 118.652344 180.308594 118.53125 Z M 180.308594 118.53125 " fill-opacity="1" fill-rule="nonzero"/><path fill="#020b0a" d="M 150.898438 132.925781 L 198.890625 132.925781 C 204.152344 132.925781 208.476562 128.578125 208.476562 123.199219 C 208.476562 117.859375 204.152344 113.511719 198.890625 113.511719 L 197.140625 113.511719 C 197.0625 106.828125 191.722656 101.449219 185.140625 101.449219 C 182.492188 101.449219 180.078125 102.320312 178.089844 103.78125 C 175.480469 100.34375 171.429688 98.128906 166.832031 98.128906 C 159 98.128906 152.652344 104.574219 152.652344 112.5625 C 152.652344 112.878906 152.652344 113.195312 152.652344 113.511719 L 150.898438 113.511719 C 145.640625 113.511719 141.316406 117.859375 141.316406 123.199219 C 141.316406 128.578125 145.640625 132.925781 150.898438 132.925781 Z M 185.957031 111.808594 C 185.957031 111.414062 186.074219 111.136719 186.308594 110.902344 C 186.542969 110.664062 186.855469 110.542969 187.207031 110.542969 C 187.554688 110.542969 187.867188 110.664062 188.101562 110.902344 C 188.335938 111.136719 188.414062 111.414062 188.414062 111.808594 L 188.414062 125.375 C 188.414062 125.769531 188.335938 126.046875 188.101562 126.28125 C 187.867188 126.519531 187.554688 126.640625 187.207031 126.640625 C 186.855469 126.640625 186.542969 126.519531 186.308594 126.28125 C 186.074219 126.046875 185.957031 125.769531 185.957031 125.375 Z M 174.855469 111.929688 C 174.855469 111.535156 174.972656 111.21875 175.207031 111.019531 C 175.441406 110.78125 175.753906 110.664062 176.0625 110.664062 L 179.140625 110.664062 C 179.882812 110.664062 180.582031 110.78125 181.246094 111.058594 C 181.90625 111.296875 182.492188 111.652344 183 112.085938 C 183.464844 112.5625 183.855469 113.113281 184.128906 113.746094 C 184.441406 114.421875 184.558594 115.132812 184.558594 115.960938 C 184.558594 116.753906 184.441406 117.503906 184.128906 118.136719 C 183.855469 118.808594 183.464844 119.324219 183 119.796875 C 182.492188 120.273438 181.90625 120.628906 181.246094 120.867188 C 180.582031 121.101562 179.882812 121.222656 179.140625 121.222656 L 177.3125 121.222656 L 177.3125 125.375 C 177.3125 125.769531 177.234375 126.046875 177 126.28125 C 176.765625 126.519531 176.453125 126.640625 176.0625 126.640625 C 175.753906 126.640625 175.441406 126.519531 175.207031 126.28125 C 174.972656 126.046875 174.855469 125.769531 174.855469 125.375 Z M 161.457031 124.9375 L 166.324219 111.375 C 166.519531 110.820312 166.910156 110.542969 167.492188 110.542969 C 167.765625 110.542969 168 110.625 168.195312 110.742188 C 168.429688 110.902344 168.546875 111.097656 168.664062 111.375 L 173.570312 124.898438 C 173.570312 124.976562 173.609375 125.058594 173.609375 125.136719 C 173.648438 125.175781 173.648438 125.253906 173.648438 125.375 C 173.648438 125.730469 173.492188 126.046875 173.257812 126.28125 C 172.988281 126.519531 172.714844 126.640625 172.363281 126.640625 C 172.128906 126.640625 171.894531 126.558594 171.699219 126.441406 C 171.507812 126.324219 171.351562 126.085938 171.234375 125.769531 L 170.027344 122.367188 L 164.960938 122.367188 L 163.792969 125.769531 C 163.675781 126.085938 163.519531 126.28125 163.324219 126.441406 C 163.128906 126.558594 162.898438 126.640625 162.585938 126.640625 C 162.3125 126.640625 162.039062 126.519531 161.765625 126.324219 C 161.496094 126.125 161.339844 125.808594 161.339844 125.414062 C 161.339844 125.253906 161.378906 125.097656 161.457031 124.9375 Z M 161.457031 124.9375 " fill-opacity="1" fill-rule="nonzero"/><path fill="#020b0a" d="M 167.492188 115.367188 L 165.78125 120.152344 L 169.207031 120.152344 Z M 167.492188 115.367188 " fill-opacity="1" fill-rule="nonzero"/><g clip-path="url(#b556956df9)"><path fill="#020b0a" d="M 180.894531 161.199219 C 178.714844 161.199219 176.960938 162.980469 176.960938 165.195312 C 176.960938 167.40625 178.714844 169.226562 180.894531 169.226562 C 183.078125 169.226562 184.867188 167.40625 184.867188 165.195312 C 184.867188 162.980469 183.078125 161.199219 180.894531 161.199219 Z M 180.894531 161.199219 " fill-opacity="1" fill-rule="nonzero"/></g><path fill="#020b0a" d="M 206.566406 146.6875 C 204.386719 146.6875 202.632812 148.507812 202.632812 150.722656 C 202.632812 152.933594 204.386719 154.714844 206.566406 154.714844 C 208.75 154.714844 210.539062 152.933594 210.539062 150.722656 C 210.539062 148.507812 208.75 146.6875 206.566406 146.6875 Z M 206.566406 146.6875 " fill-opacity="1" fill-rule="nonzero"/><g clip-path="url(#e053fa102e)"><path fill="#020b0a" d="M 143.183594 146.6875 C 141.003906 146.6875 139.25 148.507812 139.25 150.722656 C 139.25 152.933594 141.003906 154.714844 143.183594 154.714844 C 145.367188 154.714844 147.160156 152.933594 147.160156 150.722656 C 147.160156 148.507812 145.367188 146.6875 143.183594 146.6875 Z M 143.183594 146.6875 " fill-opacity="1" fill-rule="nonzero"/></g><path fill="#020b0a" d="M 168.894531 149.96875 C 166.714844 149.96875 164.921875 151.789062 164.921875 154.003906 C 164.921875 156.21875 166.714844 157.996094 168.894531 157.996094 C 171.078125 157.996094 172.832031 156.21875 172.832031 154.003906 C 172.832031 151.789062 171.078125 149.96875 168.894531 149.96875 Z M 168.894531 149.96875 " fill-opacity="1" fill-rule="nonzero"/><g fill="#000000" fill-opacity="1"><g transform="translate(124.322252, 190.336981)"><g/></g></g><g fill="#000000" fill-opacity="1"><g transform="translate(130.314372, 190.336981)"><g><path d="M 19.359375 -1.5 C 19.359375 -1.4375 19.304688 -1.363281 19.203125 -1.28125 C 19.097656 -1.207031 18.972656 -1.125 18.828125 -1.03125 C 18.679688 -0.9375 18.519531 -0.835938 18.34375 -0.734375 C 18.164062 -0.628906 18.007812 -0.519531 17.875 -0.40625 C 17.570312 -0.1875 17.328125 -0.00390625 17.140625 0.140625 C 16.953125 0.296875 16.800781 0.421875 16.6875 0.515625 C 16.582031 0.617188 16.492188 0.691406 16.421875 0.734375 C 16.347656 0.785156 16.28125 0.8125 16.21875 0.8125 C 16.164062 0.8125 16.125 0.804688 16.09375 0.796875 C 16.0625 0.796875 16.023438 0.769531 15.984375 0.71875 C 15.921875 0.65625 15.835938 0.519531 15.734375 0.3125 C 15.640625 0.101562 15.546875 -0.09375 15.453125 -0.28125 C 15.179688 -0.8125 14.945312 -1.28125 14.75 -1.6875 C 14.5625 -2.09375 14.359375 -2.523438 14.140625 -2.984375 C 13.878906 -3.523438 13.632812 -4.066406 13.40625 -4.609375 C 13.175781 -5.160156 12.945312 -5.707031 12.71875 -6.25 C 12.488281 -6.257812 12.253906 -6.269531 12.015625 -6.28125 C 11.773438 -6.289062 11.535156 -6.296875 11.296875 -6.296875 C 11.148438 -6.296875 10.863281 -6.289062 10.4375 -6.28125 C 10.019531 -6.269531 9.535156 -6.253906 8.984375 -6.234375 C 8.429688 -6.210938 7.851562 -6.175781 7.25 -6.125 C 6.65625 -6.070312 6.113281 -6 5.625 -5.90625 C 5.351562 -5.863281 5.078125 -5.796875 4.796875 -5.703125 C 4.515625 -5.617188 4.265625 -5.488281 4.046875 -5.3125 C 3.953125 -5.226562 3.835938 -5.125 3.703125 -5 C 3.578125 -4.882812 3.453125 -4.757812 3.328125 -4.625 C 3.210938 -4.488281 3.101562 -4.359375 3 -4.234375 C 2.894531 -4.109375 2.820312 -4.015625 2.78125 -3.953125 C 2.476562 -3.515625 2.148438 -3.0625 1.796875 -2.59375 C 1.441406 -2.125 1.097656 -1.671875 0.765625 -1.234375 C 0.441406 -0.796875 0.140625 -0.390625 -0.140625 -0.015625 C -0.429688 0.347656 -0.671875 0.640625 -0.859375 0.859375 C -0.921875 0.921875 -1.007812 1.023438 -1.125 1.171875 C -1.238281 1.316406 -1.347656 1.390625 -1.453125 1.390625 C -1.535156 1.390625 -1.601562 1.363281 -1.65625 1.3125 C -1.71875 1.269531 -1.75 1.207031 -1.75 1.125 C -1.75 1.03125 -1.710938 0.910156 -1.640625 0.765625 C -1.566406 0.617188 -1.484375 0.476562 -1.390625 0.34375 C -1.304688 0.207031 -1.21875 0.0820312 -1.125 -0.03125 C -1.03125 -0.15625 -0.957031 -0.253906 -0.90625 -0.328125 C -0.425781 -1.003906 0.03125 -1.675781 0.46875 -2.34375 C 0.90625 -3.007812 1.335938 -3.679688 1.765625 -4.359375 C 2.867188 -6.046875 3.941406 -7.742188 4.984375 -9.453125 C 6.023438 -11.171875 6.988281 -12.941406 7.875 -14.765625 C 8 -15.015625 8.113281 -15.296875 8.21875 -15.609375 C 8.320312 -15.921875 8.390625 -16.164062 8.421875 -16.34375 C 8.429688 -16.414062 8.445312 -16.492188 8.46875 -16.578125 C 8.488281 -16.671875 8.515625 -16.757812 8.546875 -16.84375 C 8.585938 -16.96875 8.644531 -17.050781 8.71875 -17.09375 C 8.789062 -17.132812 8.890625 -17.191406 9.015625 -17.265625 C 9.160156 -17.347656 9.34375 -17.4375 9.5625 -17.53125 C 9.789062 -17.625 9.976562 -17.671875 10.125 -17.671875 C 10.21875 -17.671875 10.28125 -17.660156 10.3125 -17.640625 C 10.351562 -17.617188 10.414062 -17.5625 10.5 -17.46875 C 10.519531 -17.4375 10.546875 -17.375 10.578125 -17.28125 C 10.617188 -17.195312 10.660156 -17.097656 10.703125 -16.984375 C 10.742188 -16.867188 10.785156 -16.753906 10.828125 -16.640625 C 10.867188 -16.535156 10.894531 -16.453125 10.90625 -16.390625 C 11.507812 -14.441406 12.179688 -12.554688 12.921875 -10.734375 C 13.429688 -9.460938 13.945312 -8.203125 14.46875 -6.953125 C 15 -5.703125 15.582031 -4.46875 16.21875 -3.25 C 16.3125 -3.0625 16.421875 -2.867188 16.546875 -2.671875 C 16.679688 -2.484375 16.820312 -2.3125 16.96875 -2.15625 C 17.125 -2.007812 17.296875 -1.882812 17.484375 -1.78125 C 17.679688 -1.675781 17.898438 -1.625 18.140625 -1.625 C 18.367188 -1.625 18.554688 -1.660156 18.703125 -1.734375 C 18.847656 -1.804688 18.984375 -1.84375 19.109375 -1.84375 C 19.203125 -1.84375 19.265625 -1.804688 19.296875 -1.734375 C 19.335938 -1.660156 19.359375 -1.582031 19.359375 -1.5 Z M 12.15625 -7.5625 C 11.644531 -8.613281 11.191406 -9.691406 10.796875 -10.796875 C 10.410156 -11.910156 10.050781 -13.023438 9.71875 -14.140625 C 9.6875 -14.253906 9.648438 -14.363281 9.609375 -14.46875 C 9.578125 -14.582031 9.523438 -14.679688 9.453125 -14.765625 C 9.421875 -14.742188 9.398438 -14.722656 9.390625 -14.703125 C 9.378906 -14.691406 9.359375 -14.671875 9.328125 -14.640625 C 9.171875 -14.316406 9.019531 -13.988281 8.875 -13.65625 C 8.726562 -13.320312 8.566406 -12.988281 8.390625 -12.65625 C 7.929688 -11.757812 7.429688 -10.890625 6.890625 -10.046875 C 6.347656 -9.203125 5.804688 -8.347656 5.265625 -7.484375 C 5.890625 -7.410156 6.507812 -7.351562 7.125 -7.3125 C 7.75 -7.28125 8.363281 -7.265625 8.96875 -7.265625 C 9.5 -7.265625 10.035156 -7.273438 10.578125 -7.296875 C 11.117188 -7.328125 11.644531 -7.414062 12.15625 -7.5625 Z M 12.15625 -7.5625 "/></g></g></g><g fill="#000000" fill-opacity="1"><g transform="translate(149.35151, 190.336981)"><g><path d="M 4.046875 -1.09375 C 4.171875 -1.09375 4.304688 -1.109375 4.453125 -1.140625 C 4.609375 -1.179688 4.75 -1.21875 4.875 -1.25 C 4.90625 -1.257812 4.941406 -1.269531 4.984375 -1.28125 C 5.023438 -1.300781 5.0625 -1.3125 5.09375 -1.3125 C 5.207031 -1.3125 5.28125 -1.265625 5.3125 -1.171875 C 5.34375 -1.078125 5.359375 -0.988281 5.359375 -0.90625 C 5.359375 -0.789062 5.3125 -0.71875 5.21875 -0.6875 C 5.125 -0.65625 5.035156 -0.625 4.953125 -0.59375 C 4.929688 -0.582031 4.890625 -0.5625 4.828125 -0.53125 C 4.765625 -0.507812 4.695312 -0.484375 4.625 -0.453125 C 4.550781 -0.421875 4.476562 -0.390625 4.40625 -0.359375 C 4.34375 -0.335938 4.300781 -0.328125 4.28125 -0.328125 C 3.820312 -0.160156 3.421875 0.015625 3.078125 0.203125 C 2.734375 0.390625 2.351562 0.609375 1.9375 0.859375 C 1.875 0.890625 1.8125 0.925781 1.75 0.96875 C 1.695312 1.007812 1.632812 1.03125 1.5625 1.03125 C 1.320312 1.03125 1.203125 0.914062 1.203125 0.6875 C 1.203125 0.5625 1.21875 0.441406 1.25 0.328125 C 1.28125 0.222656 1.3125 0.101562 1.34375 -0.03125 C 1.375 -0.21875 1.394531 -0.410156 1.40625 -0.609375 C 1.425781 -0.804688 1.453125 -1.003906 1.484375 -1.203125 C 1.566406 -1.847656 1.613281 -2.503906 1.625 -3.171875 C 1.644531 -3.847656 1.65625 -4.519531 1.65625 -5.1875 C 1.65625 -6.195312 1.660156 -7.203125 1.671875 -8.203125 C 1.691406 -9.210938 1.703125 -10.21875 1.703125 -11.21875 C 1.703125 -11.3125 1.695312 -11.601562 1.6875 -12.09375 C 1.675781 -12.59375 1.664062 -13.128906 1.65625 -13.703125 C 1.65625 -14.273438 1.644531 -14.796875 1.625 -15.265625 C 1.613281 -15.742188 1.597656 -16.003906 1.578125 -16.046875 L 1.578125 -16.140625 C 1.578125 -16.222656 1.628906 -16.285156 1.734375 -16.328125 C 1.835938 -16.367188 1.914062 -16.394531 1.96875 -16.40625 L 3.75 -16.84375 C 3.925781 -16.882812 4.097656 -16.941406 4.265625 -17.015625 C 4.429688 -17.085938 4.601562 -17.125 4.78125 -17.125 C 4.875 -17.125 4.9375 -17.085938 4.96875 -17.015625 C 5.007812 -16.941406 5.03125 -16.867188 5.03125 -16.796875 C 5.03125 -16.710938 4.976562 -16.640625 4.875 -16.578125 C 4.769531 -16.515625 4.648438 -16.429688 4.515625 -16.328125 C 4.378906 -16.222656 4.242188 -16.082031 4.109375 -15.90625 C 3.972656 -15.726562 3.867188 -15.5 3.796875 -15.21875 C 3.753906 -15.007812 3.71875 -14.753906 3.6875 -14.453125 C 3.664062 -14.160156 3.644531 -13.851562 3.625 -13.53125 C 3.613281 -13.21875 3.601562 -12.90625 3.59375 -12.59375 C 3.59375 -12.28125 3.59375 -12.015625 3.59375 -11.796875 C 3.5625 -10.847656 3.535156 -9.910156 3.515625 -8.984375 C 3.503906 -8.066406 3.5 -7.140625 3.5 -6.203125 L 3.5 -2.390625 C 3.5 -2.265625 3.5 -2.144531 3.5 -2.03125 C 3.507812 -1.914062 3.515625 -1.796875 3.515625 -1.671875 C 3.515625 -1.523438 3.535156 -1.390625 3.578125 -1.265625 C 3.628906 -1.148438 3.742188 -1.09375 3.921875 -1.09375 Z M 4.046875 -1.09375 "/></g></g></g><g fill="#000000" fill-opacity="1"><g transform="translate(155.115277, 190.336981)"><g><path d="M 9.8125 -3.140625 C 9.8125 -3.085938 9.789062 -3.019531 9.75 -2.9375 C 9.707031 -2.863281 9.660156 -2.785156 9.609375 -2.703125 C 9.566406 -2.617188 9.523438 -2.535156 9.484375 -2.453125 C 9.441406 -2.378906 9.414062 -2.328125 9.40625 -2.296875 C 9.289062 -2.085938 9.148438 -1.859375 8.984375 -1.609375 C 8.828125 -1.367188 8.65625 -1.128906 8.46875 -0.890625 C 8.289062 -0.648438 8.09375 -0.429688 7.875 -0.234375 C 7.664062 -0.046875 7.441406 0.0859375 7.203125 0.171875 C 6.972656 0.242188 6.710938 0.296875 6.421875 0.328125 C 6.140625 0.359375 5.878906 0.375 5.640625 0.375 C 5.179688 0.375 4.679688 0.335938 4.140625 0.265625 C 3.609375 0.203125 3.140625 0.0507812 2.734375 -0.1875 C 2.015625 -0.601562 1.519531 -1.1875 1.25 -1.9375 C 0.976562 -2.6875 0.84375 -3.453125 0.84375 -4.234375 C 0.84375 -4.953125 0.945312 -5.660156 1.15625 -6.359375 C 1.375 -7.066406 1.691406 -7.691406 2.109375 -8.234375 C 2.523438 -8.773438 3.035156 -9.210938 3.640625 -9.546875 C 4.253906 -9.878906 4.960938 -10.046875 5.765625 -10.046875 C 6.148438 -10.046875 6.519531 -10.007812 6.875 -9.9375 C 7.238281 -9.863281 7.601562 -9.765625 7.96875 -9.640625 C 8.125 -9.585938 8.273438 -9.535156 8.421875 -9.484375 C 8.566406 -9.429688 8.71875 -9.375 8.875 -9.3125 C 8.957031 -9.269531 9 -9.203125 9 -9.109375 C 9 -9.066406 8.972656 -8.976562 8.921875 -8.84375 C 8.867188 -8.707031 8.8125 -8.554688 8.75 -8.390625 C 8.6875 -8.234375 8.628906 -8.082031 8.578125 -7.9375 C 8.523438 -7.800781 8.488281 -7.707031 8.46875 -7.65625 C 8.4375 -7.601562 8.40625 -7.539062 8.375 -7.46875 C 8.351562 -7.40625 8.3125 -7.375 8.25 -7.375 C 8.1875 -7.375 8.125 -7.390625 8.0625 -7.421875 C 8 -7.453125 7.941406 -7.484375 7.890625 -7.515625 C 7.429688 -7.785156 6.921875 -8.019531 6.359375 -8.21875 C 5.804688 -8.414062 5.25 -8.515625 4.6875 -8.515625 C 4.257812 -8.515625 3.894531 -8.429688 3.59375 -8.265625 C 3.300781 -8.097656 3.054688 -7.875 2.859375 -7.59375 C 2.671875 -7.3125 2.535156 -6.992188 2.453125 -6.640625 C 2.367188 -6.296875 2.328125 -5.929688 2.328125 -5.546875 C 2.328125 -5.023438 2.398438 -4.507812 2.546875 -4 C 2.703125 -3.5 2.925781 -3.050781 3.21875 -2.65625 C 3.507812 -2.269531 3.878906 -1.957031 4.328125 -1.71875 C 4.773438 -1.476562 5.296875 -1.359375 5.890625 -1.359375 C 6.566406 -1.359375 7.117188 -1.460938 7.546875 -1.671875 C 7.972656 -1.878906 8.304688 -2.109375 8.546875 -2.359375 C 8.796875 -2.617188 8.984375 -2.851562 9.109375 -3.0625 C 9.242188 -3.269531 9.363281 -3.375 9.46875 -3.375 C 9.550781 -3.375 9.628906 -3.351562 9.703125 -3.3125 C 9.773438 -3.269531 9.8125 -3.210938 9.8125 -3.140625 Z M 9.8125 -3.140625 "/></g></g></g><g fill="#000000" fill-opacity="1"><g transform="translate(165.733988, 190.336981)"><g><path d="M 10.09375 -1.25 C 10.144531 -1.257812 10.226562 -1.285156 10.34375 -1.328125 C 10.46875 -1.378906 10.597656 -1.429688 10.734375 -1.484375 C 10.867188 -1.535156 10.988281 -1.578125 11.09375 -1.609375 C 11.207031 -1.648438 11.289062 -1.671875 11.34375 -1.671875 C 11.414062 -1.671875 11.476562 -1.640625 11.53125 -1.578125 C 11.59375 -1.523438 11.625 -1.460938 11.625 -1.390625 C 11.625 -1.296875 11.601562 -1.226562 11.5625 -1.1875 C 11.519531 -1.144531 11.460938 -1.109375 11.390625 -1.078125 C 11.210938 -0.992188 11.039062 -0.921875 10.875 -0.859375 C 10.71875 -0.796875 10.550781 -0.722656 10.375 -0.640625 C 10 -0.460938 9.613281 -0.289062 9.21875 -0.125 C 8.832031 0.0390625 8.445312 0.21875 8.0625 0.40625 C 8 0.4375 7.925781 0.472656 7.84375 0.515625 C 7.769531 0.554688 7.691406 0.578125 7.609375 0.578125 C 7.523438 0.578125 7.460938 0.546875 7.421875 0.484375 C 7.390625 0.429688 7.375 0.363281 7.375 0.28125 C 7.375 0.207031 7.414062 0.0976562 7.5 -0.046875 C 7.582031 -0.203125 7.640625 -0.320312 7.671875 -0.40625 C 8.046875 -1.101562 8.269531 -1.8125 8.34375 -2.53125 C 8.425781 -3.25 8.46875 -3.992188 8.46875 -4.765625 C 8.46875 -5.191406 8.429688 -5.625 8.359375 -6.0625 C 8.285156 -6.5 8.148438 -6.890625 7.953125 -7.234375 C 7.753906 -7.578125 7.488281 -7.859375 7.15625 -8.078125 C 6.820312 -8.304688 6.390625 -8.421875 5.859375 -8.421875 C 5.523438 -8.421875 5.15625 -8.351562 4.75 -8.21875 C 4.351562 -8.082031 4.035156 -7.878906 3.796875 -7.609375 C 3.671875 -7.460938 3.578125 -7.289062 3.515625 -7.09375 C 3.460938 -6.894531 3.425781 -6.675781 3.40625 -6.4375 C 3.394531 -6.207031 3.390625 -5.984375 3.390625 -5.765625 C 3.390625 -5.546875 3.390625 -5.351562 3.390625 -5.1875 C 3.390625 -5.0625 3.382812 -4.929688 3.375 -4.796875 C 3.375 -4.671875 3.375 -4.546875 3.375 -4.421875 C 3.351562 -3.734375 3.335938 -3.050781 3.328125 -2.375 C 3.328125 -1.695312 3.328125 -1.023438 3.328125 -0.359375 C 3.328125 -0.265625 3.28125 -0.195312 3.1875 -0.15625 C 3.101562 -0.113281 3.019531 -0.078125 2.9375 -0.046875 C 2.90625 -0.0351562 2.816406 -0.00390625 2.671875 0.046875 C 2.535156 0.109375 2.382812 0.171875 2.21875 0.234375 C 2.050781 0.296875 1.898438 0.351562 1.765625 0.40625 C 1.628906 0.46875 1.550781 0.5 1.53125 0.5 C 1.46875 0.5 1.429688 0.472656 1.421875 0.421875 C 1.410156 0.378906 1.40625 0.34375 1.40625 0.3125 C 1.40625 0.101562 1.410156 -0.101562 1.421875 -0.3125 C 1.441406 -0.519531 1.460938 -0.726562 1.484375 -0.9375 C 1.515625 -1.445312 1.523438 -1.960938 1.515625 -2.484375 C 1.503906 -3.015625 1.507812 -3.539062 1.53125 -4.0625 C 1.5625 -5.101562 1.582031 -6.132812 1.59375 -7.15625 C 1.613281 -8.175781 1.632812 -9.195312 1.65625 -10.21875 C 1.664062 -10.875 1.675781 -11.519531 1.6875 -12.15625 C 1.695312 -12.789062 1.703125 -13.4375 1.703125 -14.09375 C 1.703125 -14.164062 1.703125 -14.273438 1.703125 -14.421875 C 1.703125 -14.566406 1.695312 -14.710938 1.6875 -14.859375 C 1.675781 -15.003906 1.648438 -15.140625 1.609375 -15.265625 C 1.578125 -15.390625 1.523438 -15.476562 1.453125 -15.53125 C 1.378906 -15.570312 1.296875 -15.597656 1.203125 -15.609375 C 1.117188 -15.617188 1.035156 -15.625 0.953125 -15.625 L 0.8125 -15.625 C 0.757812 -15.625 0.707031 -15.617188 0.65625 -15.609375 C 0.613281 -15.597656 0.570312 -15.59375 0.53125 -15.59375 C 0.5 -15.582031 0.445312 -15.578125 0.375 -15.578125 C 0.269531 -15.578125 0.175781 -15.59375 0.09375 -15.625 C 0.0078125 -15.664062 -0.03125 -15.753906 -0.03125 -15.890625 C -0.03125 -15.953125 0 -16.003906 0.0625 -16.046875 C 0.132812 -16.097656 0.207031 -16.132812 0.28125 -16.15625 C 0.363281 -16.175781 0.445312 -16.195312 0.53125 -16.21875 C 0.625 -16.238281 0.691406 -16.253906 0.734375 -16.265625 C 1.203125 -16.378906 1.65625 -16.488281 2.09375 -16.59375 C 2.53125 -16.707031 2.972656 -16.835938 3.421875 -16.984375 C 3.503906 -17.015625 3.609375 -17.050781 3.734375 -17.09375 C 3.859375 -17.132812 3.960938 -17.15625 4.046875 -17.15625 C 4.117188 -17.15625 4.179688 -17.117188 4.234375 -17.046875 C 4.285156 -16.984375 4.3125 -16.914062 4.3125 -16.84375 C 4.3125 -16.8125 4.296875 -16.765625 4.265625 -16.703125 C 4.066406 -16.222656 3.921875 -15.722656 3.828125 -15.203125 C 3.734375 -14.679688 3.671875 -14.15625 3.640625 -13.625 C 3.609375 -13.09375 3.585938 -12.554688 3.578125 -12.015625 C 3.566406 -11.484375 3.5625 -10.960938 3.5625 -10.453125 C 3.5625 -10.097656 3.546875 -9.742188 3.515625 -9.390625 C 3.484375 -9.046875 3.476562 -8.695312 3.5 -8.34375 C 3.59375 -8.425781 3.691406 -8.488281 3.796875 -8.53125 C 3.910156 -8.582031 4.023438 -8.640625 4.140625 -8.703125 C 4.628906 -8.960938 5.160156 -9.21875 5.734375 -9.46875 C 6.316406 -9.726562 6.882812 -9.859375 7.4375 -9.859375 C 8.03125 -9.859375 8.515625 -9.722656 8.890625 -9.453125 C 9.265625 -9.191406 9.554688 -8.851562 9.765625 -8.4375 C 9.984375 -8.03125 10.128906 -7.570312 10.203125 -7.0625 C 10.273438 -6.550781 10.3125 -6.054688 10.3125 -5.578125 C 10.3125 -5.253906 10.300781 -4.90625 10.28125 -4.53125 C 10.269531 -4.15625 10.25 -3.769531 10.21875 -3.375 C 10.1875 -2.988281 10.144531 -2.601562 10.09375 -2.21875 C 10.039062 -1.84375 9.984375 -1.503906 9.921875 -1.203125 Z M 10.09375 -1.25 "/></g></g></g><g fill="#000000" fill-opacity="1"><g transform="translate(178.146392, 190.336981)"><g><path d="M 10.140625 -3.078125 C 10.140625 -2.953125 10.035156 -2.71875 9.828125 -2.375 C 9.617188 -2.03125 9.367188 -1.671875 9.078125 -1.296875 C 8.796875 -0.921875 8.515625 -0.582031 8.234375 -0.28125 C 7.960938 0.0195312 7.753906 0.191406 7.609375 0.234375 C 7.335938 0.316406 6.992188 0.367188 6.578125 0.390625 C 6.160156 0.421875 5.800781 0.4375 5.5 0.4375 C 4.019531 0.4375 2.878906 0.00390625 2.078125 -0.859375 C 1.285156 -1.722656 0.890625 -2.878906 0.890625 -4.328125 C 0.890625 -4.992188 0.992188 -5.671875 1.203125 -6.359375 C 1.421875 -7.046875 1.738281 -7.660156 2.15625 -8.203125 C 2.570312 -8.742188 3.070312 -9.1875 3.65625 -9.53125 C 4.25 -9.875 4.921875 -10.046875 5.671875 -10.046875 C 6.035156 -10.046875 6.390625 -9.988281 6.734375 -9.875 C 7.085938 -9.769531 7.398438 -9.613281 7.671875 -9.40625 C 7.941406 -9.195312 8.160156 -8.941406 8.328125 -8.640625 C 8.503906 -8.335938 8.59375 -7.984375 8.59375 -7.578125 C 8.59375 -7.210938 8.445312 -6.898438 8.15625 -6.640625 C 7.875 -6.390625 7.59375 -6.175781 7.3125 -6 C 7.039062 -5.820312 6.757812 -5.660156 6.46875 -5.515625 C 6.175781 -5.378906 5.878906 -5.25 5.578125 -5.125 C 5.253906 -4.988281 4.925781 -4.875 4.59375 -4.78125 C 4.257812 -4.6875 3.914062 -4.59375 3.5625 -4.5 C 3.445312 -4.46875 3.328125 -4.4375 3.203125 -4.40625 C 3.078125 -4.382812 2.957031 -4.351562 2.84375 -4.3125 C 2.925781 -3.84375 3.035156 -3.421875 3.171875 -3.046875 C 3.304688 -2.671875 3.550781 -2.328125 3.90625 -2.015625 C 4.207031 -1.742188 4.554688 -1.539062 4.953125 -1.40625 C 5.347656 -1.269531 5.753906 -1.203125 6.171875 -1.203125 C 6.890625 -1.203125 7.539062 -1.394531 8.125 -1.78125 C 8.71875 -2.175781 9.222656 -2.648438 9.640625 -3.203125 C 9.671875 -3.253906 9.703125 -3.296875 9.734375 -3.328125 C 9.765625 -3.367188 9.8125 -3.390625 9.875 -3.390625 C 9.957031 -3.390625 10.019531 -3.359375 10.0625 -3.296875 C 10.113281 -3.234375 10.140625 -3.160156 10.140625 -3.078125 Z M 6.4375 -7.75 C 6.4375 -8.144531 6.316406 -8.453125 6.078125 -8.671875 C 5.835938 -8.898438 5.523438 -9.015625 5.140625 -9.015625 C 4.710938 -9.015625 4.347656 -8.90625 4.046875 -8.6875 C 3.742188 -8.476562 3.492188 -8.207031 3.296875 -7.875 C 3.109375 -7.539062 2.96875 -7.171875 2.875 -6.765625 C 2.789062 -6.367188 2.75 -5.992188 2.75 -5.640625 L 2.75 -5.21875 C 2.769531 -5.21875 2.78125 -5.210938 2.78125 -5.203125 C 2.789062 -5.191406 2.804688 -5.1875 2.828125 -5.1875 C 2.960938 -5.1875 3.113281 -5.207031 3.28125 -5.25 C 3.457031 -5.289062 3.613281 -5.328125 3.75 -5.359375 C 4.039062 -5.410156 4.34375 -5.503906 4.65625 -5.640625 C 4.96875 -5.773438 5.253906 -5.941406 5.515625 -6.140625 C 5.773438 -6.335938 5.992188 -6.570312 6.171875 -6.84375 C 6.347656 -7.113281 6.4375 -7.414062 6.4375 -7.75 Z M 6.4375 -7.75 "/></g></g></g><g fill="#000000" fill-opacity="1"><g transform="translate(188.765102, 190.336981)"><g><path d="M 2.109375 0.4375 C 2.078125 0.394531 2.0625 0.351562 2.0625 0.3125 C 2.070312 0.226562 2.078125 0.132812 2.078125 0.03125 C 2.078125 -0.0507812 2.082031 -0.125 2.09375 -0.1875 C 2.101562 -0.25 2.113281 -0.320312 2.125 -0.40625 C 2.15625 -0.726562 2.175781 -1.046875 2.1875 -1.359375 C 2.207031 -1.679688 2.226562 -2.003906 2.25 -2.328125 C 2.257812 -2.660156 2.265625 -2.992188 2.265625 -3.328125 C 2.265625 -3.660156 2.265625 -3.992188 2.265625 -4.328125 C 2.265625 -4.648438 2.265625 -5.050781 2.265625 -5.53125 C 2.265625 -6.007812 2.21875 -6.46875 2.125 -6.90625 C 2.03125 -7.351562 1.859375 -7.738281 1.609375 -8.0625 C 1.367188 -8.382812 1 -8.546875 0.5 -8.546875 C 0.382812 -8.546875 0.28125 -8.53125 0.1875 -8.5 C 0.09375 -8.476562 0 -8.46875 -0.09375 -8.46875 C -0.175781 -8.46875 -0.234375 -8.503906 -0.265625 -8.578125 C -0.296875 -8.648438 -0.3125 -8.71875 -0.3125 -8.78125 C -0.3125 -8.90625 -0.226562 -8.988281 -0.0625 -9.03125 C 0.101562 -9.082031 0.242188 -9.125 0.359375 -9.15625 C 0.679688 -9.269531 1.007812 -9.378906 1.34375 -9.484375 C 1.675781 -9.585938 1.976562 -9.734375 2.25 -9.921875 C 2.28125 -9.941406 2.316406 -9.96875 2.359375 -10 C 2.410156 -10.03125 2.453125 -10.046875 2.484375 -10.046875 L 2.578125 -10.015625 C 2.609375 -9.984375 2.644531 -9.957031 2.6875 -9.9375 C 2.726562 -9.914062 2.773438 -9.890625 2.828125 -9.859375 C 3.066406 -9.734375 3.28125 -9.507812 3.46875 -9.1875 C 3.65625 -8.863281 3.789062 -8.578125 3.875 -8.328125 C 4.082031 -8.441406 4.351562 -8.597656 4.6875 -8.796875 C 5.019531 -8.992188 5.367188 -9.179688 5.734375 -9.359375 C 6.109375 -9.546875 6.472656 -9.707031 6.828125 -9.84375 C 7.191406 -9.976562 7.492188 -10.046875 7.734375 -10.046875 C 7.960938 -10.046875 8.195312 -10 8.4375 -9.90625 C 8.675781 -9.820312 8.894531 -9.703125 9.09375 -9.546875 C 9.300781 -9.390625 9.472656 -9.207031 9.609375 -9 C 9.753906 -8.800781 9.851562 -8.582031 9.90625 -8.34375 C 10.175781 -8.507812 10.484375 -8.691406 10.828125 -8.890625 C 11.179688 -9.085938 11.546875 -9.269531 11.921875 -9.4375 C 12.296875 -9.601562 12.664062 -9.742188 13.03125 -9.859375 C 13.40625 -9.984375 13.742188 -10.046875 14.046875 -10.046875 C 14.347656 -10.046875 14.640625 -9.976562 14.921875 -9.84375 C 15.210938 -9.707031 15.460938 -9.53125 15.671875 -9.3125 C 15.878906 -9.082031 16.046875 -8.816406 16.171875 -8.515625 C 16.296875 -8.222656 16.382812 -7.914062 16.4375 -7.59375 C 16.5 -7.28125 16.535156 -6.957031 16.546875 -6.625 C 16.566406 -6.300781 16.578125 -6 16.578125 -5.71875 C 16.578125 -5.175781 16.570312 -4.632812 16.5625 -4.09375 C 16.550781 -3.550781 16.53125 -3 16.5 -2.4375 C 16.488281 -2.28125 16.472656 -2.125 16.453125 -1.96875 C 16.441406 -1.820312 16.4375 -1.664062 16.4375 -1.5 C 16.4375 -1.28125 16.570312 -1.171875 16.84375 -1.171875 C 17.03125 -1.171875 17.210938 -1.203125 17.390625 -1.265625 C 17.578125 -1.328125 17.769531 -1.359375 17.96875 -1.359375 C 18.09375 -1.359375 18.15625 -1.304688 18.15625 -1.203125 C 18.15625 -1.117188 18.144531 -1.03125 18.125 -0.9375 C 18.113281 -0.851562 18.050781 -0.796875 17.9375 -0.765625 C 17.625 -0.671875 17.304688 -0.578125 16.984375 -0.484375 C 16.660156 -0.398438 16.34375 -0.296875 16.03125 -0.171875 C 15.914062 -0.117188 15.773438 -0.0546875 15.609375 0.015625 C 15.453125 0.0859375 15.289062 0.15625 15.125 0.21875 C 14.957031 0.289062 14.796875 0.351562 14.640625 0.40625 C 14.492188 0.46875 14.375 0.507812 14.28125 0.53125 C 14.195312 0.5 14.132812 0.460938 14.09375 0.421875 C 14.0625 0.390625 14.046875 0.328125 14.046875 0.234375 C 14.046875 0.140625 14.097656 -0.0078125 14.203125 -0.21875 C 14.316406 -0.425781 14.390625 -0.582031 14.421875 -0.6875 C 14.597656 -1.269531 14.703125 -1.851562 14.734375 -2.4375 C 14.765625 -3.03125 14.78125 -3.628906 14.78125 -4.234375 C 14.78125 -4.710938 14.757812 -5.21875 14.71875 -5.75 C 14.6875 -6.28125 14.554688 -6.765625 14.328125 -7.203125 C 14.140625 -7.566406 13.859375 -7.859375 13.484375 -8.078125 C 13.117188 -8.304688 12.726562 -8.421875 12.3125 -8.421875 C 12.0625 -8.421875 11.84375 -8.398438 11.65625 -8.359375 C 11.476562 -8.316406 11.304688 -8.257812 11.140625 -8.1875 C 10.984375 -8.113281 10.828125 -8.03125 10.671875 -7.9375 C 10.515625 -7.84375 10.332031 -7.738281 10.125 -7.625 C 10.09375 -7.59375 10.066406 -7.5625 10.046875 -7.53125 C 10.066406 -7.425781 10.078125 -7.320312 10.078125 -7.21875 C 10.078125 -7.113281 10.078125 -7.007812 10.078125 -6.90625 C 10.078125 -5.820312 10.0625 -4.742188 10.03125 -3.671875 C 10.007812 -2.609375 9.984375 -1.535156 9.953125 -0.453125 C 9.953125 -0.296875 9.890625 -0.1875 9.765625 -0.125 C 9.734375 -0.101562 9.632812 -0.0625 9.46875 0 C 9.3125 0.0507812 9.140625 0.109375 8.953125 0.171875 C 8.773438 0.234375 8.601562 0.285156 8.4375 0.328125 C 8.28125 0.378906 8.1875 0.40625 8.15625 0.40625 C 8.09375 0.40625 8.0625 0.359375 8.0625 0.265625 C 8.070312 0.171875 8.078125 0.109375 8.078125 0.078125 C 8.078125 -0.640625 8.109375 -1.34375 8.171875 -2.03125 C 8.242188 -2.726562 8.28125 -3.4375 8.28125 -4.15625 C 8.28125 -4.6875 8.265625 -5.210938 8.234375 -5.734375 C 8.210938 -6.265625 8.09375 -6.773438 7.875 -7.265625 C 7.707031 -7.640625 7.46875 -7.929688 7.15625 -8.140625 C 6.851562 -8.359375 6.5 -8.46875 6.09375 -8.46875 C 5.78125 -8.46875 5.453125 -8.382812 5.109375 -8.21875 C 4.773438 -8.0625 4.484375 -7.898438 4.234375 -7.734375 C 4.179688 -7.691406 4.140625 -7.660156 4.109375 -7.640625 C 4.078125 -7.617188 4.03125 -7.59375 3.96875 -7.5625 C 4.019531 -7.238281 4.046875 -6.910156 4.046875 -6.578125 C 4.046875 -6.242188 4.046875 -5.914062 4.046875 -5.59375 C 4.046875 -5.414062 4.035156 -5.050781 4.015625 -4.5 C 4.003906 -3.957031 3.984375 -3.378906 3.953125 -2.765625 C 3.921875 -2.160156 3.882812 -1.609375 3.84375 -1.109375 C 3.800781 -0.609375 3.765625 -0.316406 3.734375 -0.234375 C 3.734375 -0.222656 3.65625 -0.1875 3.5 -0.125 C 3.351562 -0.0625 3.191406 0.0078125 3.015625 0.09375 C 2.835938 0.175781 2.664062 0.25 2.5 0.3125 C 2.332031 0.375 2.222656 0.414062 2.171875 0.4375 Z M 2.109375 0.4375 "/></g></g></g><g fill="#000000" fill-opacity="1"><g transform="translate(207.371765, 190.336981)"><g><path d="M 4.1875 -14.609375 C 4.1875 -14.265625 4.054688 -13.972656 3.796875 -13.734375 C 3.546875 -13.492188 3.253906 -13.375 2.921875 -13.375 C 2.585938 -13.375 2.296875 -13.492188 2.046875 -13.734375 C 1.796875 -13.984375 1.671875 -14.273438 1.671875 -14.609375 C 1.671875 -14.960938 1.789062 -15.269531 2.03125 -15.53125 C 2.269531 -15.800781 2.570312 -15.9375 2.9375 -15.9375 C 3.3125 -15.9375 3.613281 -15.800781 3.84375 -15.53125 C 4.070312 -15.269531 4.1875 -14.960938 4.1875 -14.609375 Z M 1.984375 -5.484375 C 1.984375 -5.847656 1.984375 -6.234375 1.984375 -6.640625 C 1.984375 -7.046875 1.941406 -7.429688 1.859375 -7.796875 C 1.816406 -7.972656 1.742188 -8.128906 1.640625 -8.265625 C 1.546875 -8.398438 1.398438 -8.46875 1.203125 -8.46875 C 1.085938 -8.46875 0.972656 -8.453125 0.859375 -8.421875 C 0.742188 -8.390625 0.632812 -8.375 0.53125 -8.375 C 0.382812 -8.375 0.3125 -8.445312 0.3125 -8.59375 C 0.3125 -8.71875 0.332031 -8.804688 0.375 -8.859375 C 0.425781 -8.921875 0.488281 -8.960938 0.5625 -8.984375 C 0.632812 -9.003906 0.707031 -9.019531 0.78125 -9.03125 C 0.851562 -9.039062 0.910156 -9.066406 0.953125 -9.109375 C 1.097656 -9.140625 1.273438 -9.191406 1.484375 -9.265625 C 1.703125 -9.335938 1.925781 -9.414062 2.15625 -9.5 C 2.394531 -9.59375 2.617188 -9.679688 2.828125 -9.765625 C 3.035156 -9.859375 3.203125 -9.9375 3.328125 -10 C 3.421875 -10.0625 3.523438 -10.09375 3.640625 -10.09375 C 3.773438 -10.09375 3.867188 -10.023438 3.921875 -9.890625 C 3.972656 -9.753906 4 -9.628906 4 -9.515625 C 4 -9.171875 3.984375 -8.828125 3.953125 -8.484375 C 3.921875 -8.140625 3.90625 -7.785156 3.90625 -7.421875 C 3.90625 -6.890625 3.898438 -6.359375 3.890625 -5.828125 C 3.878906 -5.304688 3.863281 -4.785156 3.84375 -4.265625 C 3.84375 -3.847656 3.835938 -3.425781 3.828125 -3 C 3.828125 -2.582031 3.828125 -2.15625 3.828125 -1.71875 C 3.828125 -1.675781 3.828125 -1.582031 3.828125 -1.4375 C 3.828125 -1.289062 3.828125 -1.132812 3.828125 -0.96875 C 3.828125 -0.8125 3.820312 -0.65625 3.8125 -0.5 C 3.800781 -0.351562 3.789062 -0.257812 3.78125 -0.21875 C 3.75 -0.09375 3.632812 -0.00390625 3.4375 0.046875 C 3.25 0.109375 3.097656 0.15625 2.984375 0.1875 C 2.910156 0.21875 2.757812 0.269531 2.53125 0.34375 C 2.3125 0.414062 2.171875 0.453125 2.109375 0.453125 C 1.972656 0.453125 1.898438 0.390625 1.890625 0.265625 C 1.890625 0.148438 1.890625 0.046875 1.890625 -0.046875 C 1.890625 -0.554688 1.90625 -1.054688 1.9375 -1.546875 C 1.96875 -2.046875 1.984375 -2.550781 1.984375 -3.0625 Z M 1.984375 -5.484375 "/></g></g></g><g fill="#000000" fill-opacity="1"><g transform="translate(213.135533, 190.336981)"><g><path d="M 9.203125 -3.296875 C 9.203125 -2.628906 9.023438 -2.0625 8.671875 -1.59375 C 8.328125 -1.125 7.890625 -0.738281 7.359375 -0.4375 C 6.835938 -0.144531 6.257812 0.0664062 5.625 0.203125 C 5 0.335938 4.40625 0.40625 3.84375 0.40625 C 2.84375 0.40625 1.859375 0.257812 0.890625 -0.03125 C 0.785156 -0.0625 0.722656 -0.078125 0.703125 -0.078125 C 0.679688 -0.0859375 0.65625 -0.140625 0.625 -0.234375 C 0.59375 -0.367188 0.570312 -0.550781 0.5625 -0.78125 C 0.550781 -1.019531 0.546875 -1.207031 0.546875 -1.34375 C 0.546875 -1.46875 0.550781 -1.601562 0.5625 -1.75 C 0.570312 -1.894531 0.582031 -2.03125 0.59375 -2.15625 C 0.613281 -2.300781 0.632812 -2.414062 0.65625 -2.5 C 0.675781 -2.582031 0.769531 -2.625 0.9375 -2.625 C 1.070312 -2.625 1.160156 -2.585938 1.203125 -2.515625 C 1.242188 -2.453125 1.273438 -2.351562 1.296875 -2.21875 C 1.328125 -2.09375 1.347656 -1.96875 1.359375 -1.84375 C 1.378906 -1.726562 1.410156 -1.609375 1.453125 -1.484375 C 1.617188 -1.054688 1.90625 -0.796875 2.3125 -0.703125 C 2.71875 -0.617188 3.117188 -0.578125 3.515625 -0.578125 C 3.835938 -0.578125 4.207031 -0.617188 4.625 -0.703125 C 5.050781 -0.796875 5.453125 -0.925781 5.828125 -1.09375 C 6.210938 -1.269531 6.535156 -1.5 6.796875 -1.78125 C 7.066406 -2.070312 7.203125 -2.425781 7.203125 -2.84375 C 7.203125 -3.101562 7.132812 -3.300781 7 -3.4375 C 6.863281 -3.570312 6.695312 -3.671875 6.5 -3.734375 C 6.300781 -3.796875 6.082031 -3.832031 5.84375 -3.84375 C 5.613281 -3.863281 5.410156 -3.875 5.234375 -3.875 C 4.921875 -3.894531 4.609375 -3.914062 4.296875 -3.9375 C 3.984375 -3.957031 3.664062 -4.007812 3.34375 -4.09375 C 2.800781 -4.21875 2.347656 -4.476562 1.984375 -4.875 C 1.617188 -5.28125 1.4375 -5.769531 1.4375 -6.34375 C 1.4375 -6.882812 1.554688 -7.382812 1.796875 -7.84375 C 2.035156 -8.3125 2.34375 -8.703125 2.71875 -9.015625 C 3.101562 -9.335938 3.539062 -9.585938 4.03125 -9.765625 C 4.53125 -9.953125 5.046875 -10.046875 5.578125 -10.046875 C 5.921875 -10.046875 6.269531 -10.015625 6.625 -9.953125 C 6.976562 -9.890625 7.320312 -9.8125 7.65625 -9.71875 C 7.832031 -9.644531 7.921875 -9.5 7.921875 -9.28125 C 7.921875 -9.21875 7.90625 -9.128906 7.875 -9.015625 C 7.851562 -8.898438 7.828125 -8.789062 7.796875 -8.6875 C 7.765625 -8.59375 7.71875 -8.503906 7.65625 -8.421875 C 7.59375 -8.335938 7.53125 -8.296875 7.46875 -8.296875 C 7.382812 -8.296875 7.304688 -8.3125 7.234375 -8.34375 C 7.160156 -8.375 7.085938 -8.40625 7.015625 -8.4375 C 6.867188 -8.507812 6.695312 -8.566406 6.5 -8.609375 C 6.3125 -8.660156 6.109375 -8.703125 5.890625 -8.734375 C 5.679688 -8.773438 5.472656 -8.800781 5.265625 -8.8125 C 5.066406 -8.832031 4.890625 -8.84375 4.734375 -8.84375 C 4.492188 -8.84375 4.257812 -8.8125 4.03125 -8.75 C 3.8125 -8.6875 3.609375 -8.585938 3.421875 -8.453125 C 3.242188 -8.316406 3.097656 -8.148438 2.984375 -7.953125 C 2.878906 -7.765625 2.828125 -7.546875 2.828125 -7.296875 C 2.828125 -6.941406 2.921875 -6.671875 3.109375 -6.484375 C 3.296875 -6.296875 3.550781 -6.148438 3.875 -6.046875 C 4.195312 -5.953125 4.550781 -5.882812 4.9375 -5.84375 C 5.332031 -5.8125 5.726562 -5.773438 6.125 -5.734375 C 6.519531 -5.703125 6.894531 -5.660156 7.25 -5.609375 C 7.613281 -5.554688 7.925781 -5.457031 8.1875 -5.3125 C 8.53125 -5.101562 8.785156 -4.8125 8.953125 -4.4375 C 9.117188 -4.0625 9.203125 -3.679688 9.203125 -3.296875 Z M 9.203125 -3.296875 "/></g></g></g><g fill="#000000" fill-opacity="1"><g transform="translate(223.323751, 190.336981)"><g><path d="M 1.65625 -7.3125 C 1.65625 -7.488281 1.648438 -7.671875 1.640625 -7.859375 C 1.628906 -8.046875 1.625 -8.222656 1.625 -8.390625 C 1.59375 -8.421875 1.5625 -8.4375 1.53125 -8.4375 C 1.507812 -8.4375 1.484375 -8.445312 1.453125 -8.46875 C 1.410156 -8.46875 1.347656 -8.460938 1.265625 -8.453125 C 1.179688 -8.441406 1.097656 -8.445312 1.015625 -8.46875 C 0.941406 -8.488281 0.875 -8.507812 0.8125 -8.53125 C 0.75 -8.550781 0.71875 -8.601562 0.71875 -8.6875 C 0.71875 -8.71875 0.734375 -8.765625 0.765625 -8.828125 C 0.765625 -8.859375 0.835938 -8.945312 0.984375 -9.09375 C 1.140625 -9.25 1.328125 -9.425781 1.546875 -9.625 C 1.773438 -9.820312 2.019531 -10.035156 2.28125 -10.265625 C 2.539062 -10.503906 2.785156 -10.726562 3.015625 -10.9375 C 3.253906 -11.144531 3.453125 -11.316406 3.609375 -11.453125 C 3.765625 -11.585938 3.863281 -11.671875 3.90625 -11.703125 C 3.9375 -11.734375 3.984375 -11.773438 4.046875 -11.828125 C 4.109375 -11.878906 4.160156 -11.90625 4.203125 -11.90625 C 4.253906 -11.90625 4.300781 -11.878906 4.34375 -11.828125 C 4.394531 -11.785156 4.421875 -11.734375 4.421875 -11.671875 C 4.421875 -11.640625 4.414062 -11.609375 4.40625 -11.578125 C 4.269531 -11.273438 4.132812 -10.957031 4 -10.625 C 3.863281 -10.300781 3.796875 -9.972656 3.796875 -9.640625 L 3.828125 -9.609375 C 4.191406 -9.609375 4.5625 -9.613281 4.9375 -9.625 C 5.3125 -9.632812 5.679688 -9.640625 6.046875 -9.640625 L 7.375 -9.640625 C 7.4375 -9.640625 7.476562 -9.609375 7.5 -9.546875 C 7.519531 -9.484375 7.535156 -9.410156 7.546875 -9.328125 C 7.554688 -9.242188 7.554688 -9.160156 7.546875 -9.078125 C 7.535156 -9.003906 7.53125 -8.953125 7.53125 -8.921875 C 7.53125 -8.734375 7.484375 -8.632812 7.390625 -8.625 C 7.296875 -8.613281 7.160156 -8.609375 6.984375 -8.609375 C 6.734375 -8.609375 6.484375 -8.597656 6.234375 -8.578125 C 5.984375 -8.566406 5.734375 -8.5625 5.484375 -8.5625 L 3.90625 -8.5625 C 3.863281 -8.550781 3.820312 -8.546875 3.78125 -8.546875 C 3.75 -8.546875 3.707031 -8.535156 3.65625 -8.515625 C 3.625 -8.335938 3.601562 -8.171875 3.59375 -8.015625 C 3.59375 -7.867188 3.59375 -7.707031 3.59375 -7.53125 C 3.570312 -7.1875 3.546875 -6.84375 3.515625 -6.5 C 3.484375 -6.15625 3.46875 -5.804688 3.46875 -5.453125 C 3.46875 -5.023438 3.472656 -4.539062 3.484375 -4 C 3.492188 -3.46875 3.5625 -2.992188 3.6875 -2.578125 C 3.832031 -2.054688 4.101562 -1.644531 4.5 -1.34375 C 4.894531 -1.039062 5.375 -0.890625 5.9375 -0.890625 C 6.039062 -0.890625 6.171875 -0.898438 6.328125 -0.921875 C 6.492188 -0.941406 6.660156 -0.972656 6.828125 -1.015625 C 6.992188 -1.054688 7.15625 -1.101562 7.3125 -1.15625 C 7.476562 -1.21875 7.609375 -1.269531 7.703125 -1.3125 C 7.785156 -1.363281 7.84375 -1.390625 7.875 -1.390625 C 7.90625 -1.398438 7.957031 -1.414062 8.03125 -1.4375 C 8.050781 -1.4375 8.0625 -1.4375 8.0625 -1.4375 C 8.070312 -1.445312 8.085938 -1.453125 8.109375 -1.453125 C 8.191406 -1.453125 8.25 -1.40625 8.28125 -1.3125 C 8.3125 -1.21875 8.328125 -1.140625 8.328125 -1.078125 C 8.328125 -1.023438 8.3125 -0.972656 8.28125 -0.921875 C 8.25 -0.867188 8.203125 -0.828125 8.140625 -0.796875 C 7.816406 -0.648438 7.5 -0.492188 7.1875 -0.328125 C 6.875 -0.160156 6.550781 -0.0078125 6.21875 0.125 C 5.9375 0.21875 5.679688 0.28125 5.453125 0.3125 C 5.234375 0.34375 4.960938 0.359375 4.640625 0.359375 C 3.890625 0.359375 3.21875 0.195312 2.625 -0.125 C 2.582031 -0.15625 2.492188 -0.203125 2.359375 -0.265625 C 2.222656 -0.328125 2.140625 -0.375 2.109375 -0.40625 C 2.015625 -0.46875 1.929688 -0.53125 1.859375 -0.59375 C 1.796875 -0.644531 1.738281 -0.695312 1.6875 -0.75 C 1.632812 -0.8125 1.609375 -0.859375 1.609375 -0.890625 C 1.609375 -0.953125 1.59375 -1.019531 1.5625 -1.09375 C 1.539062 -1.164062 1.546875 -1.234375 1.578125 -1.296875 C 1.597656 -1.328125 1.609375 -1.484375 1.609375 -1.765625 C 1.617188 -2.054688 1.628906 -2.375 1.640625 -2.71875 C 1.648438 -3.0625 1.65625 -3.394531 1.65625 -3.71875 C 1.65625 -4.039062 1.65625 -4.257812 1.65625 -4.375 Z M 1.65625 -7.3125 "/></g></g></g></svg>