<svg xmlns="http://www.w3.org/2000/svg" xmlns:xlink="http://www.w3.org/1999/xlink" width="500" zoomAndPan="magnify" viewBox="0 0 375 374.999991" height="500" preserveAspectRatio="xMidYMid meet" version="1.0"><defs><g/><clipPath id="4ccf990de2"><path d="M 43.441406 19.308594 L 338.941406 19.308594 L 338.941406 314.808594 L 43.441406 314.808594 Z M 43.441406 19.308594 " clip-rule="nonzero"/></clipPath></defs><g clip-path="url(#4ccf990de2)"><path fill="#ffffff" d="M 328.316406 190.25 C 334.117188 190.25 338.863281 185.503906 338.863281 179.703125 L 338.863281 154.203125 C 338.863281 148.402344 334.117188 143.65625 328.316406 143.65625 L 317.367188 143.65625 C 311.566406 143.65625 305.429688 139.117188 303.71875 133.574219 L 294.375 110.890625 C 291.632812 105.777344 292.746094 98.242188 296.84375 94.144531 L 304.59375 86.390625 C 308.695312 82.289062 308.695312 75.578125 304.59375 71.476562 L 286.566406 53.445312 C 282.460938 49.34375 275.75 49.34375 271.648438 53.445312 L 263.898438 61.195312 C 259.796875 65.300781 252.253906 66.40625 247.148438 63.660156 L 224.460938 54.320312 C 218.917969 52.617188 214.382812 46.476562 214.382812 40.675781 L 214.382812 29.722656 C 214.382812 23.921875 209.636719 19.179688 203.835938 19.179688 L 178.335938 19.179688 C 172.539062 19.179688 167.792969 23.921875 167.792969 29.722656 L 167.792969 40.675781 C 167.792969 46.476562 163.253906 52.617188 157.714844 54.320312 L 135.027344 63.660156 C 129.917969 66.40625 122.378906 65.296875 118.28125 61.195312 L 110.53125 53.441406 C 106.425781 49.339844 99.71875 49.339844 95.613281 53.441406 L 77.585938 71.472656 C 73.480469 75.574219 73.480469 82.285156 77.585938 86.386719 L 85.339844 94.140625 C 89.441406 98.242188 90.546875 105.777344 87.808594 110.890625 L 78.464844 133.574219 C 76.757812 139.117188 70.617188 143.652344 64.816406 143.652344 L 53.871094 143.652344 C 48.070312 143.652344 43.324219 148.398438 43.324219 154.199219 L 43.324219 179.703125 C 43.324219 185.503906 48.070312 190.25 53.871094 190.25 L 64.816406 190.25 C 70.617188 190.25 76.757812 194.785156 78.464844 200.328125 L 87.808594 223.015625 C 90.554688 228.125 89.445312 235.664062 85.34375 239.761719 L 77.585938 247.515625 C 73.484375 251.617188 73.484375 258.328125 77.585938 262.429688 L 95.613281 280.460938 C 99.71875 284.5625 106.425781 284.558594 110.53125 280.460938 L 118.285156 272.703125 C 122.386719 268.605469 129.925781 267.496094 135.03125 270.242188 L 157.714844 279.585938 C 163.261719 281.289062 167.796875 287.425781 167.796875 293.230469 L 167.796875 304.179688 C 167.796875 309.980469 172.539062 314.726562 178.339844 314.726562 L 203.839844 314.726562 C 209.640625 314.726562 214.386719 309.980469 214.386719 304.179688 L 214.386719 293.226562 C 214.386719 287.425781 218.921875 281.289062 224.464844 279.582031 L 247.152344 270.242188 C 252.257812 267.496094 259.796875 268.601562 263.898438 272.703125 L 271.65625 280.460938 C 275.753906 284.5625 282.46875 284.558594 286.566406 280.460938 L 304.597656 262.429688 C 308.695312 258.332031 308.699219 251.617188 304.597656 247.515625 L 296.847656 239.761719 C 292.746094 235.660156 291.636719 228.121094 294.378906 223.011719 L 303.71875 200.328125 C 305.425781 194.785156 311.566406 190.25 317.371094 190.25 Z M 191.085938 227.746094 C 157.511719 227.746094 130.292969 200.527344 130.292969 166.953125 C 130.292969 133.375 157.511719 106.15625 191.085938 106.15625 C 224.664062 106.15625 251.886719 133.375 251.886719 166.953125 C 251.886719 200.527344 224.664062 227.746094 191.085938 227.746094 Z M 191.085938 227.746094 " fill-opacity="1" fill-rule="nonzero"/></g><g fill="#ffffff" fill-opacity="1"><g transform="translate(168.444392, 149.47962)"><g><path d="M 21.890625 -1.703125 C 21.890625 -1.628906 21.832031 -1.546875 21.71875 -1.453125 C 21.601562 -1.367188 21.460938 -1.269531 21.296875 -1.15625 C 21.128906 -1.050781 20.945312 -0.941406 20.75 -0.828125 C 20.550781 -0.710938 20.375 -0.585938 20.21875 -0.453125 C 19.875 -0.203125 19.597656 0.00390625 19.390625 0.171875 C 19.179688 0.347656 19.015625 0.488281 18.890625 0.59375 C 18.765625 0.695312 18.660156 0.773438 18.578125 0.828125 C 18.492188 0.890625 18.414062 0.921875 18.34375 0.921875 C 18.289062 0.921875 18.242188 0.914062 18.203125 0.90625 C 18.171875 0.894531 18.128906 0.863281 18.078125 0.8125 C 18.003906 0.738281 17.910156 0.582031 17.796875 0.34375 C 17.691406 0.113281 17.585938 -0.109375 17.484375 -0.328125 C 17.171875 -0.921875 16.90625 -1.445312 16.6875 -1.90625 C 16.476562 -2.363281 16.25 -2.851562 16 -3.375 C 15.707031 -3.988281 15.429688 -4.601562 15.171875 -5.21875 C 14.910156 -5.832031 14.648438 -6.445312 14.390625 -7.0625 C 14.117188 -7.082031 13.847656 -7.097656 13.578125 -7.109375 C 13.304688 -7.117188 13.039062 -7.125 12.78125 -7.125 C 12.613281 -7.125 12.289062 -7.117188 11.8125 -7.109375 C 11.332031 -7.097656 10.78125 -7.078125 10.15625 -7.046875 C 9.539062 -7.023438 8.894531 -6.984375 8.21875 -6.921875 C 7.539062 -6.867188 6.921875 -6.789062 6.359375 -6.6875 C 6.054688 -6.632812 5.742188 -6.554688 5.421875 -6.453125 C 5.109375 -6.359375 4.828125 -6.210938 4.578125 -6.015625 C 4.460938 -5.921875 4.332031 -5.804688 4.1875 -5.671875 C 4.050781 -5.535156 3.914062 -5.390625 3.78125 -5.234375 C 3.644531 -5.078125 3.515625 -4.925781 3.390625 -4.78125 C 3.273438 -4.644531 3.191406 -4.539062 3.140625 -4.46875 C 2.796875 -3.976562 2.425781 -3.46875 2.03125 -2.9375 C 1.632812 -2.40625 1.25 -1.890625 0.875 -1.390625 C 0.507812 -0.898438 0.164062 -0.445312 -0.15625 -0.03125 C -0.488281 0.382812 -0.757812 0.71875 -0.96875 0.96875 C -1.039062 1.039062 -1.140625 1.15625 -1.265625 1.3125 C -1.398438 1.476562 -1.53125 1.5625 -1.65625 1.5625 C -1.738281 1.5625 -1.8125 1.535156 -1.875 1.484375 C -1.9375 1.429688 -1.96875 1.359375 -1.96875 1.265625 C -1.96875 1.160156 -1.925781 1.023438 -1.84375 0.859375 C -1.769531 0.703125 -1.679688 0.546875 -1.578125 0.390625 C -1.484375 0.234375 -1.378906 0.0859375 -1.265625 -0.046875 C -1.160156 -0.179688 -1.082031 -0.289062 -1.03125 -0.375 C -0.488281 -1.132812 0.0234375 -1.890625 0.515625 -2.640625 C 1.015625 -3.398438 1.507812 -4.160156 2 -4.921875 C 3.25 -6.835938 4.460938 -8.765625 5.640625 -10.703125 C 6.828125 -12.640625 7.914062 -14.640625 8.90625 -16.703125 C 9.050781 -16.984375 9.179688 -17.300781 9.296875 -17.65625 C 9.410156 -18.007812 9.488281 -18.285156 9.53125 -18.484375 C 9.539062 -18.578125 9.554688 -18.671875 9.578125 -18.765625 C 9.597656 -18.867188 9.625 -18.960938 9.65625 -19.046875 C 9.71875 -19.191406 9.785156 -19.285156 9.859375 -19.328125 C 9.941406 -19.378906 10.054688 -19.453125 10.203125 -19.546875 C 10.367188 -19.628906 10.578125 -19.722656 10.828125 -19.828125 C 11.078125 -19.941406 11.285156 -20 11.453125 -20 C 11.554688 -20 11.628906 -19.984375 11.671875 -19.953125 C 11.722656 -19.929688 11.789062 -19.863281 11.875 -19.75 C 11.894531 -19.71875 11.925781 -19.648438 11.96875 -19.546875 C 12.019531 -19.453125 12.066406 -19.34375 12.109375 -19.21875 C 12.148438 -19.09375 12.191406 -18.960938 12.234375 -18.828125 C 12.285156 -18.703125 12.320312 -18.601562 12.34375 -18.53125 C 13.03125 -16.332031 13.785156 -14.207031 14.609375 -12.15625 C 15.191406 -10.707031 15.78125 -9.273438 16.375 -7.859375 C 16.96875 -6.441406 17.625 -5.050781 18.34375 -3.6875 C 18.457031 -3.46875 18.582031 -3.25 18.71875 -3.03125 C 18.863281 -2.8125 19.019531 -2.613281 19.1875 -2.4375 C 19.363281 -2.269531 19.5625 -2.128906 19.78125 -2.015625 C 20 -1.898438 20.242188 -1.84375 20.515625 -1.84375 C 20.785156 -1.84375 21 -1.878906 21.15625 -1.953125 C 21.320312 -2.035156 21.476562 -2.078125 21.625 -2.078125 C 21.726562 -2.078125 21.796875 -2.035156 21.828125 -1.953125 C 21.867188 -1.878906 21.890625 -1.796875 21.890625 -1.703125 Z M 13.75 -8.546875 C 13.164062 -9.742188 12.65625 -10.96875 12.21875 -12.21875 C 11.78125 -13.46875 11.367188 -14.726562 10.984375 -16 C 10.953125 -16.125 10.914062 -16.25 10.875 -16.375 C 10.84375 -16.5 10.78125 -16.609375 10.6875 -16.703125 C 10.65625 -16.679688 10.632812 -16.660156 10.625 -16.640625 C 10.613281 -16.617188 10.585938 -16.59375 10.546875 -16.5625 C 10.367188 -16.195312 10.195312 -15.828125 10.03125 -15.453125 C 9.875 -15.078125 9.695312 -14.695312 9.5 -14.3125 C 8.976562 -13.300781 8.410156 -12.316406 7.796875 -11.359375 C 7.179688 -10.410156 6.566406 -9.445312 5.953125 -8.46875 C 6.660156 -8.375 7.363281 -8.3125 8.0625 -8.28125 C 8.769531 -8.25 9.460938 -8.234375 10.140625 -8.234375 C 10.742188 -8.234375 11.347656 -8.242188 11.953125 -8.265625 C 12.566406 -8.296875 13.164062 -8.390625 13.75 -8.546875 Z M 13.75 -8.546875 "/></g></g></g><g fill="#ffffff" fill-opacity="1"><g transform="translate(189.988686, 149.47962)"><g><path d="M 15.046875 -13.984375 C 15.046875 -12.703125 14.6875 -11.546875 13.96875 -10.515625 C 13.257812 -9.492188 12.335938 -8.695312 11.203125 -8.125 C 10.535156 -7.78125 9.84375 -7.550781 9.125 -7.4375 C 8.414062 -7.332031 7.691406 -7.28125 6.953125 -7.28125 C 6.796875 -7.28125 6.609375 -7.285156 6.390625 -7.296875 C 6.171875 -7.316406 6.0625 -7.445312 6.0625 -7.6875 C 6.0625 -7.882812 6.113281 -8.023438 6.21875 -8.109375 C 6.332031 -8.191406 6.457031 -8.238281 6.59375 -8.25 C 6.738281 -8.269531 6.894531 -8.269531 7.0625 -8.25 C 7.238281 -8.238281 7.398438 -8.234375 7.546875 -8.234375 C 8.285156 -8.234375 8.945312 -8.367188 9.53125 -8.640625 C 10.125 -8.921875 10.625 -9.296875 11.03125 -9.765625 C 11.445312 -10.234375 11.765625 -10.785156 11.984375 -11.421875 C 12.203125 -12.054688 12.3125 -12.722656 12.3125 -13.421875 C 12.3125 -14.085938 12.21875 -14.734375 12.03125 -15.359375 C 11.851562 -15.984375 11.578125 -16.53125 11.203125 -17 C 10.835938 -17.476562 10.378906 -17.859375 9.828125 -18.140625 C 9.285156 -18.421875 8.648438 -18.5625 7.921875 -18.5625 C 7.640625 -18.5625 7.28125 -18.515625 6.84375 -18.421875 C 6.414062 -18.335938 6.082031 -18.210938 5.84375 -18.046875 C 5.644531 -17.898438 5.515625 -17.703125 5.453125 -17.453125 C 5.390625 -17.203125 5.347656 -16.96875 5.328125 -16.75 C 5.296875 -16.175781 5.273438 -15.585938 5.265625 -14.984375 C 5.253906 -14.390625 5.238281 -13.785156 5.21875 -13.171875 C 5.1875 -11.710938 5.15625 -10.265625 5.125 -8.828125 C 5.101562 -7.398438 5.09375 -5.957031 5.09375 -4.5 C 5.09375 -4.039062 5.09375 -3.582031 5.09375 -3.125 C 5.09375 -2.664062 5.128906 -2.210938 5.203125 -1.765625 C 5.253906 -1.453125 5.320312 -1.238281 5.40625 -1.125 C 5.5 -1.007812 5.707031 -0.953125 6.03125 -0.953125 C 6.425781 -0.953125 6.800781 -1.003906 7.15625 -1.109375 C 7.507812 -1.210938 7.820312 -1.265625 8.09375 -1.265625 C 8.289062 -1.265625 8.390625 -1.140625 8.390625 -0.890625 C 8.390625 -0.742188 8.359375 -0.648438 8.296875 -0.609375 C 8.234375 -0.578125 8.15625 -0.546875 8.0625 -0.515625 C 7.914062 -0.472656 7.757812 -0.445312 7.59375 -0.4375 C 7.4375 -0.4375 7.28125 -0.414062 7.125 -0.375 C 6.832031 -0.320312 6.550781 -0.265625 6.28125 -0.203125 C 6.007812 -0.140625 5.726562 -0.0703125 5.4375 0 C 5.039062 0.09375 4.648438 0.195312 4.265625 0.3125 C 3.890625 0.425781 3.515625 0.554688 3.140625 0.703125 C 3.015625 0.734375 2.828125 0.800781 2.578125 0.90625 C 2.335938 1.007812 2.15625 1.0625 2.03125 1.0625 C 1.863281 1.0625 1.78125 0.976562 1.78125 0.8125 C 1.78125 0.71875 1.8125 0.628906 1.875 0.546875 C 1.9375 0.472656 2 0.410156 2.0625 0.359375 C 2.238281 0.140625 2.351562 -0.0820312 2.40625 -0.3125 C 2.457031 -0.539062 2.503906 -0.78125 2.546875 -1.03125 C 2.578125 -1.351562 2.601562 -1.675781 2.625 -2 C 2.644531 -2.320312 2.660156 -2.648438 2.671875 -2.984375 C 2.734375 -4.398438 2.800781 -5.816406 2.875 -7.234375 C 2.945312 -8.648438 2.988281 -10.0625 3 -11.46875 C 3 -12.15625 2.984375 -12.832031 2.953125 -13.5 C 2.929688 -14.164062 2.90625 -14.84375 2.875 -15.53125 C 2.875 -15.601562 2.875 -15.75 2.875 -15.96875 C 2.875 -16.195312 2.867188 -16.425781 2.859375 -16.65625 C 2.847656 -16.894531 2.8125 -17.101562 2.75 -17.28125 C 2.695312 -17.46875 2.609375 -17.5625 2.484375 -17.5625 C 2.285156 -17.5625 2.070312 -17.523438 1.84375 -17.453125 C 1.625 -17.378906 1.398438 -17.296875 1.171875 -17.203125 C 0.953125 -17.117188 0.742188 -17.039062 0.546875 -16.96875 C 0.359375 -16.894531 0.210938 -16.859375 0.109375 -16.859375 C -0.0351562 -16.859375 -0.109375 -16.945312 -0.109375 -17.125 C -0.109375 -17.3125 -0.0195312 -17.445312 0.15625 -17.53125 C 0.46875 -17.71875 0.804688 -17.882812 1.171875 -18.03125 C 1.546875 -18.1875 1.894531 -18.335938 2.21875 -18.484375 C 3.125 -18.847656 4.082031 -19.140625 5.09375 -19.359375 C 6.101562 -19.585938 7.09375 -19.703125 8.0625 -19.703125 C 8.644531 -19.703125 9.273438 -19.648438 9.953125 -19.546875 C 10.640625 -19.453125 11.253906 -19.285156 11.796875 -19.046875 C 12.828125 -18.597656 13.625 -17.921875 14.1875 -17.015625 C 14.757812 -16.117188 15.046875 -15.109375 15.046875 -13.984375 Z M 15.046875 -13.984375 "/></g></g></g><g fill="#ffffff" fill-opacity="1"><g transform="translate(205.524393, 149.47962)"><g><path d="M 2.84375 -16.75 C 2.84375 -16.914062 2.828125 -17.144531 2.796875 -17.4375 C 2.773438 -17.738281 2.71875 -17.960938 2.625 -18.109375 C 2.570312 -18.191406 2.453125 -18.285156 2.265625 -18.390625 C 2.085938 -18.503906 2 -18.597656 2 -18.671875 C 2 -18.796875 2.082031 -18.882812 2.25 -18.9375 C 2.425781 -19 2.5625 -19.046875 2.65625 -19.078125 C 2.726562 -19.097656 2.898438 -19.15625 3.171875 -19.25 C 3.453125 -19.351562 3.742188 -19.457031 4.046875 -19.5625 C 4.347656 -19.675781 4.617188 -19.769531 4.859375 -19.84375 C 5.097656 -19.925781 5.226562 -19.96875 5.25 -19.96875 C 5.34375 -19.96875 5.445312 -19.890625 5.5625 -19.734375 C 5.675781 -19.585938 5.734375 -19.457031 5.734375 -19.34375 C 5.734375 -19.289062 5.71875 -19.210938 5.6875 -19.109375 C 5.613281 -18.859375 5.566406 -18.597656 5.546875 -18.328125 C 5.523438 -18.066406 5.507812 -17.8125 5.5 -17.5625 C 5.476562 -17.195312 5.453125 -16.828125 5.421875 -16.453125 C 5.398438 -16.085938 5.378906 -15.726562 5.359375 -15.375 C 5.265625 -13.40625 5.191406 -11.453125 5.140625 -9.515625 C 5.085938 -7.585938 5.050781 -5.648438 5.03125 -3.703125 C 5.03125 -3.628906 5.03125 -3.492188 5.03125 -3.296875 C 5.03125 -3.097656 5.035156 -2.890625 5.046875 -2.671875 C 5.054688 -2.460938 5.066406 -2.265625 5.078125 -2.078125 C 5.097656 -1.898438 5.117188 -1.785156 5.140625 -1.734375 C 5.210938 -1.554688 5.359375 -1.46875 5.578125 -1.46875 C 5.898438 -1.46875 6.21875 -1.523438 6.53125 -1.640625 C 6.851562 -1.753906 7.113281 -1.8125 7.3125 -1.8125 C 7.414062 -1.8125 7.476562 -1.769531 7.5 -1.6875 C 7.53125 -1.601562 7.546875 -1.519531 7.546875 -1.4375 C 7.546875 -1.320312 7.519531 -1.242188 7.46875 -1.203125 C 7.414062 -1.160156 7.34375 -1.113281 7.25 -1.0625 C 6.800781 -0.894531 6.347656 -0.742188 5.890625 -0.609375 C 5.441406 -0.472656 4.992188 -0.320312 4.546875 -0.15625 C 4.203125 -0.03125 3.863281 0.0976562 3.53125 0.234375 C 3.195312 0.367188 2.859375 0.515625 2.515625 0.671875 C 2.421875 0.710938 2.347656 0.742188 2.296875 0.765625 C 2.242188 0.796875 2.171875 0.8125 2.078125 0.8125 C 1.992188 0.8125 1.929688 0.773438 1.890625 0.703125 C 1.859375 0.628906 1.84375 0.554688 1.84375 0.484375 C 1.84375 0.410156 1.863281 0.347656 1.90625 0.296875 C 1.945312 0.242188 1.988281 0.191406 2.03125 0.140625 C 2.207031 -0.078125 2.328125 -0.265625 2.390625 -0.421875 C 2.453125 -0.578125 2.503906 -0.796875 2.546875 -1.078125 C 2.617188 -1.640625 2.648438 -2.195312 2.640625 -2.75 C 2.628906 -3.3125 2.632812 -3.882812 2.65625 -4.46875 C 2.707031 -6.019531 2.75 -7.5625 2.78125 -9.09375 C 2.820312 -10.625 2.84375 -12.164062 2.84375 -13.71875 Z M 2.84375 -16.75 "/></g></g></g><g fill="#ffffff" fill-opacity="1"><g transform="translate(133.863877, 186.280902)"><g><path d="M 21.890625 -1.703125 C 21.890625 -1.628906 21.832031 -1.546875 21.71875 -1.453125 C 21.601562 -1.367188 21.460938 -1.269531 21.296875 -1.15625 C 21.128906 -1.050781 20.945312 -0.941406 20.75 -0.828125 C 20.550781 -0.710938 20.375 -0.585938 20.21875 -0.453125 C 19.875 -0.203125 19.597656 0.00390625 19.390625 0.171875 C 19.179688 0.347656 19.015625 0.488281 18.890625 0.59375 C 18.765625 0.695312 18.660156 0.773438 18.578125 0.828125 C 18.492188 0.890625 18.414062 0.921875 18.34375 0.921875 C 18.289062 0.921875 18.242188 0.914062 18.203125 0.90625 C 18.171875 0.894531 18.128906 0.863281 18.078125 0.8125 C 18.003906 0.738281 17.910156 0.582031 17.796875 0.34375 C 17.691406 0.113281 17.585938 -0.109375 17.484375 -0.328125 C 17.171875 -0.921875 16.90625 -1.445312 16.6875 -1.90625 C 16.476562 -2.363281 16.25 -2.851562 16 -3.375 C 15.707031 -3.988281 15.429688 -4.601562 15.171875 -5.21875 C 14.910156 -5.832031 14.648438 -6.445312 14.390625 -7.0625 C 14.117188 -7.082031 13.847656 -7.097656 13.578125 -7.109375 C 13.304688 -7.117188 13.039062 -7.125 12.78125 -7.125 C 12.613281 -7.125 12.289062 -7.117188 11.8125 -7.109375 C 11.332031 -7.097656 10.78125 -7.078125 10.15625 -7.046875 C 9.539062 -7.023438 8.894531 -6.984375 8.21875 -6.921875 C 7.539062 -6.867188 6.921875 -6.789062 6.359375 -6.6875 C 6.054688 -6.632812 5.742188 -6.554688 5.421875 -6.453125 C 5.109375 -6.359375 4.828125 -6.210938 4.578125 -6.015625 C 4.460938 -5.921875 4.332031 -5.804688 4.1875 -5.671875 C 4.050781 -5.535156 3.914062 -5.390625 3.78125 -5.234375 C 3.644531 -5.078125 3.515625 -4.925781 3.390625 -4.78125 C 3.273438 -4.644531 3.191406 -4.539062 3.140625 -4.46875 C 2.796875 -3.976562 2.425781 -3.46875 2.03125 -2.9375 C 1.632812 -2.40625 1.25 -1.890625 0.875 -1.390625 C 0.507812 -0.898438 0.164062 -0.445312 -0.15625 -0.03125 C -0.488281 0.382812 -0.757812 0.71875 -0.96875 0.96875 C -1.039062 1.039062 -1.140625 1.15625 -1.265625 1.3125 C -1.398438 1.476562 -1.53125 1.5625 -1.65625 1.5625 C -1.738281 1.5625 -1.8125 1.535156 -1.875 1.484375 C -1.9375 1.429688 -1.96875 1.359375 -1.96875 1.265625 C -1.96875 1.160156 -1.925781 1.023438 -1.84375 0.859375 C -1.769531 0.703125 -1.679688 0.546875 -1.578125 0.390625 C -1.484375 0.234375 -1.378906 0.0859375 -1.265625 -0.046875 C -1.160156 -0.179688 -1.082031 -0.289062 -1.03125 -0.375 C -0.488281 -1.132812 0.0234375 -1.890625 0.515625 -2.640625 C 1.015625 -3.398438 1.507812 -4.160156 2 -4.921875 C 3.25 -6.835938 4.460938 -8.765625 5.640625 -10.703125 C 6.828125 -12.640625 7.914062 -14.640625 8.90625 -16.703125 C 9.050781 -16.984375 9.179688 -17.300781 9.296875 -17.65625 C 9.410156 -18.007812 9.488281 -18.285156 9.53125 -18.484375 C 9.539062 -18.578125 9.554688 -18.671875 9.578125 -18.765625 C 9.597656 -18.867188 9.625 -18.960938 9.65625 -19.046875 C 9.71875 -19.191406 9.785156 -19.285156 9.859375 -19.328125 C 9.941406 -19.378906 10.054688 -19.453125 10.203125 -19.546875 C 10.367188 -19.628906 10.578125 -19.722656 10.828125 -19.828125 C 11.078125 -19.941406 11.285156 -20 11.453125 -20 C 11.554688 -20 11.628906 -19.984375 11.671875 -19.953125 C 11.722656 -19.929688 11.789062 -19.863281 11.875 -19.75 C 11.894531 -19.71875 11.925781 -19.648438 11.96875 -19.546875 C 12.019531 -19.453125 12.066406 -19.34375 12.109375 -19.21875 C 12.148438 -19.09375 12.191406 -18.960938 12.234375 -18.828125 C 12.285156 -18.703125 12.320312 -18.601562 12.34375 -18.53125 C 13.03125 -16.332031 13.785156 -14.207031 14.609375 -12.15625 C 15.191406 -10.707031 15.78125 -9.273438 16.375 -7.859375 C 16.96875 -6.441406 17.625 -5.050781 18.34375 -3.6875 C 18.457031 -3.46875 18.582031 -3.25 18.71875 -3.03125 C 18.863281 -2.8125 19.019531 -2.613281 19.1875 -2.4375 C 19.363281 -2.269531 19.5625 -2.128906 19.78125 -2.015625 C 20 -1.898438 20.242188 -1.84375 20.515625 -1.84375 C 20.785156 -1.84375 21 -1.878906 21.15625 -1.953125 C 21.320312 -2.035156 21.476562 -2.078125 21.625 -2.078125 C 21.726562 -2.078125 21.796875 -2.035156 21.828125 -1.953125 C 21.867188 -1.878906 21.890625 -1.796875 21.890625 -1.703125 Z M 13.75 -8.546875 C 13.164062 -9.742188 12.65625 -10.96875 12.21875 -12.21875 C 11.78125 -13.46875 11.367188 -14.726562 10.984375 -16 C 10.953125 -16.125 10.914062 -16.25 10.875 -16.375 C 10.84375 -16.5 10.78125 -16.609375 10.6875 -16.703125 C 10.65625 -16.679688 10.632812 -16.660156 10.625 -16.640625 C 10.613281 -16.617188 10.585938 -16.59375 10.546875 -16.5625 C 10.367188 -16.195312 10.195312 -15.828125 10.03125 -15.453125 C 9.875 -15.078125 9.695312 -14.695312 9.5 -14.3125 C 8.976562 -13.300781 8.410156 -12.316406 7.796875 -11.359375 C 7.179688 -10.410156 6.566406 -9.445312 5.953125 -8.46875 C 6.660156 -8.375 7.363281 -8.3125 8.0625 -8.28125 C 8.769531 -8.25 9.460938 -8.234375 10.140625 -8.234375 C 10.742188 -8.234375 11.347656 -8.242188 11.953125 -8.265625 C 12.566406 -8.296875 13.164062 -8.390625 13.75 -8.546875 Z M 13.75 -8.546875 "/></g></g></g><g fill="#ffffff" fill-opacity="1"><g transform="translate(155.408171, 186.280902)"><g><path d="M 4.578125 -1.25 C 4.722656 -1.25 4.878906 -1.265625 5.046875 -1.296875 C 5.210938 -1.335938 5.367188 -1.375 5.515625 -1.40625 C 5.554688 -1.425781 5.597656 -1.441406 5.640625 -1.453125 C 5.679688 -1.472656 5.722656 -1.484375 5.765625 -1.484375 C 5.890625 -1.484375 5.96875 -1.425781 6 -1.3125 C 6.039062 -1.207031 6.0625 -1.113281 6.0625 -1.03125 C 6.0625 -0.90625 6.003906 -0.820312 5.890625 -0.78125 C 5.785156 -0.75 5.691406 -0.710938 5.609375 -0.671875 C 5.585938 -0.660156 5.539062 -0.640625 5.46875 -0.609375 C 5.394531 -0.578125 5.316406 -0.539062 5.234375 -0.5 C 5.148438 -0.46875 5.066406 -0.4375 4.984375 -0.40625 C 4.910156 -0.382812 4.863281 -0.375 4.84375 -0.375 C 4.320312 -0.175781 3.863281 0.0234375 3.46875 0.234375 C 3.082031 0.441406 2.65625 0.6875 2.1875 0.96875 C 2.113281 1.007812 2.046875 1.050781 1.984375 1.09375 C 1.921875 1.132812 1.847656 1.15625 1.765625 1.15625 C 1.492188 1.15625 1.359375 1.03125 1.359375 0.78125 C 1.359375 0.632812 1.375 0.5 1.40625 0.375 C 1.445312 0.25 1.484375 0.113281 1.515625 -0.03125 C 1.546875 -0.25 1.570312 -0.46875 1.59375 -0.6875 C 1.613281 -0.914062 1.640625 -1.140625 1.671875 -1.359375 C 1.765625 -2.097656 1.820312 -2.84375 1.84375 -3.59375 C 1.863281 -4.351562 1.875 -5.113281 1.875 -5.875 C 1.875 -7.007812 1.878906 -8.144531 1.890625 -9.28125 C 1.910156 -10.414062 1.921875 -11.550781 1.921875 -12.6875 C 1.921875 -12.800781 1.914062 -13.132812 1.90625 -13.6875 C 1.894531 -14.25 1.882812 -14.851562 1.875 -15.5 C 1.875 -16.15625 1.863281 -16.75 1.84375 -17.28125 C 1.820312 -17.8125 1.800781 -18.101562 1.78125 -18.15625 L 1.78125 -18.265625 C 1.78125 -18.359375 1.835938 -18.425781 1.953125 -18.46875 C 2.078125 -18.507812 2.164062 -18.539062 2.21875 -18.5625 L 4.25 -19.046875 C 4.445312 -19.109375 4.640625 -19.175781 4.828125 -19.25 C 5.015625 -19.332031 5.207031 -19.375 5.40625 -19.375 C 5.519531 -19.375 5.59375 -19.332031 5.625 -19.25 C 5.664062 -19.175781 5.6875 -19.09375 5.6875 -19 C 5.6875 -18.90625 5.625 -18.820312 5.5 -18.75 C 5.382812 -18.675781 5.25 -18.582031 5.09375 -18.46875 C 4.945312 -18.351562 4.796875 -18.195312 4.640625 -18 C 4.484375 -17.800781 4.367188 -17.539062 4.296875 -17.21875 C 4.242188 -16.976562 4.203125 -16.691406 4.171875 -16.359375 C 4.148438 -16.023438 4.128906 -15.675781 4.109375 -15.3125 C 4.097656 -14.957031 4.085938 -14.601562 4.078125 -14.25 C 4.066406 -13.894531 4.0625 -13.59375 4.0625 -13.34375 C 4.019531 -12.28125 3.988281 -11.222656 3.96875 -10.171875 C 3.957031 -9.128906 3.953125 -8.078125 3.953125 -7.015625 L 3.953125 -2.703125 C 3.953125 -2.554688 3.957031 -2.421875 3.96875 -2.296875 C 3.976562 -2.171875 3.984375 -2.035156 3.984375 -1.890625 C 3.984375 -1.734375 4.007812 -1.585938 4.0625 -1.453125 C 4.113281 -1.316406 4.238281 -1.25 4.4375 -1.25 Z M 4.578125 -1.25 "/></g></g></g><g fill="#ffffff" fill-opacity="1"><g transform="translate(161.931016, 186.280902)"><g><path d="M 11.09375 -3.546875 C 11.09375 -3.492188 11.066406 -3.421875 11.015625 -3.328125 C 10.972656 -3.234375 10.925781 -3.140625 10.875 -3.046875 C 10.820312 -2.960938 10.769531 -2.875 10.71875 -2.78125 C 10.675781 -2.695312 10.648438 -2.632812 10.640625 -2.59375 C 10.515625 -2.363281 10.359375 -2.109375 10.171875 -1.828125 C 9.992188 -1.546875 9.800781 -1.269531 9.59375 -1 C 9.382812 -0.726562 9.15625 -0.484375 8.90625 -0.265625 C 8.664062 -0.0546875 8.410156 0.09375 8.140625 0.1875 C 7.890625 0.28125 7.601562 0.34375 7.28125 0.375 C 6.957031 0.414062 6.660156 0.4375 6.390625 0.4375 C 5.867188 0.4375 5.300781 0.394531 4.6875 0.3125 C 4.082031 0.226562 3.546875 0.0507812 3.078125 -0.21875 C 2.273438 -0.6875 1.71875 -1.34375 1.40625 -2.1875 C 1.101562 -3.039062 0.953125 -3.910156 0.953125 -4.796875 C 0.953125 -5.609375 1.070312 -6.410156 1.3125 -7.203125 C 1.550781 -7.992188 1.90625 -8.695312 2.375 -9.3125 C 2.84375 -9.925781 3.425781 -10.421875 4.125 -10.796875 C 4.820312 -11.171875 5.617188 -11.359375 6.515625 -11.359375 C 6.953125 -11.359375 7.375 -11.316406 7.78125 -11.234375 C 8.1875 -11.160156 8.597656 -11.050781 9.015625 -10.90625 C 9.191406 -10.851562 9.359375 -10.796875 9.515625 -10.734375 C 9.679688 -10.671875 9.859375 -10.601562 10.046875 -10.53125 C 10.128906 -10.488281 10.171875 -10.414062 10.171875 -10.3125 C 10.171875 -10.257812 10.144531 -10.15625 10.09375 -10 C 10.039062 -9.84375 9.976562 -9.675781 9.90625 -9.5 C 9.832031 -9.320312 9.765625 -9.148438 9.703125 -8.984375 C 9.640625 -8.816406 9.597656 -8.707031 9.578125 -8.65625 C 9.546875 -8.601562 9.515625 -8.535156 9.484375 -8.453125 C 9.453125 -8.367188 9.40625 -8.328125 9.34375 -8.328125 C 9.269531 -8.328125 9.195312 -8.34375 9.125 -8.375 C 9.050781 -8.414062 8.988281 -8.457031 8.9375 -8.5 C 8.40625 -8.800781 7.820312 -9.066406 7.1875 -9.296875 C 6.5625 -9.523438 5.929688 -9.640625 5.296875 -9.640625 C 4.816406 -9.640625 4.410156 -9.539062 4.078125 -9.34375 C 3.742188 -9.15625 3.46875 -8.90625 3.25 -8.59375 C 3.03125 -8.28125 2.867188 -7.921875 2.765625 -7.515625 C 2.671875 -7.117188 2.625 -6.707031 2.625 -6.28125 C 2.625 -5.6875 2.707031 -5.101562 2.875 -4.53125 C 3.050781 -3.96875 3.304688 -3.460938 3.640625 -3.015625 C 3.972656 -2.578125 4.390625 -2.222656 4.890625 -1.953125 C 5.398438 -1.679688 5.988281 -1.546875 6.65625 -1.546875 C 7.4375 -1.546875 8.0625 -1.660156 8.53125 -1.890625 C 9.007812 -2.128906 9.390625 -2.390625 9.671875 -2.671875 C 9.953125 -2.960938 10.164062 -3.222656 10.3125 -3.453125 C 10.457031 -3.691406 10.59375 -3.8125 10.71875 -3.8125 C 10.8125 -3.8125 10.894531 -3.789062 10.96875 -3.75 C 11.050781 -3.707031 11.09375 -3.640625 11.09375 -3.546875 Z M 11.09375 -3.546875 "/></g></g></g><g fill="#ffffff" fill-opacity="1"><g transform="translate(173.948191, 186.280902)"><g><path d="M 11.421875 -1.40625 C 11.472656 -1.425781 11.566406 -1.460938 11.703125 -1.515625 C 11.835938 -1.566406 11.984375 -1.617188 12.140625 -1.671875 C 12.296875 -1.734375 12.4375 -1.785156 12.5625 -1.828125 C 12.6875 -1.867188 12.773438 -1.890625 12.828125 -1.890625 C 12.921875 -1.890625 13 -1.859375 13.0625 -1.796875 C 13.125 -1.734375 13.15625 -1.65625 13.15625 -1.5625 C 13.15625 -1.457031 13.128906 -1.378906 13.078125 -1.328125 C 13.035156 -1.285156 12.96875 -1.25 12.875 -1.21875 C 12.675781 -1.125 12.488281 -1.039062 12.3125 -0.96875 C 12.132812 -0.894531 11.945312 -0.816406 11.75 -0.734375 C 11.3125 -0.535156 10.867188 -0.335938 10.421875 -0.140625 C 9.984375 0.046875 9.550781 0.242188 9.125 0.453125 C 9.050781 0.492188 8.96875 0.535156 8.875 0.578125 C 8.78125 0.628906 8.691406 0.65625 8.609375 0.65625 C 8.515625 0.65625 8.441406 0.617188 8.390625 0.546875 C 8.347656 0.484375 8.328125 0.410156 8.328125 0.328125 C 8.328125 0.234375 8.378906 0.101562 8.484375 -0.0625 C 8.585938 -0.238281 8.65625 -0.367188 8.6875 -0.453125 C 9.101562 -1.253906 9.351562 -2.0625 9.4375 -2.875 C 9.53125 -3.6875 9.578125 -4.523438 9.578125 -5.390625 C 9.578125 -5.867188 9.535156 -6.359375 9.453125 -6.859375 C 9.378906 -7.359375 9.226562 -7.800781 9 -8.1875 C 8.769531 -8.570312 8.460938 -8.890625 8.078125 -9.140625 C 7.703125 -9.398438 7.21875 -9.53125 6.625 -9.53125 C 6.25 -9.53125 5.832031 -9.453125 5.375 -9.296875 C 4.925781 -9.140625 4.566406 -8.910156 4.296875 -8.609375 C 4.160156 -8.441406 4.054688 -8.242188 3.984375 -8.015625 C 3.921875 -7.796875 3.878906 -7.554688 3.859375 -7.296875 C 3.847656 -7.035156 3.84375 -6.773438 3.84375 -6.515625 C 3.84375 -6.265625 3.84375 -6.050781 3.84375 -5.875 C 3.84375 -5.726562 3.835938 -5.582031 3.828125 -5.4375 C 3.816406 -5.289062 3.8125 -5.144531 3.8125 -5 C 3.789062 -4.226562 3.773438 -3.457031 3.765625 -2.6875 C 3.765625 -1.925781 3.765625 -1.164062 3.765625 -0.40625 C 3.765625 -0.300781 3.710938 -0.222656 3.609375 -0.171875 C 3.515625 -0.128906 3.421875 -0.0859375 3.328125 -0.046875 C 3.296875 -0.0351562 3.195312 0 3.03125 0.0625 C 2.863281 0.125 2.6875 0.191406 2.5 0.265625 C 2.3125 0.335938 2.140625 0.40625 1.984375 0.46875 C 1.835938 0.53125 1.753906 0.5625 1.734375 0.5625 C 1.660156 0.5625 1.617188 0.535156 1.609375 0.484375 C 1.597656 0.429688 1.59375 0.390625 1.59375 0.359375 C 1.59375 0.117188 1.601562 -0.113281 1.625 -0.34375 C 1.644531 -0.582031 1.660156 -0.820312 1.671875 -1.0625 C 1.710938 -1.632812 1.726562 -2.21875 1.71875 -2.8125 C 1.707031 -3.40625 1.710938 -4 1.734375 -4.59375 C 1.765625 -5.769531 1.789062 -6.9375 1.8125 -8.09375 C 1.832031 -9.25 1.851562 -10.40625 1.875 -11.5625 C 1.882812 -12.300781 1.894531 -13.03125 1.90625 -13.75 C 1.914062 -14.46875 1.921875 -15.195312 1.921875 -15.9375 C 1.921875 -16.03125 1.921875 -16.15625 1.921875 -16.3125 C 1.921875 -16.476562 1.914062 -16.640625 1.90625 -16.796875 C 1.894531 -16.960938 1.867188 -17.117188 1.828125 -17.265625 C 1.785156 -17.410156 1.726562 -17.507812 1.65625 -17.5625 C 1.5625 -17.613281 1.460938 -17.644531 1.359375 -17.65625 C 1.265625 -17.664062 1.171875 -17.671875 1.078125 -17.671875 L 0.921875 -17.671875 C 0.867188 -17.671875 0.8125 -17.664062 0.75 -17.65625 C 0.695312 -17.644531 0.644531 -17.640625 0.59375 -17.640625 C 0.5625 -17.628906 0.507812 -17.625 0.4375 -17.625 C 0.3125 -17.625 0.203125 -17.644531 0.109375 -17.6875 C 0.015625 -17.726562 -0.03125 -17.820312 -0.03125 -17.96875 C -0.03125 -18.039062 0.00390625 -18.101562 0.078125 -18.15625 C 0.148438 -18.207031 0.226562 -18.25 0.3125 -18.28125 C 0.40625 -18.3125 0.5 -18.332031 0.59375 -18.34375 C 0.695312 -18.363281 0.78125 -18.382812 0.84375 -18.40625 C 1.363281 -18.53125 1.867188 -18.65625 2.359375 -18.78125 C 2.859375 -18.90625 3.363281 -19.050781 3.875 -19.21875 C 3.957031 -19.25 4.070312 -19.285156 4.21875 -19.328125 C 4.363281 -19.378906 4.484375 -19.40625 4.578125 -19.40625 C 4.660156 -19.40625 4.726562 -19.367188 4.78125 -19.296875 C 4.84375 -19.222656 4.875 -19.140625 4.875 -19.046875 C 4.875 -19.015625 4.851562 -18.960938 4.8125 -18.890625 C 4.601562 -18.347656 4.441406 -17.78125 4.328125 -17.1875 C 4.222656 -16.601562 4.148438 -16.007812 4.109375 -15.40625 C 4.078125 -14.800781 4.054688 -14.195312 4.046875 -13.59375 C 4.035156 -12.988281 4.03125 -12.398438 4.03125 -11.828125 C 4.03125 -11.429688 4.007812 -11.035156 3.96875 -10.640625 C 3.9375 -10.242188 3.929688 -9.84375 3.953125 -9.4375 C 4.054688 -9.53125 4.171875 -9.601562 4.296875 -9.65625 C 4.429688 -9.71875 4.5625 -9.78125 4.6875 -9.84375 C 5.238281 -10.132812 5.835938 -10.425781 6.484375 -10.71875 C 7.140625 -11.007812 7.785156 -11.15625 8.421875 -11.15625 C 9.085938 -11.15625 9.628906 -11.003906 10.046875 -10.703125 C 10.472656 -10.398438 10.804688 -10.015625 11.046875 -9.546875 C 11.296875 -9.078125 11.457031 -8.554688 11.53125 -7.984375 C 11.613281 -7.410156 11.65625 -6.851562 11.65625 -6.3125 C 11.65625 -5.945312 11.644531 -5.550781 11.625 -5.125 C 11.613281 -4.707031 11.585938 -4.273438 11.546875 -3.828125 C 11.515625 -3.390625 11.472656 -2.953125 11.421875 -2.515625 C 11.367188 -2.085938 11.304688 -1.703125 11.234375 -1.359375 Z M 11.421875 -1.40625 "/></g></g></g><g fill="#ffffff" fill-opacity="1"><g transform="translate(187.995286, 186.280902)"><g><path d="M 11.46875 -3.484375 C 11.46875 -3.347656 11.347656 -3.082031 11.109375 -2.6875 C 10.878906 -2.300781 10.601562 -1.894531 10.28125 -1.46875 C 9.957031 -1.050781 9.632812 -0.671875 9.3125 -0.328125 C 9 0.015625 8.765625 0.210938 8.609375 0.265625 C 8.296875 0.359375 7.90625 0.414062 7.4375 0.4375 C 6.96875 0.46875 6.5625 0.484375 6.21875 0.484375 C 4.539062 0.484375 3.25 0 2.34375 -0.96875 C 1.445312 -1.945312 1 -3.253906 1 -4.890625 C 1 -5.648438 1.117188 -6.414062 1.359375 -7.1875 C 1.609375 -7.96875 1.96875 -8.664062 2.4375 -9.28125 C 2.90625 -9.894531 3.472656 -10.394531 4.140625 -10.78125 C 4.804688 -11.164062 5.5625 -11.359375 6.40625 -11.359375 C 6.820312 -11.359375 7.226562 -11.296875 7.625 -11.171875 C 8.03125 -11.046875 8.382812 -10.863281 8.6875 -10.625 C 8.988281 -10.394531 9.234375 -10.109375 9.421875 -9.765625 C 9.617188 -9.421875 9.71875 -9.023438 9.71875 -8.578125 C 9.71875 -8.160156 9.550781 -7.804688 9.21875 -7.515625 C 8.894531 -7.234375 8.582031 -6.992188 8.28125 -6.796875 C 7.976562 -6.597656 7.65625 -6.414062 7.3125 -6.25 C 6.976562 -6.09375 6.644531 -5.941406 6.3125 -5.796875 C 5.945312 -5.648438 5.570312 -5.519531 5.1875 -5.40625 C 4.8125 -5.300781 4.425781 -5.195312 4.03125 -5.09375 C 3.90625 -5.050781 3.769531 -5.015625 3.625 -4.984375 C 3.476562 -4.960938 3.34375 -4.925781 3.21875 -4.875 C 3.3125 -4.351562 3.429688 -3.878906 3.578125 -3.453125 C 3.734375 -3.023438 4.007812 -2.628906 4.40625 -2.265625 C 4.75 -1.960938 5.144531 -1.734375 5.59375 -1.578125 C 6.050781 -1.429688 6.515625 -1.359375 6.984375 -1.359375 C 7.796875 -1.359375 8.535156 -1.578125 9.203125 -2.015625 C 9.867188 -2.453125 10.4375 -2.988281 10.90625 -3.625 C 10.9375 -3.675781 10.96875 -3.722656 11 -3.765625 C 11.039062 -3.816406 11.097656 -3.84375 11.171875 -3.84375 C 11.265625 -3.84375 11.335938 -3.804688 11.390625 -3.734375 C 11.441406 -3.660156 11.46875 -3.578125 11.46875 -3.484375 Z M 7.28125 -8.765625 C 7.28125 -9.210938 7.144531 -9.5625 6.875 -9.8125 C 6.601562 -10.070312 6.25 -10.203125 5.8125 -10.203125 C 5.332031 -10.203125 4.921875 -10.078125 4.578125 -9.828125 C 4.234375 -9.585938 3.953125 -9.273438 3.734375 -8.890625 C 3.515625 -8.515625 3.351562 -8.101562 3.25 -7.65625 C 3.15625 -7.207031 3.109375 -6.785156 3.109375 -6.390625 L 3.109375 -5.90625 C 3.128906 -5.90625 3.144531 -5.898438 3.15625 -5.890625 C 3.164062 -5.878906 3.175781 -5.875 3.1875 -5.875 C 3.351562 -5.875 3.53125 -5.894531 3.71875 -5.9375 C 3.90625 -5.988281 4.082031 -6.03125 4.25 -6.0625 C 4.570312 -6.113281 4.910156 -6.21875 5.265625 -6.375 C 5.617188 -6.53125 5.941406 -6.71875 6.234375 -6.9375 C 6.535156 -7.164062 6.785156 -7.429688 6.984375 -7.734375 C 7.179688 -8.046875 7.28125 -8.390625 7.28125 -8.765625 Z M 7.28125 -8.765625 "/></g></g></g><g fill="#ffffff" fill-opacity="1"><g transform="translate(200.012461, 186.280902)"><g><path d="M 2.375 0.484375 C 2.34375 0.453125 2.328125 0.410156 2.328125 0.359375 C 2.347656 0.265625 2.359375 0.15625 2.359375 0.03125 C 2.359375 -0.0625 2.359375 -0.144531 2.359375 -0.21875 C 2.367188 -0.289062 2.382812 -0.367188 2.40625 -0.453125 C 2.445312 -0.816406 2.472656 -1.175781 2.484375 -1.53125 C 2.503906 -1.894531 2.523438 -2.257812 2.546875 -2.625 C 2.566406 -3 2.578125 -3.375 2.578125 -3.75 C 2.578125 -4.132812 2.578125 -4.515625 2.578125 -4.890625 C 2.578125 -5.253906 2.578125 -5.707031 2.578125 -6.25 C 2.578125 -6.789062 2.519531 -7.3125 2.40625 -7.8125 C 2.300781 -8.320312 2.109375 -8.753906 1.828125 -9.109375 C 1.546875 -9.472656 1.125 -9.65625 0.5625 -9.65625 C 0.4375 -9.65625 0.316406 -9.640625 0.203125 -9.609375 C 0.0976562 -9.585938 -0.00390625 -9.578125 -0.109375 -9.578125 C -0.203125 -9.578125 -0.265625 -9.617188 -0.296875 -9.703125 C -0.335938 -9.785156 -0.359375 -9.863281 -0.359375 -9.9375 C -0.359375 -10.070312 -0.257812 -10.164062 -0.0625 -10.21875 C 0.125 -10.28125 0.28125 -10.328125 0.40625 -10.359375 C 0.769531 -10.484375 1.140625 -10.601562 1.515625 -10.71875 C 1.890625 -10.84375 2.234375 -11.015625 2.546875 -11.234375 C 2.578125 -11.253906 2.617188 -11.28125 2.671875 -11.3125 C 2.734375 -11.34375 2.78125 -11.359375 2.8125 -11.359375 L 2.921875 -11.34375 C 2.960938 -11.300781 3.003906 -11.265625 3.046875 -11.234375 C 3.085938 -11.210938 3.132812 -11.1875 3.1875 -11.15625 C 3.457031 -11.007812 3.703125 -10.753906 3.921875 -10.390625 C 4.140625 -10.023438 4.296875 -9.703125 4.390625 -9.421875 C 4.617188 -9.546875 4.921875 -9.71875 5.296875 -9.9375 C 5.679688 -10.164062 6.082031 -10.382812 6.5 -10.59375 C 6.914062 -10.800781 7.320312 -10.976562 7.71875 -11.125 C 8.125 -11.28125 8.460938 -11.359375 8.734375 -11.359375 C 9.003906 -11.359375 9.273438 -11.304688 9.546875 -11.203125 C 9.816406 -11.109375 10.066406 -10.972656 10.296875 -10.796875 C 10.523438 -10.617188 10.71875 -10.414062 10.875 -10.1875 C 11.039062 -9.957031 11.148438 -9.707031 11.203125 -9.4375 C 11.503906 -9.625 11.851562 -9.828125 12.25 -10.046875 C 12.65625 -10.273438 13.066406 -10.484375 13.484375 -10.671875 C 13.910156 -10.859375 14.332031 -11.019531 14.75 -11.15625 C 15.164062 -11.289062 15.546875 -11.359375 15.890625 -11.359375 C 16.234375 -11.359375 16.566406 -11.28125 16.890625 -11.125 C 17.210938 -10.976562 17.488281 -10.78125 17.71875 -10.53125 C 17.957031 -10.269531 18.148438 -9.972656 18.296875 -9.640625 C 18.441406 -9.304688 18.546875 -8.957031 18.609375 -8.59375 C 18.671875 -8.238281 18.707031 -7.875 18.71875 -7.5 C 18.738281 -7.132812 18.75 -6.789062 18.75 -6.46875 C 18.75 -5.851562 18.742188 -5.238281 18.734375 -4.625 C 18.734375 -4.007812 18.710938 -3.390625 18.671875 -2.765625 C 18.648438 -2.578125 18.628906 -2.394531 18.609375 -2.21875 C 18.597656 -2.050781 18.59375 -1.878906 18.59375 -1.703125 C 18.59375 -1.453125 18.742188 -1.328125 19.046875 -1.328125 C 19.265625 -1.328125 19.476562 -1.363281 19.6875 -1.4375 C 19.894531 -1.507812 20.109375 -1.546875 20.328125 -1.546875 C 20.472656 -1.546875 20.546875 -1.484375 20.546875 -1.359375 C 20.546875 -1.265625 20.535156 -1.164062 20.515625 -1.0625 C 20.492188 -0.96875 20.421875 -0.898438 20.296875 -0.859375 C 19.929688 -0.753906 19.566406 -0.648438 19.203125 -0.546875 C 18.847656 -0.453125 18.488281 -0.332031 18.125 -0.1875 C 18 -0.132812 17.847656 -0.0664062 17.671875 0.015625 C 17.492188 0.0976562 17.304688 0.175781 17.109375 0.25 C 16.921875 0.332031 16.738281 0.40625 16.5625 0.46875 C 16.394531 0.53125 16.257812 0.570312 16.15625 0.59375 C 16.0625 0.5625 15.992188 0.523438 15.953125 0.484375 C 15.910156 0.453125 15.890625 0.378906 15.890625 0.265625 C 15.890625 0.160156 15.953125 -0.00390625 16.078125 -0.234375 C 16.203125 -0.472656 16.28125 -0.65625 16.3125 -0.78125 C 16.507812 -1.4375 16.625 -2.097656 16.65625 -2.765625 C 16.695312 -3.429688 16.71875 -4.109375 16.71875 -4.796875 C 16.71875 -5.335938 16.695312 -5.910156 16.65625 -6.515625 C 16.613281 -7.117188 16.460938 -7.660156 16.203125 -8.140625 C 15.992188 -8.554688 15.679688 -8.890625 15.265625 -9.140625 C 14.847656 -9.398438 14.40625 -9.53125 13.9375 -9.53125 C 13.644531 -9.53125 13.394531 -9.503906 13.1875 -9.453125 C 12.976562 -9.410156 12.785156 -9.347656 12.609375 -9.265625 C 12.429688 -9.179688 12.25 -9.085938 12.0625 -8.984375 C 11.882812 -8.878906 11.679688 -8.765625 11.453125 -8.640625 C 11.410156 -8.597656 11.378906 -8.5625 11.359375 -8.53125 C 11.378906 -8.394531 11.390625 -8.269531 11.390625 -8.15625 C 11.390625 -8.039062 11.390625 -7.929688 11.390625 -7.828125 C 11.390625 -6.597656 11.375 -5.378906 11.34375 -4.171875 C 11.320312 -2.960938 11.296875 -1.742188 11.265625 -0.515625 C 11.265625 -0.335938 11.191406 -0.210938 11.046875 -0.140625 C 11.003906 -0.117188 10.894531 -0.078125 10.71875 -0.015625 C 10.539062 0.046875 10.347656 0.113281 10.140625 0.1875 C 9.929688 0.257812 9.734375 0.320312 9.546875 0.375 C 9.367188 0.425781 9.265625 0.453125 9.234375 0.453125 C 9.160156 0.453125 9.125 0.398438 9.125 0.296875 C 9.132812 0.191406 9.140625 0.117188 9.140625 0.078125 C 9.140625 -0.734375 9.175781 -1.53125 9.25 -2.3125 C 9.320312 -3.09375 9.359375 -3.890625 9.359375 -4.703125 C 9.359375 -5.304688 9.34375 -5.90625 9.3125 -6.5 C 9.289062 -7.09375 9.15625 -7.671875 8.90625 -8.234375 C 8.726562 -8.640625 8.460938 -8.960938 8.109375 -9.203125 C 7.753906 -9.453125 7.351562 -9.578125 6.90625 -9.578125 C 6.539062 -9.578125 6.164062 -9.484375 5.78125 -9.296875 C 5.40625 -9.117188 5.078125 -8.929688 4.796875 -8.734375 C 4.734375 -8.703125 4.679688 -8.671875 4.640625 -8.640625 C 4.609375 -8.617188 4.5625 -8.585938 4.5 -8.546875 C 4.550781 -8.191406 4.578125 -7.820312 4.578125 -7.4375 C 4.578125 -7.0625 4.578125 -6.691406 4.578125 -6.328125 C 4.578125 -6.128906 4.566406 -5.71875 4.546875 -5.09375 C 4.523438 -4.476562 4.492188 -3.828125 4.453125 -3.140625 C 4.421875 -2.453125 4.382812 -1.820312 4.34375 -1.25 C 4.300781 -0.6875 4.257812 -0.359375 4.21875 -0.265625 C 4.21875 -0.253906 4.128906 -0.210938 3.953125 -0.140625 C 3.785156 -0.0664062 3.601562 0.015625 3.40625 0.109375 C 3.207031 0.203125 3.015625 0.28125 2.828125 0.34375 C 2.640625 0.414062 2.519531 0.460938 2.46875 0.484375 Z M 2.375 0.484375 "/></g></g></g><g fill="#ffffff" fill-opacity="1"><g transform="translate(221.069588, 186.280902)"><g><path d="M 4.734375 -16.53125 C 4.734375 -16.132812 4.585938 -15.800781 4.296875 -15.53125 C 4.015625 -15.257812 3.679688 -15.125 3.296875 -15.125 C 2.921875 -15.125 2.59375 -15.265625 2.3125 -15.546875 C 2.03125 -15.828125 1.890625 -16.15625 1.890625 -16.53125 C 1.890625 -16.925781 2.023438 -17.273438 2.296875 -17.578125 C 2.566406 -17.878906 2.910156 -18.03125 3.328125 -18.03125 C 3.742188 -18.03125 4.082031 -17.878906 4.34375 -17.578125 C 4.601562 -17.273438 4.734375 -16.925781 4.734375 -16.53125 Z M 2.25 -6.203125 C 2.25 -6.609375 2.25 -7.039062 2.25 -7.5 C 2.25 -7.96875 2.203125 -8.410156 2.109375 -8.828125 C 2.054688 -9.023438 1.972656 -9.195312 1.859375 -9.34375 C 1.753906 -9.5 1.585938 -9.578125 1.359375 -9.578125 C 1.222656 -9.578125 1.09375 -9.554688 0.96875 -9.515625 C 0.84375 -9.484375 0.71875 -9.46875 0.59375 -9.46875 C 0.4375 -9.46875 0.359375 -9.550781 0.359375 -9.71875 C 0.359375 -9.863281 0.382812 -9.96875 0.4375 -10.03125 C 0.488281 -10.09375 0.550781 -10.132812 0.625 -10.15625 C 0.707031 -10.1875 0.789062 -10.207031 0.875 -10.21875 C 0.957031 -10.226562 1.023438 -10.257812 1.078125 -10.3125 C 1.242188 -10.34375 1.445312 -10.398438 1.6875 -10.484375 C 1.9375 -10.566406 2.191406 -10.65625 2.453125 -10.75 C 2.710938 -10.851562 2.957031 -10.953125 3.1875 -11.046875 C 3.425781 -11.148438 3.617188 -11.238281 3.765625 -11.3125 C 3.867188 -11.382812 3.984375 -11.421875 4.109375 -11.421875 C 4.273438 -11.421875 4.382812 -11.34375 4.4375 -11.1875 C 4.488281 -11.03125 4.515625 -10.890625 4.515625 -10.765625 C 4.515625 -10.367188 4.492188 -9.976562 4.453125 -9.59375 C 4.421875 -9.207031 4.40625 -8.804688 4.40625 -8.390625 C 4.40625 -7.796875 4.398438 -7.195312 4.390625 -6.59375 C 4.390625 -6 4.378906 -5.40625 4.359375 -4.8125 C 4.359375 -4.34375 4.351562 -3.867188 4.34375 -3.390625 C 4.332031 -2.910156 4.328125 -2.429688 4.328125 -1.953125 C 4.328125 -1.898438 4.328125 -1.789062 4.328125 -1.625 C 4.328125 -1.457031 4.328125 -1.285156 4.328125 -1.109375 C 4.328125 -0.929688 4.320312 -0.753906 4.3125 -0.578125 C 4.300781 -0.410156 4.289062 -0.300781 4.28125 -0.25 C 4.238281 -0.101562 4.109375 0 3.890625 0.0625 C 3.679688 0.125 3.507812 0.175781 3.375 0.21875 C 3.289062 0.25 3.117188 0.304688 2.859375 0.390625 C 2.609375 0.472656 2.445312 0.515625 2.375 0.515625 C 2.238281 0.515625 2.164062 0.445312 2.15625 0.3125 C 2.144531 0.175781 2.140625 0.0546875 2.140625 -0.046875 C 2.140625 -0.628906 2.15625 -1.195312 2.1875 -1.75 C 2.226562 -2.3125 2.25 -2.882812 2.25 -3.46875 Z M 2.25 -6.203125 "/></g></g></g><g fill="#ffffff" fill-opacity="1"><g transform="translate(227.592433, 186.280902)"><g><path d="M 10.421875 -3.734375 C 10.421875 -2.972656 10.222656 -2.328125 9.828125 -1.796875 C 9.429688 -1.265625 8.929688 -0.832031 8.328125 -0.5 C 7.734375 -0.164062 7.078125 0.0703125 6.359375 0.21875 C 5.648438 0.375 4.984375 0.453125 4.359375 0.453125 C 3.222656 0.453125 2.101562 0.289062 1 -0.03125 C 0.894531 -0.0625 0.828125 -0.0820312 0.796875 -0.09375 C 0.765625 -0.101562 0.734375 -0.160156 0.703125 -0.265625 C 0.671875 -0.410156 0.648438 -0.617188 0.640625 -0.890625 C 0.628906 -1.160156 0.625 -1.367188 0.625 -1.515625 C 0.625 -1.660156 0.628906 -1.8125 0.640625 -1.96875 C 0.648438 -2.132812 0.660156 -2.289062 0.671875 -2.4375 C 0.691406 -2.59375 0.710938 -2.722656 0.734375 -2.828125 C 0.765625 -2.929688 0.875 -2.984375 1.0625 -2.984375 C 1.21875 -2.984375 1.316406 -2.941406 1.359375 -2.859375 C 1.410156 -2.773438 1.445312 -2.660156 1.46875 -2.515625 C 1.5 -2.367188 1.519531 -2.226562 1.53125 -2.09375 C 1.550781 -1.957031 1.59375 -1.816406 1.65625 -1.671875 C 1.832031 -1.191406 2.148438 -0.898438 2.609375 -0.796875 C 3.066406 -0.703125 3.523438 -0.65625 3.984375 -0.65625 C 4.335938 -0.65625 4.753906 -0.703125 5.234375 -0.796875 C 5.710938 -0.898438 6.164062 -1.050781 6.59375 -1.25 C 7.03125 -1.445312 7.394531 -1.707031 7.6875 -2.03125 C 7.988281 -2.351562 8.140625 -2.75 8.140625 -3.21875 C 8.140625 -3.507812 8.0625 -3.726562 7.90625 -3.875 C 7.757812 -4.03125 7.570312 -4.144531 7.34375 -4.21875 C 7.125 -4.289062 6.878906 -4.335938 6.609375 -4.359375 C 6.347656 -4.378906 6.117188 -4.390625 5.921875 -4.390625 C 5.566406 -4.398438 5.210938 -4.421875 4.859375 -4.453125 C 4.503906 -4.484375 4.144531 -4.539062 3.78125 -4.625 C 3.175781 -4.769531 2.664062 -5.066406 2.25 -5.515625 C 1.832031 -5.972656 1.625 -6.523438 1.625 -7.171875 C 1.625 -7.785156 1.757812 -8.351562 2.03125 -8.875 C 2.300781 -9.394531 2.648438 -9.835938 3.078125 -10.203125 C 3.515625 -10.566406 4.007812 -10.847656 4.5625 -11.046875 C 5.125 -11.253906 5.707031 -11.359375 6.3125 -11.359375 C 6.707031 -11.359375 7.101562 -11.320312 7.5 -11.25 C 7.894531 -11.1875 8.28125 -11.097656 8.65625 -10.984375 C 8.851562 -10.910156 8.953125 -10.75 8.953125 -10.5 C 8.953125 -10.425781 8.9375 -10.328125 8.90625 -10.203125 C 8.882812 -10.078125 8.851562 -9.953125 8.8125 -9.828125 C 8.78125 -9.710938 8.726562 -9.609375 8.65625 -9.515625 C 8.582031 -9.429688 8.507812 -9.390625 8.4375 -9.390625 C 8.351562 -9.390625 8.269531 -9.40625 8.1875 -9.4375 C 8.101562 -9.476562 8.015625 -9.515625 7.921875 -9.546875 C 7.765625 -9.617188 7.578125 -9.679688 7.359375 -9.734375 C 7.140625 -9.796875 6.910156 -9.847656 6.671875 -9.890625 C 6.429688 -9.929688 6.195312 -9.960938 5.96875 -9.984375 C 5.738281 -10.003906 5.535156 -10.015625 5.359375 -10.015625 C 5.085938 -10.015625 4.820312 -9.976562 4.5625 -9.90625 C 4.3125 -9.832031 4.082031 -9.71875 3.875 -9.5625 C 3.675781 -9.414062 3.507812 -9.234375 3.375 -9.015625 C 3.25 -8.796875 3.1875 -8.539062 3.1875 -8.25 C 3.1875 -7.851562 3.296875 -7.546875 3.515625 -7.328125 C 3.734375 -7.117188 4.019531 -6.957031 4.375 -6.84375 C 4.738281 -6.738281 5.140625 -6.660156 5.578125 -6.609375 C 6.023438 -6.566406 6.472656 -6.523438 6.921875 -6.484375 C 7.378906 -6.453125 7.8125 -6.40625 8.21875 -6.34375 C 8.625 -6.28125 8.96875 -6.171875 9.25 -6.015625 C 9.644531 -5.773438 9.9375 -5.441406 10.125 -5.015625 C 10.320312 -4.597656 10.421875 -4.171875 10.421875 -3.734375 Z M 10.421875 -3.734375 "/></g></g></g><g fill="#ffffff" fill-opacity="1"><g transform="translate(239.122421, 186.280902)"><g><path d="M 1.875 -8.28125 C 1.875 -8.476562 1.867188 -8.679688 1.859375 -8.890625 C 1.847656 -9.097656 1.84375 -9.300781 1.84375 -9.5 C 1.800781 -9.53125 1.765625 -9.546875 1.734375 -9.546875 C 1.710938 -9.546875 1.6875 -9.554688 1.65625 -9.578125 C 1.59375 -9.578125 1.515625 -9.570312 1.421875 -9.5625 C 1.335938 -9.550781 1.25 -9.554688 1.15625 -9.578125 C 1.070312 -9.597656 0.992188 -9.617188 0.921875 -9.640625 C 0.847656 -9.671875 0.8125 -9.734375 0.8125 -9.828125 C 0.8125 -9.859375 0.828125 -9.910156 0.859375 -9.984375 C 0.859375 -10.023438 0.941406 -10.128906 1.109375 -10.296875 C 1.285156 -10.460938 1.5 -10.660156 1.75 -10.890625 C 2.007812 -11.117188 2.285156 -11.363281 2.578125 -11.625 C 2.878906 -11.882812 3.160156 -12.128906 3.421875 -12.359375 C 3.679688 -12.597656 3.898438 -12.789062 4.078125 -12.9375 C 4.265625 -13.09375 4.375 -13.191406 4.40625 -13.234375 C 4.445312 -13.265625 4.503906 -13.3125 4.578125 -13.375 C 4.648438 -13.445312 4.710938 -13.484375 4.765625 -13.484375 C 4.816406 -13.484375 4.867188 -13.453125 4.921875 -13.390625 C 4.972656 -13.335938 5 -13.273438 5 -13.203125 C 5 -13.171875 4.992188 -13.132812 4.984375 -13.09375 C 4.835938 -12.75 4.6875 -12.390625 4.53125 -12.015625 C 4.375 -11.648438 4.296875 -11.28125 4.296875 -10.90625 L 4.328125 -10.875 C 4.742188 -10.875 5.160156 -10.878906 5.578125 -10.890625 C 6.003906 -10.898438 6.425781 -10.90625 6.84375 -10.90625 L 8.328125 -10.90625 C 8.398438 -10.90625 8.453125 -10.867188 8.484375 -10.796875 C 8.515625 -10.722656 8.53125 -10.640625 8.53125 -10.546875 C 8.539062 -10.460938 8.539062 -10.375 8.53125 -10.28125 C 8.53125 -10.1875 8.53125 -10.125 8.53125 -10.09375 C 8.53125 -9.875 8.472656 -9.757812 8.359375 -9.75 C 8.253906 -9.75 8.101562 -9.75 7.90625 -9.75 C 7.613281 -9.75 7.328125 -9.738281 7.046875 -9.71875 C 6.765625 -9.695312 6.484375 -9.6875 6.203125 -9.6875 L 4.40625 -9.6875 C 4.375 -9.664062 4.332031 -9.65625 4.28125 -9.65625 C 4.238281 -9.65625 4.191406 -9.648438 4.140625 -9.640625 C 4.109375 -9.441406 4.085938 -9.253906 4.078125 -9.078125 C 4.066406 -8.910156 4.0625 -8.726562 4.0625 -8.53125 C 4.039062 -8.125 4.007812 -7.726562 3.96875 -7.34375 C 3.9375 -6.957031 3.921875 -6.566406 3.921875 -6.171875 C 3.921875 -5.679688 3.925781 -5.132812 3.9375 -4.53125 C 3.945312 -3.925781 4.023438 -3.390625 4.171875 -2.921875 C 4.328125 -2.328125 4.628906 -1.859375 5.078125 -1.515625 C 5.535156 -1.171875 6.082031 -1 6.71875 -1 C 6.84375 -1 6.992188 -1.007812 7.171875 -1.03125 C 7.347656 -1.0625 7.53125 -1.097656 7.71875 -1.140625 C 7.914062 -1.191406 8.101562 -1.25 8.28125 -1.3125 C 8.457031 -1.375 8.601562 -1.429688 8.71875 -1.484375 C 8.800781 -1.535156 8.859375 -1.566406 8.890625 -1.578125 C 8.929688 -1.585938 9 -1.601562 9.09375 -1.625 C 9.113281 -1.625 9.125 -1.628906 9.125 -1.640625 C 9.132812 -1.648438 9.148438 -1.65625 9.171875 -1.65625 C 9.265625 -1.65625 9.328125 -1.597656 9.359375 -1.484375 C 9.398438 -1.378906 9.421875 -1.289062 9.421875 -1.21875 C 9.421875 -1.164062 9.398438 -1.109375 9.359375 -1.046875 C 9.328125 -0.984375 9.273438 -0.929688 9.203125 -0.890625 C 8.835938 -0.734375 8.476562 -0.554688 8.125 -0.359375 C 7.78125 -0.171875 7.414062 -0.00390625 7.03125 0.140625 C 6.707031 0.242188 6.421875 0.3125 6.171875 0.34375 C 5.921875 0.382812 5.613281 0.40625 5.25 0.40625 C 4.40625 0.40625 3.648438 0.222656 2.984375 -0.140625 C 2.921875 -0.171875 2.8125 -0.222656 2.65625 -0.296875 C 2.507812 -0.367188 2.414062 -0.421875 2.375 -0.453125 C 2.269531 -0.523438 2.179688 -0.597656 2.109375 -0.671875 C 2.035156 -0.722656 1.96875 -0.78125 1.90625 -0.84375 C 1.84375 -0.914062 1.8125 -0.96875 1.8125 -1 C 1.8125 -1.070312 1.796875 -1.148438 1.765625 -1.234375 C 1.742188 -1.316406 1.75 -1.394531 1.78125 -1.46875 C 1.800781 -1.5 1.816406 -1.675781 1.828125 -2 C 1.835938 -2.320312 1.847656 -2.675781 1.859375 -3.0625 C 1.867188 -3.457031 1.875 -3.835938 1.875 -4.203125 C 1.875 -4.578125 1.875 -4.828125 1.875 -4.953125 Z M 1.875 -8.28125 "/></g></g></g></svg>