<svg xmlns="http://www.w3.org/2000/svg" xmlns:xlink="http://www.w3.org/1999/xlink" width="500" zoomAndPan="magnify" viewBox="0 0 375 374.999991" height="500" preserveAspectRatio="xMidYMid meet" version="1.0"><defs><g/></defs><g fill="#000000" fill-opacity="1"><g transform="translate(68.455078, 199.124987)"><g><path d="M 29.9375 -2.328125 C 29.9375 -2.234375 29.851562 -2.125 29.6875 -2 C 29.53125 -1.875 29.335938 -1.738281 29.109375 -1.59375 C 28.890625 -1.445312 28.644531 -1.289062 28.375 -1.125 C 28.101562 -0.96875 27.859375 -0.800781 27.640625 -0.625 C 27.171875 -0.28125 26.789062 0.00390625 26.5 0.234375 C 26.21875 0.472656 25.988281 0.664062 25.8125 0.8125 C 25.644531 0.957031 25.503906 1.066406 25.390625 1.140625 C 25.285156 1.222656 25.1875 1.265625 25.09375 1.265625 C 25.007812 1.265625 24.941406 1.253906 24.890625 1.234375 C 24.847656 1.222656 24.789062 1.179688 24.71875 1.109375 C 24.613281 1.015625 24.488281 0.804688 24.34375 0.484375 C 24.195312 0.160156 24.050781 -0.144531 23.90625 -0.4375 C 23.476562 -1.257812 23.117188 -1.984375 22.828125 -2.609375 C 22.535156 -3.234375 22.210938 -3.90625 21.859375 -4.625 C 21.472656 -5.46875 21.097656 -6.304688 20.734375 -7.140625 C 20.378906 -7.984375 20.03125 -8.820312 19.6875 -9.65625 C 19.3125 -9.675781 18.9375 -9.691406 18.5625 -9.703125 C 18.195312 -9.722656 17.832031 -9.734375 17.46875 -9.734375 C 17.238281 -9.734375 16.796875 -9.722656 16.140625 -9.703125 C 15.492188 -9.691406 14.742188 -9.664062 13.890625 -9.625 C 13.035156 -9.59375 12.144531 -9.539062 11.21875 -9.46875 C 10.300781 -9.394531 9.457031 -9.285156 8.6875 -9.140625 C 8.269531 -9.066406 7.84375 -8.960938 7.40625 -8.828125 C 6.976562 -8.691406 6.59375 -8.488281 6.25 -8.21875 C 6.101562 -8.09375 5.929688 -7.9375 5.734375 -7.75 C 5.535156 -7.5625 5.34375 -7.363281 5.15625 -7.15625 C 4.976562 -6.945312 4.804688 -6.742188 4.640625 -6.546875 C 4.484375 -6.347656 4.367188 -6.203125 4.296875 -6.109375 C 3.828125 -5.441406 3.320312 -4.742188 2.78125 -4.015625 C 2.238281 -3.285156 1.710938 -2.582031 1.203125 -1.90625 C 0.691406 -1.226562 0.21875 -0.601562 -0.21875 -0.03125 C -0.664062 0.53125 -1.035156 0.984375 -1.328125 1.328125 C -1.429688 1.429688 -1.566406 1.59375 -1.734375 1.8125 C -1.910156 2.03125 -2.082031 2.140625 -2.25 2.140625 C -2.375 2.140625 -2.476562 2.101562 -2.5625 2.03125 C -2.65625 1.957031 -2.703125 1.859375 -2.703125 1.734375 C -2.703125 1.585938 -2.644531 1.398438 -2.53125 1.171875 C -2.425781 0.953125 -2.304688 0.738281 -2.171875 0.53125 C -2.035156 0.320312 -1.890625 0.128906 -1.734375 -0.046875 C -1.585938 -0.234375 -1.476562 -0.390625 -1.40625 -0.515625 C -0.664062 -1.554688 0.0390625 -2.59375 0.71875 -3.625 C 1.394531 -4.664062 2.066406 -5.703125 2.734375 -6.734375 C 4.441406 -9.347656 6.101562 -11.976562 7.71875 -14.625 C 9.332031 -17.28125 10.816406 -20.015625 12.171875 -22.828125 C 12.367188 -23.222656 12.546875 -23.660156 12.703125 -24.140625 C 12.867188 -24.617188 12.976562 -24.992188 13.03125 -25.265625 C 13.050781 -25.390625 13.070312 -25.519531 13.09375 -25.65625 C 13.125 -25.789062 13.160156 -25.921875 13.203125 -26.046875 C 13.273438 -26.242188 13.367188 -26.375 13.484375 -26.4375 C 13.597656 -26.5 13.753906 -26.59375 13.953125 -26.71875 C 14.171875 -26.84375 14.453125 -26.976562 14.796875 -27.125 C 15.140625 -27.269531 15.425781 -27.34375 15.65625 -27.34375 C 15.800781 -27.34375 15.90625 -27.320312 15.96875 -27.28125 C 16.03125 -27.25 16.125 -27.160156 16.25 -27.015625 C 16.269531 -26.960938 16.3125 -26.867188 16.375 -26.734375 C 16.4375 -26.597656 16.5 -26.441406 16.5625 -26.265625 C 16.625 -26.097656 16.679688 -25.925781 16.734375 -25.75 C 16.796875 -25.582031 16.84375 -25.445312 16.875 -25.34375 C 17.8125 -22.332031 18.847656 -19.421875 19.984375 -16.609375 C 20.765625 -14.640625 21.5625 -12.6875 22.375 -10.75 C 23.195312 -8.8125 24.101562 -6.90625 25.09375 -5.03125 C 25.238281 -4.738281 25.410156 -4.441406 25.609375 -4.140625 C 25.804688 -3.847656 26.019531 -3.582031 26.25 -3.34375 C 26.488281 -3.113281 26.753906 -2.914062 27.046875 -2.75 C 27.335938 -2.59375 27.671875 -2.515625 28.046875 -2.515625 C 28.410156 -2.515625 28.703125 -2.566406 28.921875 -2.671875 C 29.148438 -2.785156 29.363281 -2.84375 29.5625 -2.84375 C 29.707031 -2.84375 29.804688 -2.785156 29.859375 -2.671875 C 29.910156 -2.566406 29.9375 -2.453125 29.9375 -2.328125 Z M 18.796875 -11.6875 C 18.003906 -13.320312 17.304688 -14.992188 16.703125 -16.703125 C 16.097656 -18.421875 15.535156 -20.140625 15.015625 -21.859375 C 14.972656 -22.035156 14.925781 -22.207031 14.875 -22.375 C 14.820312 -22.550781 14.734375 -22.703125 14.609375 -22.828125 C 14.566406 -22.804688 14.535156 -22.78125 14.515625 -22.75 C 14.503906 -22.726562 14.476562 -22.691406 14.4375 -22.640625 C 14.1875 -22.148438 13.945312 -21.644531 13.71875 -21.125 C 13.5 -20.601562 13.253906 -20.085938 12.984375 -19.578125 C 12.265625 -18.191406 11.484375 -16.84375 10.640625 -15.53125 C 9.804688 -14.226562 8.972656 -12.910156 8.140625 -11.578125 C 9.097656 -11.453125 10.054688 -11.363281 11.015625 -11.3125 C 11.984375 -11.269531 12.9375 -11.25 13.875 -11.25 C 14.6875 -11.25 15.507812 -11.265625 16.34375 -11.296875 C 17.1875 -11.335938 18.003906 -11.46875 18.796875 -11.6875 Z M 18.796875 -11.6875 "/></g></g></g><g fill="#000000" fill-opacity="1"><g transform="translate(97.90394, 199.124987)"><g><path d="M 20.578125 -19.125 C 20.578125 -17.375 20.085938 -15.796875 19.109375 -14.390625 C 18.140625 -12.984375 16.875 -11.882812 15.3125 -11.09375 C 14.40625 -10.625 13.460938 -10.316406 12.484375 -10.171875 C 11.515625 -10.023438 10.523438 -9.953125 9.515625 -9.953125 C 9.285156 -9.953125 9.019531 -9.960938 8.71875 -9.984375 C 8.425781 -10.015625 8.28125 -10.191406 8.28125 -10.515625 C 8.28125 -10.785156 8.351562 -10.972656 8.5 -11.078125 C 8.65625 -11.191406 8.832031 -11.257812 9.03125 -11.28125 C 9.226562 -11.3125 9.441406 -11.3125 9.671875 -11.28125 C 9.910156 -11.257812 10.128906 -11.25 10.328125 -11.25 C 11.335938 -11.25 12.242188 -11.4375 13.046875 -11.8125 C 13.847656 -12.195312 14.53125 -12.707031 15.09375 -13.34375 C 15.664062 -13.988281 16.097656 -14.742188 16.390625 -15.609375 C 16.679688 -16.472656 16.828125 -17.390625 16.828125 -18.359375 C 16.828125 -19.265625 16.703125 -20.144531 16.453125 -21 C 16.210938 -21.851562 15.835938 -22.601562 15.328125 -23.25 C 14.828125 -23.90625 14.203125 -24.421875 13.453125 -24.796875 C 12.703125 -25.179688 11.832031 -25.375 10.84375 -25.375 C 10.445312 -25.375 9.953125 -25.3125 9.359375 -25.1875 C 8.765625 -25.070312 8.304688 -24.898438 7.984375 -24.671875 C 7.710938 -24.484375 7.535156 -24.210938 7.453125 -23.859375 C 7.367188 -23.515625 7.3125 -23.195312 7.28125 -22.90625 C 7.238281 -22.113281 7.207031 -21.3125 7.1875 -20.5 C 7.175781 -19.6875 7.160156 -18.859375 7.140625 -18.015625 C 7.085938 -16.015625 7.039062 -14.035156 7 -12.078125 C 6.96875 -10.117188 6.953125 -8.140625 6.953125 -6.140625 C 6.953125 -5.523438 6.953125 -4.898438 6.953125 -4.265625 C 6.953125 -3.640625 7.003906 -3.019531 7.109375 -2.40625 C 7.179688 -1.988281 7.273438 -1.695312 7.390625 -1.53125 C 7.515625 -1.375 7.800781 -1.296875 8.25 -1.296875 C 8.789062 -1.296875 9.300781 -1.367188 9.78125 -1.515625 C 10.269531 -1.660156 10.695312 -1.734375 11.0625 -1.734375 C 11.332031 -1.734375 11.46875 -1.5625 11.46875 -1.21875 C 11.46875 -1.019531 11.425781 -0.894531 11.34375 -0.84375 C 11.257812 -0.800781 11.15625 -0.753906 11.03125 -0.703125 C 10.832031 -0.648438 10.617188 -0.617188 10.390625 -0.609375 C 10.171875 -0.597656 9.953125 -0.566406 9.734375 -0.515625 C 9.335938 -0.441406 8.953125 -0.359375 8.578125 -0.265625 C 8.210938 -0.179688 7.832031 -0.09375 7.4375 0 C 6.894531 0.125 6.363281 0.265625 5.84375 0.421875 C 5.320312 0.585938 4.804688 0.769531 4.296875 0.96875 C 4.117188 1.007812 3.863281 1.097656 3.53125 1.234375 C 3.195312 1.367188 2.945312 1.4375 2.78125 1.4375 C 2.550781 1.4375 2.4375 1.328125 2.4375 1.109375 C 2.4375 0.984375 2.476562 0.863281 2.5625 0.75 C 2.65625 0.644531 2.738281 0.554688 2.8125 0.484375 C 3.0625 0.179688 3.222656 -0.117188 3.296875 -0.421875 C 3.367188 -0.734375 3.429688 -1.0625 3.484375 -1.40625 C 3.523438 -1.851562 3.554688 -2.296875 3.578125 -2.734375 C 3.609375 -3.179688 3.632812 -3.625 3.65625 -4.0625 C 3.738281 -6.019531 3.828125 -7.960938 3.921875 -9.890625 C 4.015625 -11.828125 4.078125 -13.757812 4.109375 -15.6875 C 4.109375 -16.625 4.085938 -17.546875 4.046875 -18.453125 C 4.015625 -19.367188 3.972656 -20.296875 3.921875 -21.234375 C 3.921875 -21.335938 3.921875 -21.539062 3.921875 -21.84375 C 3.921875 -22.15625 3.914062 -22.46875 3.90625 -22.78125 C 3.894531 -23.101562 3.847656 -23.390625 3.765625 -23.640625 C 3.691406 -23.890625 3.570312 -24.015625 3.40625 -24.015625 C 3.132812 -24.015625 2.84375 -23.960938 2.53125 -23.859375 C 2.226562 -23.765625 1.921875 -23.65625 1.609375 -23.53125 C 1.296875 -23.40625 1.007812 -23.289062 0.75 -23.1875 C 0.5 -23.09375 0.296875 -23.046875 0.140625 -23.046875 C -0.046875 -23.046875 -0.140625 -23.171875 -0.140625 -23.421875 C -0.140625 -23.671875 -0.0195312 -23.851562 0.21875 -23.96875 C 0.632812 -24.21875 1.097656 -24.445312 1.609375 -24.65625 C 2.117188 -24.863281 2.59375 -25.066406 3.03125 -25.265625 C 4.269531 -25.765625 5.578125 -26.164062 6.953125 -26.46875 C 8.335938 -26.78125 9.695312 -26.9375 11.03125 -26.9375 C 11.8125 -26.9375 12.671875 -26.867188 13.609375 -26.734375 C 14.546875 -26.597656 15.382812 -26.367188 16.125 -26.046875 C 17.53125 -25.429688 18.625 -24.503906 19.40625 -23.265625 C 20.1875 -22.035156 20.578125 -20.65625 20.578125 -19.125 Z M 20.578125 -19.125 "/></g></g></g><g fill="#000000" fill-opacity="1"><g transform="translate(119.139675, 199.124987)"><g><path d="M 3.890625 -22.90625 C 3.890625 -23.125 3.867188 -23.4375 3.828125 -23.84375 C 3.796875 -24.25 3.71875 -24.550781 3.59375 -24.75 C 3.519531 -24.875 3.359375 -25.007812 3.109375 -25.15625 C 2.859375 -25.300781 2.734375 -25.425781 2.734375 -25.53125 C 2.734375 -25.695312 2.847656 -25.816406 3.078125 -25.890625 C 3.316406 -25.972656 3.5 -26.035156 3.625 -26.078125 C 3.726562 -26.109375 3.96875 -26.191406 4.34375 -26.328125 C 4.726562 -26.460938 5.125 -26.601562 5.53125 -26.75 C 5.9375 -26.894531 6.304688 -27.023438 6.640625 -27.140625 C 6.972656 -27.253906 7.148438 -27.3125 7.171875 -27.3125 C 7.296875 -27.3125 7.4375 -27.203125 7.59375 -26.984375 C 7.757812 -26.773438 7.84375 -26.597656 7.84375 -26.453125 C 7.84375 -26.378906 7.816406 -26.269531 7.765625 -26.125 C 7.671875 -25.78125 7.609375 -25.425781 7.578125 -25.0625 C 7.554688 -24.707031 7.535156 -24.359375 7.515625 -24.015625 C 7.484375 -23.515625 7.445312 -23.007812 7.40625 -22.5 C 7.375 -22 7.347656 -21.503906 7.328125 -21.015625 C 7.203125 -18.328125 7.101562 -15.660156 7.03125 -13.015625 C 6.957031 -10.378906 6.90625 -7.726562 6.875 -5.0625 C 6.875 -4.96875 6.875 -4.785156 6.875 -4.515625 C 6.875 -4.242188 6.878906 -3.957031 6.890625 -3.65625 C 6.910156 -3.363281 6.929688 -3.09375 6.953125 -2.84375 C 6.984375 -2.601562 7.007812 -2.445312 7.03125 -2.375 C 7.125 -2.125 7.320312 -2 7.625 -2 C 8.0625 -2 8.492188 -2.078125 8.921875 -2.234375 C 9.359375 -2.398438 9.710938 -2.484375 9.984375 -2.484375 C 10.140625 -2.484375 10.234375 -2.425781 10.265625 -2.3125 C 10.304688 -2.195312 10.328125 -2.082031 10.328125 -1.96875 C 10.328125 -1.8125 10.285156 -1.703125 10.203125 -1.640625 C 10.128906 -1.578125 10.035156 -1.507812 9.921875 -1.4375 C 9.296875 -1.21875 8.675781 -1.015625 8.0625 -0.828125 C 7.445312 -0.648438 6.832031 -0.445312 6.21875 -0.21875 C 5.75 -0.0507812 5.285156 0.125 4.828125 0.3125 C 4.367188 0.5 3.90625 0.703125 3.4375 0.921875 C 3.3125 0.972656 3.210938 1.015625 3.140625 1.046875 C 3.066406 1.085938 2.96875 1.109375 2.84375 1.109375 C 2.71875 1.109375 2.628906 1.054688 2.578125 0.953125 C 2.535156 0.859375 2.515625 0.765625 2.515625 0.671875 C 2.515625 0.566406 2.546875 0.476562 2.609375 0.40625 C 2.671875 0.332031 2.726562 0.257812 2.78125 0.1875 C 3.019531 -0.113281 3.179688 -0.367188 3.265625 -0.578125 C 3.359375 -0.785156 3.429688 -1.085938 3.484375 -1.484375 C 3.578125 -2.242188 3.617188 -3.003906 3.609375 -3.765625 C 3.597656 -4.535156 3.601562 -5.316406 3.625 -6.109375 C 3.695312 -8.222656 3.757812 -10.328125 3.8125 -12.421875 C 3.863281 -14.523438 3.890625 -16.640625 3.890625 -18.765625 Z M 3.890625 -22.90625 "/></g></g></g><g fill="#000000" fill-opacity="1"><g transform="translate(130.793433, 199.124987)"><g/></g></g><g fill="#000000" fill-opacity="1"><g transform="translate(140.042445, 199.124987)"><g><path d="M 29.9375 -2.328125 C 29.9375 -2.234375 29.851562 -2.125 29.6875 -2 C 29.53125 -1.875 29.335938 -1.738281 29.109375 -1.59375 C 28.890625 -1.445312 28.644531 -1.289062 28.375 -1.125 C 28.101562 -0.96875 27.859375 -0.800781 27.640625 -0.625 C 27.171875 -0.28125 26.789062 0.00390625 26.5 0.234375 C 26.21875 0.472656 25.988281 0.664062 25.8125 0.8125 C 25.644531 0.957031 25.503906 1.066406 25.390625 1.140625 C 25.285156 1.222656 25.1875 1.265625 25.09375 1.265625 C 25.007812 1.265625 24.941406 1.253906 24.890625 1.234375 C 24.847656 1.222656 24.789062 1.179688 24.71875 1.109375 C 24.613281 1.015625 24.488281 0.804688 24.34375 0.484375 C 24.195312 0.160156 24.050781 -0.144531 23.90625 -0.4375 C 23.476562 -1.257812 23.117188 -1.984375 22.828125 -2.609375 C 22.535156 -3.234375 22.210938 -3.90625 21.859375 -4.625 C 21.472656 -5.46875 21.097656 -6.304688 20.734375 -7.140625 C 20.378906 -7.984375 20.03125 -8.820312 19.6875 -9.65625 C 19.3125 -9.675781 18.9375 -9.691406 18.5625 -9.703125 C 18.195312 -9.722656 17.832031 -9.734375 17.46875 -9.734375 C 17.238281 -9.734375 16.796875 -9.722656 16.140625 -9.703125 C 15.492188 -9.691406 14.742188 -9.664062 13.890625 -9.625 C 13.035156 -9.59375 12.144531 -9.539062 11.21875 -9.46875 C 10.300781 -9.394531 9.457031 -9.285156 8.6875 -9.140625 C 8.269531 -9.066406 7.84375 -8.960938 7.40625 -8.828125 C 6.976562 -8.691406 6.59375 -8.488281 6.25 -8.21875 C 6.101562 -8.09375 5.929688 -7.9375 5.734375 -7.75 C 5.535156 -7.5625 5.34375 -7.363281 5.15625 -7.15625 C 4.976562 -6.945312 4.804688 -6.742188 4.640625 -6.546875 C 4.484375 -6.347656 4.367188 -6.203125 4.296875 -6.109375 C 3.828125 -5.441406 3.320312 -4.742188 2.78125 -4.015625 C 2.238281 -3.285156 1.710938 -2.582031 1.203125 -1.90625 C 0.691406 -1.226562 0.21875 -0.601562 -0.21875 -0.03125 C -0.664062 0.53125 -1.035156 0.984375 -1.328125 1.328125 C -1.429688 1.429688 -1.566406 1.59375 -1.734375 1.8125 C -1.910156 2.03125 -2.082031 2.140625 -2.25 2.140625 C -2.375 2.140625 -2.476562 2.101562 -2.5625 2.03125 C -2.65625 1.957031 -2.703125 1.859375 -2.703125 1.734375 C -2.703125 1.585938 -2.644531 1.398438 -2.53125 1.171875 C -2.425781 0.953125 -2.304688 0.738281 -2.171875 0.53125 C -2.035156 0.320312 -1.890625 0.128906 -1.734375 -0.046875 C -1.585938 -0.234375 -1.476562 -0.390625 -1.40625 -0.515625 C -0.664062 -1.554688 0.0390625 -2.59375 0.71875 -3.625 C 1.394531 -4.664062 2.066406 -5.703125 2.734375 -6.734375 C 4.441406 -9.347656 6.101562 -11.976562 7.71875 -14.625 C 9.332031 -17.28125 10.816406 -20.015625 12.171875 -22.828125 C 12.367188 -23.222656 12.546875 -23.660156 12.703125 -24.140625 C 12.867188 -24.617188 12.976562 -24.992188 13.03125 -25.265625 C 13.050781 -25.390625 13.070312 -25.519531 13.09375 -25.65625 C 13.125 -25.789062 13.160156 -25.921875 13.203125 -26.046875 C 13.273438 -26.242188 13.367188 -26.375 13.484375 -26.4375 C 13.597656 -26.5 13.753906 -26.59375 13.953125 -26.71875 C 14.171875 -26.84375 14.453125 -26.976562 14.796875 -27.125 C 15.140625 -27.269531 15.425781 -27.34375 15.65625 -27.34375 C 15.800781 -27.34375 15.90625 -27.320312 15.96875 -27.28125 C 16.03125 -27.25 16.125 -27.160156 16.25 -27.015625 C 16.269531 -26.960938 16.3125 -26.867188 16.375 -26.734375 C 16.4375 -26.597656 16.5 -26.441406 16.5625 -26.265625 C 16.625 -26.097656 16.679688 -25.925781 16.734375 -25.75 C 16.796875 -25.582031 16.84375 -25.445312 16.875 -25.34375 C 17.8125 -22.332031 18.847656 -19.421875 19.984375 -16.609375 C 20.765625 -14.640625 21.5625 -12.6875 22.375 -10.75 C 23.195312 -8.8125 24.101562 -6.90625 25.09375 -5.03125 C 25.238281 -4.738281 25.410156 -4.441406 25.609375 -4.140625 C 25.804688 -3.847656 26.019531 -3.582031 26.25 -3.34375 C 26.488281 -3.113281 26.753906 -2.914062 27.046875 -2.75 C 27.335938 -2.59375 27.671875 -2.515625 28.046875 -2.515625 C 28.410156 -2.515625 28.703125 -2.566406 28.921875 -2.671875 C 29.148438 -2.785156 29.363281 -2.84375 29.5625 -2.84375 C 29.707031 -2.84375 29.804688 -2.785156 29.859375 -2.671875 C 29.910156 -2.566406 29.9375 -2.453125 29.9375 -2.328125 Z M 18.796875 -11.6875 C 18.003906 -13.320312 17.304688 -14.992188 16.703125 -16.703125 C 16.097656 -18.421875 15.535156 -20.140625 15.015625 -21.859375 C 14.972656 -22.035156 14.925781 -22.207031 14.875 -22.375 C 14.820312 -22.550781 14.734375 -22.703125 14.609375 -22.828125 C 14.566406 -22.804688 14.535156 -22.78125 14.515625 -22.75 C 14.503906 -22.726562 14.476562 -22.691406 14.4375 -22.640625 C 14.1875 -22.148438 13.945312 -21.644531 13.71875 -21.125 C 13.5 -20.601562 13.253906 -20.085938 12.984375 -19.578125 C 12.265625 -18.191406 11.484375 -16.84375 10.640625 -15.53125 C 9.804688 -14.226562 8.972656 -12.910156 8.140625 -11.578125 C 9.097656 -11.453125 10.054688 -11.363281 11.015625 -11.3125 C 11.984375 -11.269531 12.9375 -11.25 13.875 -11.25 C 14.6875 -11.25 15.507812 -11.265625 16.34375 -11.296875 C 17.1875 -11.335938 18.003906 -11.46875 18.796875 -11.6875 Z M 18.796875 -11.6875 "/></g></g></g><g fill="#000000" fill-opacity="1"><g transform="translate(169.491307, 199.124987)"><g><path d="M 6.25 -1.703125 C 6.445312 -1.703125 6.660156 -1.722656 6.890625 -1.765625 C 7.128906 -1.816406 7.347656 -1.867188 7.546875 -1.921875 C 7.597656 -1.953125 7.65625 -1.976562 7.71875 -2 C 7.78125 -2.019531 7.832031 -2.03125 7.875 -2.03125 C 8.050781 -2.03125 8.160156 -1.957031 8.203125 -1.8125 C 8.253906 -1.664062 8.28125 -1.53125 8.28125 -1.40625 C 8.28125 -1.226562 8.207031 -1.113281 8.0625 -1.0625 C 7.914062 -1.019531 7.78125 -0.972656 7.65625 -0.921875 C 7.632812 -0.898438 7.570312 -0.867188 7.46875 -0.828125 C 7.375 -0.796875 7.269531 -0.753906 7.15625 -0.703125 C 7.050781 -0.648438 6.941406 -0.601562 6.828125 -0.5625 C 6.710938 -0.53125 6.644531 -0.515625 6.625 -0.515625 C 5.90625 -0.242188 5.28125 0.03125 4.75 0.3125 C 4.21875 0.59375 3.632812 0.929688 3 1.328125 C 2.894531 1.378906 2.800781 1.4375 2.71875 1.5 C 2.632812 1.5625 2.53125 1.59375 2.40625 1.59375 C 2.03125 1.59375 1.84375 1.421875 1.84375 1.078125 C 1.84375 0.878906 1.867188 0.691406 1.921875 0.515625 C 1.972656 0.347656 2.023438 0.164062 2.078125 -0.03125 C 2.117188 -0.332031 2.148438 -0.632812 2.171875 -0.9375 C 2.203125 -1.25 2.242188 -1.550781 2.296875 -1.84375 C 2.421875 -2.851562 2.492188 -3.875 2.515625 -4.90625 C 2.535156 -5.945312 2.546875 -6.988281 2.546875 -8.03125 C 2.546875 -9.582031 2.554688 -11.132812 2.578125 -12.6875 C 2.609375 -14.238281 2.625 -15.796875 2.625 -17.359375 C 2.625 -17.503906 2.617188 -17.957031 2.609375 -18.71875 C 2.597656 -19.488281 2.582031 -20.316406 2.5625 -21.203125 C 2.550781 -22.085938 2.535156 -22.894531 2.515625 -23.625 C 2.492188 -24.351562 2.46875 -24.753906 2.4375 -24.828125 L 2.4375 -24.96875 C 2.4375 -25.09375 2.515625 -25.1875 2.671875 -25.25 C 2.835938 -25.3125 2.957031 -25.351562 3.03125 -25.375 L 5.8125 -26.046875 C 6.082031 -26.117188 6.347656 -26.207031 6.609375 -26.3125 C 6.867188 -26.425781 7.132812 -26.484375 7.40625 -26.484375 C 7.550781 -26.484375 7.644531 -26.425781 7.6875 -26.3125 C 7.738281 -26.207031 7.765625 -26.09375 7.765625 -25.96875 C 7.765625 -25.84375 7.679688 -25.734375 7.515625 -25.640625 C 7.359375 -25.546875 7.175781 -25.414062 6.96875 -25.25 C 6.757812 -25.09375 6.550781 -24.878906 6.34375 -24.609375 C 6.132812 -24.335938 5.984375 -23.976562 5.890625 -23.53125 C 5.804688 -23.207031 5.742188 -22.816406 5.703125 -22.359375 C 5.671875 -21.910156 5.644531 -21.4375 5.625 -20.9375 C 5.601562 -20.445312 5.582031 -19.960938 5.5625 -19.484375 C 5.550781 -19.003906 5.546875 -18.585938 5.546875 -18.234375 C 5.492188 -16.785156 5.457031 -15.34375 5.4375 -13.90625 C 5.414062 -12.476562 5.40625 -11.035156 5.40625 -9.578125 L 5.40625 -3.703125 C 5.40625 -3.503906 5.410156 -3.316406 5.421875 -3.140625 C 5.429688 -2.972656 5.4375 -2.789062 5.4375 -2.59375 C 5.4375 -2.363281 5.472656 -2.15625 5.546875 -1.96875 C 5.617188 -1.789062 5.789062 -1.703125 6.0625 -1.703125 Z M 6.25 -1.703125 "/></g></g></g><g fill="#000000" fill-opacity="1"><g transform="translate(178.407364, 199.124987)"><g><path d="M 15.171875 -4.84375 C 15.171875 -4.769531 15.140625 -4.671875 15.078125 -4.546875 C 15.015625 -4.421875 14.945312 -4.296875 14.875 -4.171875 C 14.800781 -4.054688 14.734375 -3.9375 14.671875 -3.8125 C 14.609375 -3.6875 14.566406 -3.597656 14.546875 -3.546875 C 14.367188 -3.234375 14.15625 -2.882812 13.90625 -2.5 C 13.664062 -2.113281 13.398438 -1.734375 13.109375 -1.359375 C 12.828125 -0.992188 12.519531 -0.660156 12.1875 -0.359375 C 11.851562 -0.0664062 11.503906 0.140625 11.140625 0.265625 C 10.796875 0.378906 10.398438 0.460938 9.953125 0.515625 C 9.503906 0.566406 9.097656 0.59375 8.734375 0.59375 C 8.015625 0.59375 7.242188 0.535156 6.421875 0.421875 C 5.597656 0.316406 4.863281 0.078125 4.21875 -0.296875 C 3.101562 -0.941406 2.335938 -1.84375 1.921875 -3 C 1.503906 -4.15625 1.296875 -5.335938 1.296875 -6.546875 C 1.296875 -7.660156 1.460938 -8.757812 1.796875 -9.84375 C 2.128906 -10.925781 2.613281 -11.882812 3.25 -12.71875 C 3.894531 -13.5625 4.691406 -14.242188 5.640625 -14.765625 C 6.585938 -15.285156 7.679688 -15.546875 8.921875 -15.546875 C 9.515625 -15.546875 10.085938 -15.488281 10.640625 -15.375 C 11.191406 -15.257812 11.753906 -15.101562 12.328125 -14.90625 C 12.566406 -14.832031 12.796875 -14.753906 13.015625 -14.671875 C 13.242188 -14.585938 13.484375 -14.492188 13.734375 -14.390625 C 13.847656 -14.335938 13.90625 -14.238281 13.90625 -14.09375 C 13.90625 -14.019531 13.867188 -13.878906 13.796875 -13.671875 C 13.722656 -13.460938 13.632812 -13.234375 13.53125 -12.984375 C 13.4375 -12.734375 13.347656 -12.5 13.265625 -12.28125 C 13.179688 -12.0625 13.125 -11.914062 13.09375 -11.84375 C 13.050781 -11.769531 13.007812 -11.675781 12.96875 -11.5625 C 12.925781 -11.445312 12.859375 -11.390625 12.765625 -11.390625 C 12.660156 -11.390625 12.5625 -11.414062 12.46875 -11.46875 C 12.375 -11.519531 12.285156 -11.570312 12.203125 -11.625 C 11.492188 -12.039062 10.707031 -12.398438 9.84375 -12.703125 C 8.976562 -13.015625 8.113281 -13.171875 7.25 -13.171875 C 6.582031 -13.171875 6.019531 -13.039062 5.5625 -12.78125 C 5.113281 -12.519531 4.738281 -12.171875 4.4375 -11.734375 C 4.144531 -11.304688 3.929688 -10.820312 3.796875 -10.28125 C 3.660156 -9.738281 3.59375 -9.171875 3.59375 -8.578125 C 3.59375 -7.765625 3.707031 -6.96875 3.9375 -6.1875 C 4.175781 -5.414062 4.519531 -4.726562 4.96875 -4.125 C 5.425781 -3.519531 6 -3.03125 6.6875 -2.65625 C 7.382812 -2.289062 8.191406 -2.109375 9.109375 -2.109375 C 10.160156 -2.109375 11.015625 -2.269531 11.671875 -2.59375 C 12.328125 -2.914062 12.84375 -3.269531 13.21875 -3.65625 C 13.601562 -4.050781 13.894531 -4.410156 14.09375 -4.734375 C 14.289062 -5.054688 14.476562 -5.21875 14.65625 -5.21875 C 14.78125 -5.21875 14.894531 -5.1875 15 -5.125 C 15.113281 -5.0625 15.171875 -4.96875 15.171875 -4.84375 Z M 15.171875 -4.84375 "/></g></g></g><g fill="#000000" fill-opacity="1"><g transform="translate(194.833617, 199.124987)"><g><path d="M 15.609375 -1.921875 C 15.679688 -1.953125 15.8125 -2.003906 16 -2.078125 C 16.1875 -2.148438 16.382812 -2.222656 16.59375 -2.296875 C 16.800781 -2.367188 16.988281 -2.4375 17.15625 -2.5 C 17.332031 -2.5625 17.457031 -2.59375 17.53125 -2.59375 C 17.65625 -2.59375 17.757812 -2.546875 17.84375 -2.453125 C 17.9375 -2.367188 17.984375 -2.265625 17.984375 -2.140625 C 17.984375 -1.992188 17.953125 -1.890625 17.890625 -1.828125 C 17.828125 -1.765625 17.734375 -1.710938 17.609375 -1.671875 C 17.335938 -1.546875 17.078125 -1.429688 16.828125 -1.328125 C 16.585938 -1.234375 16.332031 -1.125 16.0625 -1 C 15.46875 -0.726562 14.867188 -0.460938 14.265625 -0.203125 C 13.660156 0.0546875 13.0625 0.332031 12.46875 0.625 C 12.375 0.675781 12.265625 0.734375 12.140625 0.796875 C 12.015625 0.859375 11.890625 0.890625 11.765625 0.890625 C 11.640625 0.890625 11.546875 0.84375 11.484375 0.75 C 11.421875 0.664062 11.390625 0.5625 11.390625 0.4375 C 11.390625 0.320312 11.457031 0.148438 11.59375 -0.078125 C 11.726562 -0.316406 11.820312 -0.5 11.875 -0.625 C 12.445312 -1.707031 12.789062 -2.804688 12.90625 -3.921875 C 13.03125 -5.035156 13.09375 -6.179688 13.09375 -7.359375 C 13.09375 -8.023438 13.035156 -8.695312 12.921875 -9.375 C 12.816406 -10.050781 12.609375 -10.65625 12.296875 -11.1875 C 11.992188 -11.71875 11.582031 -12.15625 11.0625 -12.5 C 10.539062 -12.851562 9.875 -13.03125 9.0625 -13.03125 C 8.539062 -13.03125 7.972656 -12.921875 7.359375 -12.703125 C 6.742188 -12.492188 6.253906 -12.179688 5.890625 -11.765625 C 5.691406 -11.546875 5.546875 -11.28125 5.453125 -10.96875 C 5.367188 -10.664062 5.3125 -10.332031 5.28125 -9.96875 C 5.257812 -9.613281 5.25 -9.265625 5.25 -8.921875 C 5.25 -8.578125 5.25 -8.28125 5.25 -8.03125 C 5.25 -7.832031 5.242188 -7.632812 5.234375 -7.4375 C 5.222656 -7.238281 5.21875 -7.039062 5.21875 -6.84375 C 5.195312 -5.78125 5.175781 -4.722656 5.15625 -3.671875 C 5.144531 -2.628906 5.140625 -1.59375 5.140625 -0.5625 C 5.140625 -0.40625 5.070312 -0.296875 4.9375 -0.234375 C 4.800781 -0.171875 4.671875 -0.117188 4.546875 -0.078125 C 4.503906 -0.046875 4.367188 0.0078125 4.140625 0.09375 C 3.921875 0.175781 3.679688 0.265625 3.421875 0.359375 C 3.160156 0.460938 2.925781 0.554688 2.71875 0.640625 C 2.507812 0.734375 2.394531 0.78125 2.375 0.78125 C 2.269531 0.78125 2.210938 0.742188 2.203125 0.671875 C 2.191406 0.597656 2.1875 0.535156 2.1875 0.484375 C 2.1875 0.160156 2.195312 -0.160156 2.21875 -0.484375 C 2.238281 -0.804688 2.265625 -1.125 2.296875 -1.4375 C 2.347656 -2.226562 2.363281 -3.03125 2.34375 -3.84375 C 2.332031 -4.65625 2.34375 -5.472656 2.375 -6.296875 C 2.414062 -7.890625 2.445312 -9.476562 2.46875 -11.0625 C 2.5 -12.644531 2.523438 -14.222656 2.546875 -15.796875 C 2.578125 -16.804688 2.597656 -17.804688 2.609375 -18.796875 C 2.617188 -19.785156 2.625 -20.785156 2.625 -21.796875 C 2.625 -21.921875 2.625 -22.09375 2.625 -22.3125 C 2.625 -22.53125 2.617188 -22.75 2.609375 -22.96875 C 2.597656 -23.195312 2.5625 -23.410156 2.5 -23.609375 C 2.4375 -23.804688 2.351562 -23.941406 2.25 -24.015625 C 2.132812 -24.085938 2.007812 -24.128906 1.875 -24.140625 C 1.738281 -24.148438 1.609375 -24.15625 1.484375 -24.15625 L 1.265625 -24.15625 C 1.179688 -24.15625 1.101562 -24.148438 1.03125 -24.140625 C 0.957031 -24.128906 0.882812 -24.125 0.8125 -24.125 C 0.757812 -24.101562 0.6875 -24.09375 0.59375 -24.09375 C 0.414062 -24.09375 0.265625 -24.117188 0.140625 -24.171875 C 0.0234375 -24.234375 -0.03125 -24.363281 -0.03125 -24.5625 C -0.03125 -24.664062 0.015625 -24.753906 0.109375 -24.828125 C 0.210938 -24.898438 0.320312 -24.953125 0.4375 -24.984375 C 0.5625 -25.023438 0.691406 -25.054688 0.828125 -25.078125 C 0.960938 -25.109375 1.066406 -25.132812 1.140625 -25.15625 C 1.859375 -25.332031 2.554688 -25.503906 3.234375 -25.671875 C 3.910156 -25.847656 4.597656 -26.046875 5.296875 -26.265625 C 5.410156 -26.316406 5.566406 -26.375 5.765625 -26.4375 C 5.960938 -26.5 6.125 -26.53125 6.25 -26.53125 C 6.375 -26.53125 6.472656 -26.476562 6.546875 -26.375 C 6.617188 -26.28125 6.65625 -26.171875 6.65625 -26.046875 C 6.65625 -25.992188 6.632812 -25.921875 6.59375 -25.828125 C 6.289062 -25.085938 6.066406 -24.316406 5.921875 -23.515625 C 5.773438 -22.710938 5.675781 -21.894531 5.625 -21.0625 C 5.570312 -20.238281 5.539062 -19.414062 5.53125 -18.59375 C 5.519531 -17.769531 5.515625 -16.960938 5.515625 -16.171875 C 5.515625 -15.628906 5.488281 -15.085938 5.4375 -14.546875 C 5.382812 -14.003906 5.375 -13.457031 5.40625 -12.90625 C 5.550781 -13.03125 5.707031 -13.128906 5.875 -13.203125 C 6.050781 -13.273438 6.226562 -13.363281 6.40625 -13.46875 C 7.164062 -13.863281 7.988281 -14.257812 8.875 -14.65625 C 9.769531 -15.050781 10.644531 -15.25 11.5 -15.25 C 12.414062 -15.25 13.160156 -15.039062 13.734375 -14.625 C 14.316406 -14.21875 14.773438 -13.691406 15.109375 -13.046875 C 15.441406 -12.410156 15.664062 -11.695312 15.78125 -10.90625 C 15.894531 -10.125 15.953125 -9.363281 15.953125 -8.625 C 15.953125 -8.125 15.9375 -7.582031 15.90625 -7 C 15.882812 -6.425781 15.847656 -5.835938 15.796875 -5.234375 C 15.742188 -4.628906 15.679688 -4.03125 15.609375 -3.4375 C 15.535156 -2.84375 15.453125 -2.3125 15.359375 -1.84375 Z M 15.609375 -1.921875 "/></g></g></g><g fill="#000000" fill-opacity="1"><g transform="translate(214.03457, 199.124987)"><g><path d="M 15.6875 -4.765625 C 15.6875 -4.578125 15.523438 -4.21875 15.203125 -3.6875 C 14.878906 -3.15625 14.492188 -2.597656 14.046875 -2.015625 C 13.609375 -1.429688 13.171875 -0.90625 12.734375 -0.4375 C 12.304688 0.03125 11.984375 0.300781 11.765625 0.375 C 11.347656 0.5 10.816406 0.578125 10.171875 0.609375 C 9.535156 0.648438 8.984375 0.671875 8.515625 0.671875 C 6.210938 0.671875 4.445312 0.00390625 3.21875 -1.328125 C 1.988281 -2.660156 1.375 -4.453125 1.375 -6.703125 C 1.375 -7.734375 1.539062 -8.78125 1.875 -9.84375 C 2.207031 -10.90625 2.691406 -11.851562 3.328125 -12.6875 C 3.972656 -13.53125 4.75 -14.21875 5.65625 -14.75 C 6.570312 -15.28125 7.609375 -15.546875 8.765625 -15.546875 C 9.335938 -15.546875 9.894531 -15.457031 10.4375 -15.28125 C 10.976562 -15.101562 11.457031 -14.851562 11.875 -14.53125 C 12.289062 -14.21875 12.628906 -13.828125 12.890625 -13.359375 C 13.148438 -12.890625 13.28125 -12.347656 13.28125 -11.734375 C 13.28125 -11.160156 13.054688 -10.675781 12.609375 -10.28125 C 12.171875 -9.882812 11.742188 -9.550781 11.328125 -9.28125 C 10.898438 -9.007812 10.457031 -8.765625 10 -8.546875 C 9.550781 -8.328125 9.09375 -8.117188 8.625 -7.921875 C 8.125 -7.722656 7.613281 -7.546875 7.09375 -7.390625 C 6.582031 -7.242188 6.054688 -7.097656 5.515625 -6.953125 C 5.335938 -6.898438 5.148438 -6.851562 4.953125 -6.8125 C 4.753906 -6.78125 4.570312 -6.726562 4.40625 -6.65625 C 4.53125 -5.945312 4.695312 -5.300781 4.90625 -4.71875 C 5.113281 -4.132812 5.488281 -3.597656 6.03125 -3.109375 C 6.5 -2.691406 7.039062 -2.375 7.65625 -2.15625 C 8.269531 -1.945312 8.898438 -1.84375 9.546875 -1.84375 C 10.660156 -1.84375 11.671875 -2.144531 12.578125 -2.75 C 13.492188 -3.351562 14.269531 -4.085938 14.90625 -4.953125 C 14.957031 -5.023438 15.007812 -5.09375 15.0625 -5.15625 C 15.113281 -5.21875 15.1875 -5.25 15.28125 -5.25 C 15.40625 -5.25 15.503906 -5.195312 15.578125 -5.09375 C 15.648438 -5 15.6875 -4.890625 15.6875 -4.765625 Z M 9.953125 -11.984375 C 9.953125 -12.597656 9.765625 -13.078125 9.390625 -13.421875 C 9.023438 -13.773438 8.546875 -13.953125 7.953125 -13.953125 C 7.285156 -13.953125 6.71875 -13.785156 6.25 -13.453125 C 5.78125 -13.117188 5.394531 -12.691406 5.09375 -12.171875 C 4.800781 -11.648438 4.585938 -11.082031 4.453125 -10.46875 C 4.316406 -9.851562 4.25 -9.273438 4.25 -8.734375 L 4.25 -8.0625 C 4.28125 -8.0625 4.300781 -8.054688 4.3125 -8.046875 C 4.320312 -8.035156 4.335938 -8.03125 4.359375 -8.03125 C 4.585938 -8.03125 4.828125 -8.0625 5.078125 -8.125 C 5.335938 -8.1875 5.582031 -8.238281 5.8125 -8.28125 C 6.25 -8.363281 6.707031 -8.507812 7.1875 -8.71875 C 7.675781 -8.925781 8.125 -9.179688 8.53125 -9.484375 C 8.9375 -9.796875 9.273438 -10.160156 9.546875 -10.578125 C 9.816406 -11.003906 9.953125 -11.472656 9.953125 -11.984375 Z M 9.953125 -11.984375 "/></g></g></g><g fill="#000000" fill-opacity="1"><g transform="translate(230.460823, 199.124987)"><g><path d="M 3.25 0.671875 C 3.207031 0.617188 3.1875 0.554688 3.1875 0.484375 C 3.207031 0.359375 3.21875 0.207031 3.21875 0.03125 C 3.21875 -0.0820312 3.222656 -0.1875 3.234375 -0.28125 C 3.242188 -0.382812 3.265625 -0.5 3.296875 -0.625 C 3.335938 -1.125 3.367188 -1.617188 3.390625 -2.109375 C 3.421875 -2.597656 3.453125 -3.09375 3.484375 -3.59375 C 3.503906 -4.101562 3.515625 -4.617188 3.515625 -5.140625 C 3.515625 -5.660156 3.515625 -6.179688 3.515625 -6.703125 C 3.515625 -7.191406 3.515625 -7.804688 3.515625 -8.546875 C 3.515625 -9.285156 3.441406 -10 3.296875 -10.6875 C 3.148438 -11.382812 2.882812 -11.976562 2.5 -12.46875 C 2.113281 -12.957031 1.539062 -13.203125 0.78125 -13.203125 C 0.601562 -13.203125 0.441406 -13.179688 0.296875 -13.140625 C 0.148438 -13.109375 0.00390625 -13.09375 -0.140625 -13.09375 C -0.265625 -13.09375 -0.351562 -13.148438 -0.40625 -13.265625 C -0.457031 -13.378906 -0.484375 -13.484375 -0.484375 -13.578125 C -0.484375 -13.773438 -0.351562 -13.910156 -0.09375 -13.984375 C 0.164062 -14.054688 0.382812 -14.117188 0.5625 -14.171875 C 1.050781 -14.347656 1.550781 -14.515625 2.0625 -14.671875 C 2.582031 -14.828125 3.054688 -15.054688 3.484375 -15.359375 C 3.523438 -15.378906 3.582031 -15.414062 3.65625 -15.46875 C 3.738281 -15.519531 3.800781 -15.546875 3.84375 -15.546875 L 4 -15.5 C 4.039062 -15.445312 4.09375 -15.398438 4.15625 -15.359375 C 4.21875 -15.328125 4.285156 -15.289062 4.359375 -15.25 C 4.734375 -15.050781 5.066406 -14.703125 5.359375 -14.203125 C 5.660156 -13.710938 5.875 -13.269531 6 -12.875 C 6.3125 -13.050781 6.726562 -13.289062 7.25 -13.59375 C 7.769531 -13.90625 8.3125 -14.203125 8.875 -14.484375 C 9.445312 -14.765625 10.007812 -15.007812 10.5625 -15.21875 C 11.113281 -15.4375 11.578125 -15.546875 11.953125 -15.546875 C 12.316406 -15.546875 12.679688 -15.476562 13.046875 -15.34375 C 13.421875 -15.207031 13.765625 -15.015625 14.078125 -14.765625 C 14.390625 -14.515625 14.65625 -14.234375 14.875 -13.921875 C 15.09375 -13.617188 15.238281 -13.28125 15.3125 -12.90625 C 15.738281 -13.15625 16.222656 -13.429688 16.765625 -13.734375 C 17.304688 -14.046875 17.863281 -14.332031 18.4375 -14.59375 C 19.019531 -14.851562 19.59375 -15.078125 20.15625 -15.265625 C 20.726562 -15.453125 21.25 -15.546875 21.71875 -15.546875 C 22.1875 -15.546875 22.640625 -15.4375 23.078125 -15.21875 C 23.523438 -15.007812 23.910156 -14.734375 24.234375 -14.390625 C 24.554688 -14.046875 24.816406 -13.644531 25.015625 -13.1875 C 25.210938 -12.726562 25.351562 -12.253906 25.4375 -11.765625 C 25.519531 -11.273438 25.570312 -10.773438 25.59375 -10.265625 C 25.625 -9.765625 25.640625 -9.289062 25.640625 -8.84375 C 25.640625 -8 25.632812 -7.15625 25.625 -6.3125 C 25.613281 -5.476562 25.582031 -4.632812 25.53125 -3.78125 C 25.507812 -3.53125 25.484375 -3.285156 25.453125 -3.046875 C 25.429688 -2.816406 25.421875 -2.578125 25.421875 -2.328125 C 25.421875 -1.984375 25.628906 -1.8125 26.046875 -1.8125 C 26.335938 -1.8125 26.625 -1.859375 26.90625 -1.953125 C 27.195312 -2.054688 27.488281 -2.109375 27.78125 -2.109375 C 27.976562 -2.109375 28.078125 -2.019531 28.078125 -1.84375 C 28.078125 -1.726562 28.066406 -1.601562 28.046875 -1.46875 C 28.023438 -1.332031 27.925781 -1.238281 27.75 -1.1875 C 27.257812 -1.039062 26.765625 -0.898438 26.265625 -0.765625 C 25.773438 -0.628906 25.285156 -0.460938 24.796875 -0.265625 C 24.617188 -0.179688 24.40625 -0.0859375 24.15625 0.015625 C 23.914062 0.128906 23.664062 0.238281 23.40625 0.34375 C 23.144531 0.457031 22.894531 0.554688 22.65625 0.640625 C 22.425781 0.734375 22.238281 0.789062 22.09375 0.8125 C 21.96875 0.757812 21.875 0.707031 21.8125 0.65625 C 21.75 0.613281 21.71875 0.519531 21.71875 0.375 C 21.71875 0.21875 21.800781 -0.015625 21.96875 -0.328125 C 22.144531 -0.648438 22.257812 -0.898438 22.3125 -1.078125 C 22.582031 -1.960938 22.738281 -2.859375 22.78125 -3.765625 C 22.832031 -4.679688 22.859375 -5.609375 22.859375 -6.546875 C 22.859375 -7.285156 22.828125 -8.066406 22.765625 -8.890625 C 22.710938 -9.722656 22.507812 -10.472656 22.15625 -11.140625 C 21.863281 -11.703125 21.429688 -12.15625 20.859375 -12.5 C 20.296875 -12.851562 19.695312 -13.03125 19.0625 -13.03125 C 18.664062 -13.03125 18.320312 -13 18.03125 -12.9375 C 17.75 -12.875 17.484375 -12.785156 17.234375 -12.671875 C 16.992188 -12.554688 16.75 -12.425781 16.5 -12.28125 C 16.25 -12.132812 15.96875 -11.972656 15.65625 -11.796875 C 15.601562 -11.753906 15.566406 -11.707031 15.546875 -11.65625 C 15.566406 -11.476562 15.578125 -11.3125 15.578125 -11.15625 C 15.578125 -11 15.578125 -10.84375 15.578125 -10.6875 C 15.578125 -9.007812 15.554688 -7.34375 15.515625 -5.6875 C 15.484375 -4.039062 15.441406 -2.378906 15.390625 -0.703125 C 15.390625 -0.453125 15.289062 -0.28125 15.09375 -0.1875 C 15.039062 -0.15625 14.890625 -0.0976562 14.640625 -0.015625 C 14.398438 0.0664062 14.140625 0.15625 13.859375 0.25 C 13.578125 0.351562 13.3125 0.441406 13.0625 0.515625 C 12.8125 0.585938 12.660156 0.625 12.609375 0.625 C 12.515625 0.625 12.472656 0.550781 12.484375 0.40625 C 12.492188 0.257812 12.5 0.160156 12.5 0.109375 C 12.5 -0.992188 12.546875 -2.082031 12.640625 -3.15625 C 12.742188 -4.226562 12.796875 -5.320312 12.796875 -6.4375 C 12.796875 -7.25 12.773438 -8.0625 12.734375 -8.875 C 12.703125 -9.6875 12.515625 -10.476562 12.171875 -11.25 C 11.921875 -11.8125 11.554688 -12.257812 11.078125 -12.59375 C 10.597656 -12.925781 10.050781 -13.09375 9.4375 -13.09375 C 8.9375 -13.09375 8.425781 -12.96875 7.90625 -12.71875 C 7.394531 -12.476562 6.941406 -12.222656 6.546875 -11.953125 C 6.472656 -11.898438 6.410156 -11.851562 6.359375 -11.8125 C 6.316406 -11.78125 6.242188 -11.738281 6.140625 -11.6875 C 6.210938 -11.195312 6.25 -10.691406 6.25 -10.171875 C 6.25 -9.648438 6.25 -9.144531 6.25 -8.65625 C 6.25 -8.382812 6.234375 -7.820312 6.203125 -6.96875 C 6.179688 -6.125 6.144531 -5.234375 6.09375 -4.296875 C 6.050781 -3.359375 6 -2.5 5.9375 -1.71875 C 5.875 -0.945312 5.816406 -0.5 5.765625 -0.375 C 5.765625 -0.34375 5.644531 -0.273438 5.40625 -0.171875 C 5.175781 -0.078125 4.925781 0.0234375 4.65625 0.140625 C 4.382812 0.265625 4.117188 0.375 3.859375 0.46875 C 3.609375 0.570312 3.441406 0.640625 3.359375 0.671875 Z M 3.25 0.671875 "/></g></g></g><g fill="#000000" fill-opacity="1"><g transform="translate(259.243765, 199.124987)"><g><path d="M 6.46875 -22.609375 C 6.46875 -22.066406 6.269531 -21.609375 5.875 -21.234375 C 5.488281 -20.867188 5.035156 -20.6875 4.515625 -20.6875 C 3.992188 -20.6875 3.539062 -20.875 3.15625 -21.25 C 2.78125 -21.632812 2.59375 -22.085938 2.59375 -22.609375 C 2.59375 -23.148438 2.773438 -23.625 3.140625 -24.03125 C 3.515625 -24.4375 3.984375 -24.640625 4.546875 -24.640625 C 5.117188 -24.640625 5.582031 -24.4375 5.9375 -24.03125 C 6.289062 -23.625 6.46875 -23.148438 6.46875 -22.609375 Z M 3.078125 -8.46875 C 3.078125 -9.039062 3.078125 -9.640625 3.078125 -10.265625 C 3.078125 -10.898438 3.015625 -11.5 2.890625 -12.0625 C 2.816406 -12.332031 2.703125 -12.570312 2.546875 -12.78125 C 2.398438 -12.988281 2.164062 -13.09375 1.84375 -13.09375 C 1.675781 -13.09375 1.503906 -13.066406 1.328125 -13.015625 C 1.160156 -12.972656 0.988281 -12.953125 0.8125 -12.953125 C 0.59375 -12.953125 0.484375 -13.0625 0.484375 -13.28125 C 0.484375 -13.476562 0.519531 -13.617188 0.59375 -13.703125 C 0.664062 -13.796875 0.753906 -13.859375 0.859375 -13.890625 C 0.972656 -13.929688 1.085938 -13.957031 1.203125 -13.96875 C 1.316406 -13.976562 1.410156 -14.019531 1.484375 -14.09375 C 1.703125 -14.144531 1.976562 -14.222656 2.3125 -14.328125 C 2.644531 -14.441406 2.988281 -14.566406 3.34375 -14.703125 C 3.707031 -14.835938 4.046875 -14.972656 4.359375 -15.109375 C 4.679688 -15.242188 4.941406 -15.363281 5.140625 -15.46875 C 5.285156 -15.5625 5.445312 -15.609375 5.625 -15.609375 C 5.84375 -15.609375 5.988281 -15.503906 6.0625 -15.296875 C 6.132812 -15.085938 6.171875 -14.894531 6.171875 -14.71875 C 6.171875 -14.175781 6.144531 -13.640625 6.09375 -13.109375 C 6.050781 -12.585938 6.03125 -12.039062 6.03125 -11.46875 C 6.03125 -10.65625 6.023438 -9.84375 6.015625 -9.03125 C 6.003906 -8.21875 5.984375 -7.40625 5.953125 -6.59375 C 5.953125 -5.945312 5.945312 -5.296875 5.9375 -4.640625 C 5.925781 -3.984375 5.921875 -3.320312 5.921875 -2.65625 C 5.921875 -2.582031 5.921875 -2.4375 5.921875 -2.21875 C 5.921875 -2 5.921875 -1.765625 5.921875 -1.515625 C 5.921875 -1.265625 5.914062 -1.019531 5.90625 -0.78125 C 5.894531 -0.550781 5.875 -0.398438 5.84375 -0.328125 C 5.789062 -0.128906 5.617188 0.0078125 5.328125 0.09375 C 5.035156 0.175781 4.800781 0.242188 4.625 0.296875 C 4.5 0.347656 4.265625 0.425781 3.921875 0.53125 C 3.578125 0.644531 3.351562 0.703125 3.25 0.703125 C 3.050781 0.703125 2.945312 0.609375 2.9375 0.421875 C 2.925781 0.234375 2.921875 0.0664062 2.921875 -0.078125 C 2.921875 -0.867188 2.945312 -1.644531 3 -2.40625 C 3.050781 -3.164062 3.078125 -3.941406 3.078125 -4.734375 Z M 3.078125 -8.46875 "/></g></g></g><g fill="#000000" fill-opacity="1"><g transform="translate(268.159822, 199.124987)"><g><path d="M 14.25 -5.109375 C 14.25 -4.066406 13.972656 -3.179688 13.421875 -2.453125 C 12.878906 -1.734375 12.203125 -1.144531 11.390625 -0.6875 C 10.578125 -0.226562 9.679688 0.101562 8.703125 0.3125 C 7.734375 0.519531 6.816406 0.625 5.953125 0.625 C 4.398438 0.625 2.875 0.40625 1.375 -0.03125 C 1.21875 -0.0820312 1.117188 -0.113281 1.078125 -0.125 C 1.046875 -0.132812 1.007812 -0.21875 0.96875 -0.375 C 0.914062 -0.570312 0.878906 -0.851562 0.859375 -1.21875 C 0.847656 -1.59375 0.84375 -1.878906 0.84375 -2.078125 C 0.84375 -2.273438 0.847656 -2.484375 0.859375 -2.703125 C 0.878906 -2.921875 0.898438 -3.128906 0.921875 -3.328125 C 0.953125 -3.546875 0.984375 -3.722656 1.015625 -3.859375 C 1.054688 -3.992188 1.195312 -4.0625 1.4375 -4.0625 C 1.664062 -4.0625 1.8125 -4.003906 1.875 -3.890625 C 1.9375 -3.785156 1.976562 -3.632812 2 -3.4375 C 2.050781 -3.238281 2.085938 -3.046875 2.109375 -2.859375 C 2.128906 -2.679688 2.175781 -2.492188 2.25 -2.296875 C 2.5 -1.628906 2.9375 -1.226562 3.5625 -1.09375 C 4.195312 -0.957031 4.820312 -0.890625 5.4375 -0.890625 C 5.925781 -0.890625 6.5 -0.957031 7.15625 -1.09375 C 7.8125 -1.226562 8.4375 -1.429688 9.03125 -1.703125 C 9.625 -1.972656 10.125 -2.328125 10.53125 -2.765625 C 10.9375 -3.210938 11.140625 -3.757812 11.140625 -4.40625 C 11.140625 -4.800781 11.035156 -5.101562 10.828125 -5.3125 C 10.617188 -5.519531 10.359375 -5.671875 10.046875 -5.765625 C 9.734375 -5.867188 9.398438 -5.929688 9.046875 -5.953125 C 8.691406 -5.984375 8.378906 -6 8.109375 -6 C 7.609375 -6.019531 7.117188 -6.046875 6.640625 -6.078125 C 6.160156 -6.117188 5.675781 -6.203125 5.1875 -6.328125 C 4.34375 -6.523438 3.632812 -6.929688 3.0625 -7.546875 C 2.5 -8.160156 2.21875 -8.914062 2.21875 -9.8125 C 2.21875 -10.644531 2.398438 -11.414062 2.765625 -12.125 C 3.140625 -12.84375 3.625 -13.445312 4.21875 -13.9375 C 4.8125 -14.4375 5.488281 -14.828125 6.25 -15.109375 C 7.019531 -15.398438 7.8125 -15.546875 8.625 -15.546875 C 9.164062 -15.546875 9.707031 -15.492188 10.25 -15.390625 C 10.789062 -15.296875 11.320312 -15.171875 11.84375 -15.015625 C 12.113281 -14.921875 12.25 -14.703125 12.25 -14.359375 C 12.25 -14.253906 12.226562 -14.113281 12.1875 -13.9375 C 12.15625 -13.769531 12.113281 -13.601562 12.0625 -13.4375 C 12.007812 -13.28125 11.929688 -13.140625 11.828125 -13.015625 C 11.734375 -12.898438 11.640625 -12.84375 11.546875 -12.84375 C 11.421875 -12.84375 11.300781 -12.863281 11.1875 -12.90625 C 11.082031 -12.957031 10.96875 -13.007812 10.84375 -13.0625 C 10.625 -13.15625 10.363281 -13.238281 10.0625 -13.3125 C 9.769531 -13.394531 9.457031 -13.460938 9.125 -13.515625 C 8.789062 -13.578125 8.46875 -13.617188 8.15625 -13.640625 C 7.851562 -13.671875 7.578125 -13.6875 7.328125 -13.6875 C 6.953125 -13.6875 6.59375 -13.632812 6.25 -13.53125 C 5.90625 -13.4375 5.59375 -13.285156 5.3125 -13.078125 C 5.03125 -12.867188 4.800781 -12.613281 4.625 -12.3125 C 4.445312 -12.019531 4.359375 -11.675781 4.359375 -11.28125 C 4.359375 -10.738281 4.503906 -10.316406 4.796875 -10.015625 C 5.097656 -9.722656 5.492188 -9.503906 5.984375 -9.359375 C 6.484375 -9.210938 7.035156 -9.109375 7.640625 -9.046875 C 8.242188 -8.984375 8.851562 -8.925781 9.46875 -8.875 C 10.082031 -8.832031 10.664062 -8.765625 11.21875 -8.671875 C 11.78125 -8.585938 12.257812 -8.4375 12.65625 -8.21875 C 13.195312 -7.894531 13.597656 -7.441406 13.859375 -6.859375 C 14.117188 -6.285156 14.25 -5.703125 14.25 -5.109375 Z M 14.25 -5.109375 "/></g></g></g><g fill="#000000" fill-opacity="1"><g transform="translate(283.920143, 199.124987)"><g><path d="M 2.546875 -11.328125 C 2.546875 -11.597656 2.539062 -11.875 2.53125 -12.15625 C 2.519531 -12.4375 2.515625 -12.710938 2.515625 -12.984375 C 2.460938 -13.035156 2.414062 -13.0625 2.375 -13.0625 C 2.34375 -13.0625 2.300781 -13.070312 2.25 -13.09375 C 2.175781 -13.09375 2.078125 -13.085938 1.953125 -13.078125 C 1.835938 -13.066406 1.71875 -13.070312 1.59375 -13.09375 C 1.46875 -13.125 1.351562 -13.15625 1.25 -13.1875 C 1.15625 -13.226562 1.109375 -13.3125 1.109375 -13.4375 C 1.109375 -13.476562 1.132812 -13.550781 1.1875 -13.65625 C 1.1875 -13.707031 1.300781 -13.847656 1.53125 -14.078125 C 1.769531 -14.316406 2.0625 -14.585938 2.40625 -14.890625 C 2.75 -15.203125 3.125 -15.535156 3.53125 -15.890625 C 3.9375 -16.242188 4.316406 -16.582031 4.671875 -16.90625 C 5.035156 -17.226562 5.335938 -17.492188 5.578125 -17.703125 C 5.828125 -17.910156 5.976562 -18.039062 6.03125 -18.09375 C 6.082031 -18.144531 6.15625 -18.210938 6.25 -18.296875 C 6.351562 -18.378906 6.441406 -18.421875 6.515625 -18.421875 C 6.585938 -18.421875 6.660156 -18.382812 6.734375 -18.3125 C 6.804688 -18.238281 6.84375 -18.15625 6.84375 -18.0625 C 6.84375 -18.007812 6.832031 -17.957031 6.8125 -17.90625 C 6.613281 -17.4375 6.410156 -16.945312 6.203125 -16.4375 C 5.992188 -15.9375 5.890625 -15.425781 5.890625 -14.90625 L 5.921875 -14.875 C 6.484375 -14.875 7.054688 -14.878906 7.640625 -14.890625 C 8.222656 -14.898438 8.796875 -14.90625 9.359375 -14.90625 L 11.390625 -14.90625 C 11.492188 -14.90625 11.5625 -14.851562 11.59375 -14.75 C 11.632812 -14.65625 11.660156 -14.546875 11.671875 -14.421875 C 11.679688 -14.304688 11.679688 -14.1875 11.671875 -14.0625 C 11.660156 -13.9375 11.65625 -13.847656 11.65625 -13.796875 C 11.65625 -13.503906 11.582031 -13.347656 11.4375 -13.328125 C 11.289062 -13.316406 11.078125 -13.3125 10.796875 -13.3125 C 10.410156 -13.3125 10.023438 -13.300781 9.640625 -13.28125 C 9.253906 -13.257812 8.863281 -13.25 8.46875 -13.25 L 6.03125 -13.25 C 5.976562 -13.21875 5.921875 -13.203125 5.859375 -13.203125 C 5.796875 -13.203125 5.726562 -13.191406 5.65625 -13.171875 C 5.613281 -12.898438 5.582031 -12.644531 5.5625 -12.40625 C 5.550781 -12.175781 5.546875 -11.925781 5.546875 -11.65625 C 5.523438 -11.113281 5.488281 -10.578125 5.4375 -10.046875 C 5.382812 -9.515625 5.359375 -8.976562 5.359375 -8.4375 C 5.359375 -7.769531 5.363281 -7.019531 5.375 -6.1875 C 5.394531 -5.363281 5.503906 -4.632812 5.703125 -4 C 5.921875 -3.1875 6.335938 -2.546875 6.953125 -2.078125 C 7.566406 -1.609375 8.304688 -1.375 9.171875 -1.375 C 9.347656 -1.375 9.554688 -1.390625 9.796875 -1.421875 C 10.046875 -1.460938 10.300781 -1.515625 10.5625 -1.578125 C 10.820312 -1.640625 11.070312 -1.710938 11.3125 -1.796875 C 11.5625 -1.878906 11.757812 -1.957031 11.90625 -2.03125 C 12.03125 -2.101562 12.117188 -2.144531 12.171875 -2.15625 C 12.222656 -2.175781 12.3125 -2.195312 12.4375 -2.21875 C 12.457031 -2.21875 12.472656 -2.222656 12.484375 -2.234375 C 12.492188 -2.242188 12.515625 -2.25 12.546875 -2.25 C 12.671875 -2.25 12.753906 -2.175781 12.796875 -2.03125 C 12.847656 -1.882812 12.875 -1.765625 12.875 -1.671875 C 12.875 -1.585938 12.847656 -1.503906 12.796875 -1.421875 C 12.753906 -1.335938 12.679688 -1.269531 12.578125 -1.21875 C 12.085938 -1 11.597656 -0.757812 11.109375 -0.5 C 10.628906 -0.238281 10.132812 -0.0078125 9.625 0.1875 C 9.175781 0.332031 8.78125 0.429688 8.4375 0.484375 C 8.09375 0.535156 7.671875 0.5625 7.171875 0.5625 C 6.015625 0.5625 4.976562 0.3125 4.0625 -0.1875 C 3.988281 -0.238281 3.847656 -0.3125 3.640625 -0.40625 C 3.429688 -0.507812 3.300781 -0.582031 3.25 -0.625 C 3.101562 -0.726562 2.984375 -0.828125 2.890625 -0.921875 C 2.785156 -0.992188 2.691406 -1.070312 2.609375 -1.15625 C 2.523438 -1.25 2.484375 -1.320312 2.484375 -1.375 C 2.484375 -1.46875 2.460938 -1.566406 2.421875 -1.671875 C 2.390625 -1.785156 2.394531 -1.894531 2.4375 -2 C 2.46875 -2.050781 2.488281 -2.296875 2.5 -2.734375 C 2.507812 -3.179688 2.519531 -3.671875 2.53125 -4.203125 C 2.539062 -4.734375 2.546875 -5.25 2.546875 -5.75 C 2.546875 -6.257812 2.546875 -6.597656 2.546875 -6.765625 Z M 2.546875 -11.328125 "/></g></g></g><g fill="#000000" fill-opacity="1"><g transform="translate(296.942764, 199.124987)"><g><path d="M 6.546875 -1.328125 C 6.546875 -0.785156 6.335938 -0.332031 5.921875 0.03125 C 5.503906 0.40625 5.035156 0.59375 4.515625 0.59375 C 3.992188 0.59375 3.523438 0.40625 3.109375 0.03125 C 2.691406 -0.332031 2.484375 -0.785156 2.484375 -1.328125 C 2.484375 -1.898438 2.671875 -2.390625 3.046875 -2.796875 C 3.429688 -3.203125 3.910156 -3.40625 4.484375 -3.40625 C 5.046875 -3.40625 5.53125 -3.203125 5.9375 -2.796875 C 6.34375 -2.390625 6.546875 -1.898438 6.546875 -1.328125 Z M 6.546875 -1.328125 "/></g></g></g></svg>